M48
; DRILL file {KiCad (5.1.5)-3} date 2/15/2021 2:55:10 AM
; FORMAT={-:-/ absolute / inch / decimal}
; #@! TF.CreationDate,2021-02-15T02:55:10-08:00
; #@! TF.GenerationSoftware,Kicad,Pcbnew,(5.1.5)-3
; #@! TF.FileFunction,Plated,1,2,PTH
FMAT,2
INCH
T1C0.0157
T2C0.0295
T3C0.0315
T4C0.0320
T5C0.0390
T6C0.0394
T7C0.0472
T8C0.0579
T9C0.0591
%
G90
G05
T1
X5.5276Y4.4055
X5.9685Y3.8346
X6.4094Y5.0
X6.4094Y4.7362
X8.4961Y4.5276
T2
X5.6562Y4.9688
X5.6562Y4.6688
X13.4688Y4.7062
X13.4688Y4.4062
X8.9688Y4.9562
X8.9688Y4.6562
X8.3701Y3.3618
X8.6299Y3.5118
X7.8504Y3.0626
X8.1102Y3.2126
X1.9688Y3.2062
X1.9688Y2.9062
X1.2188Y3.2062
X1.2188Y2.9062
X2.7188Y4.3312
X2.7188Y4.0312
X4.9688Y3.4562
X4.9688Y3.1562
X8.9688Y3.8312
X8.9688Y3.5312
X9.7188Y3.5812
X9.7188Y3.2812
X1.2188Y3.9562
X1.2188Y3.6562
X9.7188Y4.9562
X9.7188Y4.6562
X2.7188Y3.5812
X2.7188Y3.2812
X12.7188Y4.7062
X12.7188Y4.4062
X11.2188Y4.5812
X11.2188Y4.2812
X11.9688Y3.5812
X11.9688Y3.2812
X1.9688Y4.7375
X1.9688Y4.4375
X3.4062Y2.5
X3.4475Y2.7972
X4.1562Y2.375
X4.1975Y2.6722
X11.2188Y5.3312
X11.2188Y5.0312
X1.2188Y4.7062
X1.2188Y4.4062
X12.7188Y3.2062
X12.7188Y2.9062
X11.2188Y3.8312
X11.2188Y3.5312
X2.7188Y5.0938
X2.7188Y4.7938
X4.9688Y4.9562
X4.9688Y4.6562
X4.2188Y3.5812
X4.2188Y3.2812
X4.7714Y2.525
X5.0312Y2.375
X10.4688Y5.0812
X10.4688Y4.7812
X13.4688Y3.2062
X13.4688Y2.9062
X10.4155Y3.1633
X10.4567Y2.8661
X1.9688Y3.9562
X1.9688Y3.6562
X3.4688Y4.5812
X3.4688Y4.2812
X4.2188Y4.3312
X4.2188Y4.0312
X5.7812Y1.9375
X6.0411Y1.7875
X13.4688Y3.9562
X13.4688Y3.6562
X10.4688Y4.3312
X10.4688Y4.0312
X10.4688Y3.5812
X10.4688Y3.2812
X4.2188Y5.0812
X4.2188Y4.7812
X3.4688Y5.3312
X3.4688Y5.0312
X5.7188Y3.8438
X5.7188Y3.5437
X12.7188Y3.9562
X12.7188Y3.6562
X11.9688Y5.0812
X11.9688Y4.7812
X3.4688Y3.8312
X3.4688Y3.5312
X11.9688Y4.3312
X11.9688Y4.0312
X4.9688Y4.2062
X4.9688Y3.9062
X9.7188Y4.2062
X9.7188Y3.9062
X11.1399Y3.2893
X11.1811Y2.9921
T4
X5.9192Y5.5388
X5.9192Y5.4387
X5.9192Y5.3388
X5.9192Y5.2387
X5.9192Y5.1387
X5.9192Y5.0388
X5.9192Y4.9387
X5.9192Y4.8388
X5.9192Y4.7387
X5.9192Y4.6387
X5.9192Y4.5388
X5.9192Y4.4387
X6.5184Y5.5388
X6.5184Y5.4387
X6.5184Y5.3388
X6.5184Y5.2387
X6.5184Y5.1387
X6.5184Y5.0388
X6.5184Y4.9387
X6.5184Y4.8388
X6.5184Y4.7387
X6.5184Y4.6387
X6.5184Y4.5388
X6.5184Y4.4387
X7.4192Y5.5388
X7.4192Y5.4387
X7.4192Y5.3388
X7.4192Y5.2387
X7.4192Y5.1387
X7.4192Y5.0388
X7.4192Y4.9387
X7.4192Y4.8388
X7.4192Y4.7387
X7.4192Y4.6387
X7.4192Y4.5388
X7.4192Y4.4387
X8.0184Y5.5388
X8.0184Y5.4387
X8.0184Y5.3388
X8.0184Y5.2387
X8.0184Y5.1387
X8.0184Y5.0388
X8.0184Y4.9387
X8.0184Y4.8388
X8.0184Y4.7387
X8.0184Y4.6387
X8.0184Y4.5388
X8.0184Y4.4387
T5
X5.2938Y4.8312
X5.3937Y4.8312
X8.5437Y4.8312
X8.6437Y4.8312
T6
X12.6188Y2.3565
X12.6188Y1.7857
X12.7173Y2.3565
X12.8157Y2.3565
X12.8157Y1.7857
X1.1282Y2.3733
X1.1282Y1.8024
X1.2266Y2.3733
X1.325Y2.3733
X1.325Y1.8024
X12.561Y1.53
X12.661Y1.53
X12.761Y1.53
X12.861Y1.53
X5.2453Y5.3068
X5.2453Y4.736
X5.3438Y4.736
X5.4422Y5.3068
X5.4422Y4.736
X8.4953Y5.3068
X8.4953Y4.736
X8.5938Y4.736
X8.6922Y5.3068
X8.6922Y4.736
X1.0789Y1.5463
X1.1789Y1.5463
X1.2789Y1.5463
X1.3789Y1.5463
T7
X5.3438Y5.2635
X5.5406Y5.1809
X8.5938Y5.2635
X8.7906Y5.1809
T8
X5.1937Y5.1312
X5.2453Y5.1887
X5.4422Y5.2084
X5.4437Y5.2313
X8.4437Y5.1312
X8.4953Y5.1887
X8.6922Y5.2084
X8.6937Y5.2313
T3
G00X7.7244Y2.448
M15
G01X7.7165Y2.4617
M16
G05
G00X7.936Y2.2815
M15
G01X7.9281Y2.2952
M16
G05
G00X8.1488Y2.5776
M15
G01X8.1409Y2.5912
M16
G05
G00X8.181Y2.3643
M15
G01X8.1731Y2.378
M16
G05
G00X11.3851Y3.5027
M15
G01X11.4008Y3.5027
M16
G05
G00X11.4359Y3.7563
M15
G01X11.4516Y3.7563
M16
G05
G00X11.5859Y3.424
M15
G01X11.6016Y3.424
M16
G05
G00X11.6859Y3.8562
M15
G01X11.7016Y3.8562
M16
G05
G00X0.7595Y1.878
M15
G01X0.7438Y1.878
M16
G05
G00X0.8595Y2.3103
M15
G01X0.8438Y2.3103
M16
G05
G00X1.0095Y1.978
M15
G01X0.9938Y1.978
M16
G05
G00X1.0603Y2.2315
M15
G01X1.0445Y2.2315
M16
G05
G00X8.3745Y2.8235
M15
G01X8.3666Y2.8372
M16
G05
G00X8.5861Y2.657
M15
G01X8.5782Y2.6707
M16
G05
G00X8.7989Y2.9531
M15
G01X8.791Y2.9667
M16
G05
G00X8.8311Y2.7398
M15
G01X8.8232Y2.7535
M16
G05
G00X2.8851Y3.7527
M15
G01X2.9008Y3.7527
M16
G05
G00X2.9359Y4.0062
M15
G01X2.9516Y4.0062
M16
G05
G00X3.0859Y3.674
M15
G01X3.1016Y3.674
M16
G05
G00X3.1859Y4.1063
M15
G01X3.2016Y4.1063
M16
G05
G00X1.3851Y3.8777
M15
G01X1.4008Y3.8777
M16
G05
G00X1.4359Y4.1312
M15
G01X1.4516Y4.1312
M16
G05
G00X1.5859Y3.799
M15
G01X1.6016Y3.799
M16
G05
G00X1.6859Y4.2313
M15
G01X1.7016Y4.2313
M16
G05
G00X12.1351Y4.6277
M15
G01X12.1508Y4.6277
M16
G05
G00X12.1859Y4.8812
M15
G01X12.2016Y4.8812
M16
G05
G00X12.3359Y4.549
M15
G01X12.3516Y4.549
M16
G05
G00X12.4359Y4.9813
M15
G01X12.4516Y4.9813
M16
G05
G00X11.3851Y5.0027
M15
G01X11.4008Y5.0027
M16
G05
G00X11.4359Y5.2562
M15
G01X11.4516Y5.2562
M16
G05
G00X11.5859Y4.924
M15
G01X11.6016Y4.924
M16
G05
G00X11.6859Y5.3563
M15
G01X11.7016Y5.3563
M16
G05
G00X5.8286Y2.382
M15
G01X5.8364Y2.3957
M16
G05
G00X5.867Y2.6485
M15
G01X5.8748Y2.6622
M16
G05
G00X6.0227Y2.2113
M15
G01X6.0306Y2.2249
M16
G05
G00X6.1913Y2.3458
M15
G01X6.1992Y2.3594
M16
G05
G00X4.3851Y4.1277
M15
G01X4.4008Y4.1277
M16
G05
G00X4.4359Y4.3812
M15
G01X4.4516Y4.3812
M16
G05
G00X4.5859Y4.049
M15
G01X4.6016Y4.049
M16
G05
G00X4.6859Y4.4813
M15
G01X4.7016Y4.4813
M16
G05
G00X9.1351Y4.8777
M15
G01X9.1508Y4.8777
M16
G05
G00X9.1859Y5.1312
M15
G01X9.2016Y5.1312
M16
G05
G00X9.3359Y4.799
M15
G01X9.3516Y4.799
M16
G05
G00X9.4359Y5.2313
M15
G01X9.4516Y5.2313
M16
G05
G00X12.1351Y3.8777
M15
G01X12.1508Y3.8777
M16
G05
G00X12.1859Y4.1312
M15
G01X12.2016Y4.1312
M16
G05
G00X12.3359Y3.799
M15
G01X12.3516Y3.799
M16
G05
G00X12.4359Y4.2313
M15
G01X12.4516Y4.2313
M16
G05
G00X3.6351Y3.5027
M15
G01X3.6508Y3.5027
M16
G05
G00X3.6859Y3.7563
M15
G01X3.7016Y3.7563
M16
G05
G00X3.8359Y3.424
M15
G01X3.8516Y3.424
M16
G05
G00X3.9359Y3.8562
M15
G01X3.9516Y3.8562
M16
G05
G00X13.0001Y1.8613
M15
G01X12.9844Y1.8613
M16
G05
G00X13.1001Y2.2936
M15
G01X13.0844Y2.2936
M16
G05
G00X13.2501Y1.9613
M15
G01X13.2344Y1.9613
M16
G05
G00X13.3009Y2.2148
M15
G01X13.2852Y2.2148
M16
G05
G00X12.8851Y4.6277
M15
G01X12.9008Y4.6277
M16
G05
G00X12.9359Y4.8812
M15
G01X12.9516Y4.8812
M16
G05
G00X13.0859Y4.549
M15
G01X13.1016Y4.549
M16
G05
G00X13.1859Y4.9813
M15
G01X13.2016Y4.9813
M16
G05
G00X2.1351Y4.2527
M15
G01X2.1508Y4.2527
M16
G05
G00X2.1859Y4.5062
M15
G01X2.2016Y4.5062
M16
G05
G00X2.3359Y4.174
M15
G01X2.3516Y4.174
M16
G05
G00X2.4359Y4.6063
M15
G01X2.4516Y4.6063
M16
G05
G00X3.6351Y5.0027
M15
G01X3.6508Y5.0027
M16
G05
G00X3.6859Y5.2562
M15
G01X3.7016Y5.2562
M16
G05
G00X3.8359Y4.924
M15
G01X3.8516Y4.924
M16
G05
G00X3.9359Y5.3563
M15
G01X3.9516Y5.3563
M16
G05
G00X12.8851Y3.8777
M15
G01X12.9008Y3.8777
M16
G05
G00X12.9359Y4.1312
M15
G01X12.9516Y4.1312
M16
G05
G00X13.0859Y3.799
M15
G01X13.1016Y3.799
M16
G05
G00X13.1859Y4.2313
M15
G01X13.2016Y4.2313
M16
G05
G00X9.8851Y4.2527
M15
G01X9.9008Y4.2527
M16
G05
G00X9.9359Y4.5062
M15
G01X9.9516Y4.5062
M16
G05
G00X10.0859Y4.174
M15
G01X10.1016Y4.174
M16
G05
G00X10.1859Y4.6063
M15
G01X10.2016Y4.6063
M16
G05
G00X3.6351Y4.2527
M15
G01X3.6508Y4.2527
M16
G05
G00X3.6859Y4.5062
M15
G01X3.7016Y4.5062
M16
G05
G00X3.8359Y4.174
M15
G01X3.8516Y4.174
M16
G05
G00X3.9359Y4.6063
M15
G01X3.9516Y4.6063
M16
G05
G00X12.8851Y3.1277
M15
G01X12.9008Y3.1277
M16
G05
G00X12.9359Y3.3813
M15
G01X12.9516Y3.3813
M16
G05
G00X13.0859Y3.049
M15
G01X13.1016Y3.049
M16
G05
G00X13.1859Y3.4812
M15
G01X13.2016Y3.4812
M16
G05
G00X12.2501Y1.8613
M15
G01X12.2344Y1.8613
M16
G05
G00X12.3501Y2.2936
M15
G01X12.3344Y2.2936
M16
G05
G00X12.5001Y1.9613
M15
G01X12.4844Y1.9613
M16
G05
G00X12.5509Y2.2148
M15
G01X12.5352Y2.2148
M16
G05
G00X9.8851Y5.0027
M15
G01X9.9008Y5.0027
M16
G05
G00X9.9359Y5.2562
M15
G01X9.9516Y5.2562
M16
G05
G00X10.0859Y4.924
M15
G01X10.1016Y4.924
M16
G05
G00X10.1859Y5.3563
M15
G01X10.2016Y5.3563
M16
G05
G00X5.1782Y2.757
M15
G01X5.1861Y2.7707
M16
G05
G00X5.2166Y3.0235
M15
G01X5.2245Y3.0372
M16
G05
G00X5.3724Y2.5863
M15
G01X5.3803Y2.5999
M16
G05
G00X5.541Y2.7208
M15
G01X5.5489Y2.7344
M16
G05
G00X3.6075Y2.6649
M15
G01X3.623Y2.6623
M16
G05
G00X3.6994Y2.9065
M15
G01X3.7149Y2.9039
M16
G05
G00X3.7925Y2.5541
M15
G01X3.808Y2.5515
M16
G05
G00X3.9625Y2.9639
M15
G01X3.978Y2.9613
M16
G05
G00X2.8851Y5.2527
M15
G01X2.9008Y5.2527
M16
G05
G00X2.9359Y5.5062
M15
G01X2.9516Y5.5062
M16
G05
G00X3.0859Y5.174
M15
G01X3.1016Y5.174
M16
G05
G00X3.1859Y5.6063
M15
G01X3.2016Y5.6063
M16
G05
G00X10.6351Y4.5027
M15
G01X10.6508Y4.5027
M16
G05
G00X10.6859Y4.7562
M15
G01X10.7016Y4.7562
M16
G05
G00X10.8359Y4.424
M15
G01X10.8516Y4.424
M16
G05
G00X10.9359Y4.8563
M15
G01X10.9516Y4.8563
M16
G05
G00X12.1351Y3.1277
M15
G01X12.1508Y3.1277
M16
G05
G00X12.1859Y3.3813
M15
G01X12.2016Y3.3813
M16
G05
G00X12.3359Y3.049
M15
G01X12.3516Y3.049
M16
G05
G00X12.4359Y3.4812
M15
G01X12.4516Y3.4812
M16
G05
G00X1.3851Y4.6277
M15
G01X1.4008Y4.6277
M16
G05
G00X1.4359Y4.8812
M15
G01X1.4516Y4.8812
M16
G05
G00X1.5859Y4.549
M15
G01X1.6016Y4.549
M16
G05
G00X1.6859Y4.9813
M15
G01X1.7016Y4.9813
M16
G05
G00X10.659Y2.7231
M15
G01X10.6745Y2.7258
M16
G05
G00X10.6654Y2.9816
M15
G01X10.681Y2.9843
M16
G05
G00X10.8703Y2.68
M15
G01X10.8859Y2.6827
M16
G05
G00X10.8945Y3.123
M15
G01X10.91Y3.1258
M16
G05
G00X10.6351Y5.2527
M15
G01X10.6508Y5.2527
M16
G05
G00X10.6859Y5.5062
M15
G01X10.7016Y5.5062
M16
G05
G00X10.8359Y5.174
M15
G01X10.8516Y5.174
M16
G05
G00X10.9359Y5.6063
M15
G01X10.9516Y5.6063
M16
G05
G00X2.1351Y3.5027
M15
G01X2.1508Y3.5027
M16
G05
G00X2.1859Y3.7563
M15
G01X2.2016Y3.7563
M16
G05
G00X2.3359Y3.424
M15
G01X2.3516Y3.424
M16
G05
G00X2.4359Y3.8562
M15
G01X2.4516Y3.8562
M16
G05
G00X5.1115Y4.1016
M15
G01X5.1115Y4.0859
M16
G05
G00X5.1902Y4.3024
M15
G01X5.1902Y4.2867
M16
G05
G00X5.4437Y4.2516
M15
G01X5.4437Y4.2359
M16
G05
G00X5.5438Y4.0016
M15
G01X5.5438Y3.9859
M16
G05
G00X9.8851Y3.5027
M15
G01X9.9008Y3.5027
M16
G05
G00X9.9359Y3.7563
M15
G01X9.9516Y3.7563
M16
G05
G00X10.0859Y3.424
M15
G01X10.1016Y3.424
M16
G05
G00X10.1859Y3.8562
M15
G01X10.2016Y3.8562
M16
G05
G00X1.3851Y3.1277
M15
G01X1.4008Y3.1277
M16
G05
G00X1.4359Y3.3813
M15
G01X1.4516Y3.3813
M16
G05
G00X1.5859Y3.049
M15
G01X1.6016Y3.049
M16
G05
G00X1.6859Y3.4812
M15
G01X1.7016Y3.4812
M16
G05
G00X4.3851Y4.8777
M15
G01X4.4008Y4.8777
M16
G05
G00X4.4359Y5.1312
M15
G01X4.4516Y5.1312
M16
G05
G00X4.5859Y4.799
M15
G01X4.6016Y4.799
M16
G05
G00X4.6859Y5.2313
M15
G01X4.7016Y5.2313
M16
G05
G00X10.6351Y3.7527
M15
G01X10.6508Y3.7527
M16
G05
G00X10.6859Y4.0062
M15
G01X10.7016Y4.0062
M16
G05
G00X10.8359Y3.674
M15
G01X10.8516Y3.674
M16
G05
G00X10.9359Y4.1063
M15
G01X10.9516Y4.1063
M16
G05
G00X1.5095Y1.878
M15
G01X1.4937Y1.878
M16
G05
G00X1.6095Y2.3103
M15
G01X1.5938Y2.3103
M16
G05
G00X1.7595Y1.978
M15
G01X1.7437Y1.978
M16
G05
G00X1.8103Y2.2315
M15
G01X1.7945Y2.2315
M16
G05
G00X9.9146Y2.5941
M15
G01X9.9301Y2.5968
M16
G05
G00X9.921Y2.8526
M15
G01X9.9365Y2.8553
M16
G05
G00X10.1259Y2.5511
M15
G01X10.1414Y2.5538
M16
G05
G00X10.1501Y2.9941
M15
G01X10.1656Y2.9968
M16
G05
G00X2.8678Y2.7886
M15
G01X2.8833Y2.786
M16
G05
G00X2.9597Y3.0303
M15
G01X2.9752Y3.0277
M16
G05
G00X3.0528Y2.6778
M15
G01X3.0683Y2.6752
M16
G05
G00X3.2228Y3.0877
M15
G01X3.2383Y3.0851
M16
G05
G00X4.3851Y3.3777
M15
G01X4.4008Y3.3777
M16
G05
G00X4.4359Y3.6313
M15
G01X4.4516Y3.6313
M16
G05
G00X4.5859Y3.299
M15
G01X4.6016Y3.299
M16
G05
G00X4.6859Y3.7312
M15
G01X4.7016Y3.7312
M16
G05
G00X2.1351Y5.0027
M15
G01X2.1508Y5.0027
M16
G05
G00X2.1859Y5.2562
M15
G01X2.2016Y5.2562
M16
G05
G00X2.3359Y4.924
M15
G01X2.3516Y4.924
M16
G05
G00X2.4359Y5.3563
M15
G01X2.4516Y5.3563
M16
G05
G00X9.1351Y4.1277
M15
G01X9.1508Y4.1277
M16
G05
G00X9.1859Y4.3812
M15
G01X9.2016Y4.3812
M16
G05
G00X9.3359Y4.049
M15
G01X9.3516Y4.049
M16
G05
G00X9.4359Y4.4813
M15
G01X9.4516Y4.4813
M16
G05
G00X2.8851Y4.5027
M15
G01X2.9008Y4.5027
M16
G05
G00X2.9359Y4.7562
M15
G01X2.9516Y4.7562
M16
G05
G00X3.0859Y4.424
M15
G01X3.1016Y4.424
M16
G05
G00X3.1859Y4.8563
M15
G01X3.2016Y4.8563
M16
G05
G00X9.1351Y3.3777
M15
G01X9.1508Y3.3777
M16
G05
G00X9.1859Y3.6313
M15
G01X9.2016Y3.6313
M16
G05
G00X9.3359Y3.299
M15
G01X9.3516Y3.299
M16
G05
G00X9.4359Y3.7312
M15
G01X9.4516Y3.7312
M16
G05
G00X0.6351Y3.8777
M15
G01X0.6508Y3.8777
M16
G05
G00X0.6859Y4.1312
M15
G01X0.7016Y4.1312
M16
G05
G00X0.8359Y3.799
M15
G01X0.8516Y3.799
M16
G05
G00X0.9359Y4.2313
M15
G01X0.9516Y4.2313
M16
G05
G00X0.6351Y3.1277
M15
G01X0.6508Y3.1277
M16
G05
G00X0.6859Y3.3813
M15
G01X0.7016Y3.3813
M16
G05
G00X0.8359Y3.049
M15
G01X0.8516Y3.049
M16
G05
G00X0.9359Y3.4812
M15
G01X0.9516Y3.4812
M16
G05
G00X0.6351Y4.6277
M15
G01X0.6508Y4.6277
M16
G05
G00X0.6859Y4.8812
M15
G01X0.7016Y4.8812
M16
G05
G00X0.8359Y4.549
M15
G01X0.8516Y4.549
M16
G05
G00X0.9359Y4.9813
M15
G01X0.9516Y4.9813
M16
G05
G00X8.3937Y4.1859
M15
G01X8.3937Y4.2016
M16
G05
G00X8.4938Y3.9359
M15
G01X8.4938Y3.9516
M16
G05
G00X8.7473Y3.8851
M15
G01X8.7473Y3.9008
M16
G05
G00X8.826Y4.0859
M15
G01X8.826Y4.1016
M16
G05
G00X11.3851Y4.2527
M15
G01X11.4008Y4.2527
M16
G05
G00X11.4359Y4.5062
M15
G01X11.4516Y4.5062
M16
G05
G00X11.5859Y4.174
M15
G01X11.6016Y4.174
M16
G05
G00X11.6859Y4.6063
M15
G01X11.7016Y4.6063
M16
G05
T6
G00X13.0111Y5.4311
M15
G01X13.0111Y5.4114
M16
G05
G00X13.1764Y5.7657
M15
G01X13.1764Y5.7461
M16
G05
G00X13.1764Y5.6476
M15
G01X13.1764Y5.628
M16
G05
G00X13.1764Y5.4902
M15
G01X13.1764Y5.4705
M16
G05
G00X0.7611Y5.4311
M15
G01X0.7611Y5.4114
M16
G05
G00X0.9264Y5.7657
M15
G01X0.9264Y5.7461
M16
G05
G00X0.9264Y5.6476
M15
G01X0.9264Y5.628
M16
G05
G00X0.9264Y5.4902
M15
G01X0.9264Y5.4705
M16
G05
G00X5.9168Y4.2077
M15
G01X5.8971Y4.2077
M16
G05
G00X5.9759Y4.0423
M15
G01X5.9562Y4.0423
M16
G05
G00X6.1334Y4.0423
M15
G01X6.1137Y4.0423
M16
G05
G00X6.2515Y4.0423
M15
G01X6.2318Y4.0423
M16
G05
G00X11.7283Y2.2003
M15
G01X11.7283Y2.1806
M16
G05
G00X11.8937Y2.5349
M15
G01X11.8937Y2.5153
M16
G05
G00X11.8937Y2.4168
M15
G01X11.8937Y2.3971
M16
G05
G00X11.8937Y2.2594
M15
G01X11.8937Y2.2397
M16
G05
G00X2.0502Y2.217
M15
G01X2.0502Y2.1973
M16
G05
G00X2.2156Y2.5517
M15
G01X2.2156Y2.532
M16
G05
G00X2.2156Y2.4336
M15
G01X2.2156Y2.4139
M16
G05
G00X2.2156Y2.2761
M15
G01X2.2156Y2.2564
M16
G05
G00X7.6826Y4.2077
M15
G01X7.7023Y4.2077
M16
G05
G00X7.8007Y4.2077
M15
G01X7.8204Y4.2077
M16
G05
G00X7.9582Y4.2077
M15
G01X7.9779Y4.2077
M16
G05
G00X8.0172Y4.0423
M15
G01X8.0369Y4.0423
M16
G05
T9
G00X12.4968Y2.0869
M15
G01X12.4968Y2.0357
M16
G05
G00X12.9377Y2.0869
M15
G01X12.9377Y2.0357
M16
G05
G00X1.0062Y2.1036
M15
G01X1.0062Y2.0524
M16
G05
G00X1.4471Y2.1036
M15
G01X1.4471Y2.0524
M16
G05
G00X5.1233Y5.0057
M15
G01X5.1233Y5.0568
M16
G05
G00X5.5642Y5.0057
M15
G01X5.5642Y5.0568
M16
G05
G00X8.3733Y5.0057
M15
G01X8.3733Y5.0568
M16
G05
G00X8.8142Y5.0057
M15
G01X8.8142Y5.0568
M16
G05
T0
M30
