M48
; DRILL file {KiCad (5.1.5)-3} date 2/15/2021 2:55:10 AM
; FORMAT={-:-/ absolute / inch / decimal}
; #@! TF.CreationDate,2021-02-15T02:55:10-08:00
; #@! TF.GenerationSoftware,Kicad,Pcbnew,(5.1.5)-3
; #@! TF.FileFunction,NonPlated,1,2,NPTH
FMAT,2
INCH
T1C0.0155
T2C0.0315
T3C0.0472
T4C0.0669
T5C0.0689
T6C0.0748
T7C0.1570
T8C0.1575
%
G90
G05
T1
X8.2472Y1.8005
X5.77Y1.7686
X5.7463Y1.2289
X13.4646Y1.2285
X0.5039Y5.884
X0.565Y2.7598
X6.622Y5.886
X13.435Y5.886
X13.4626Y2.7695
X7.3701Y5.763
X13.3524Y1.364
X13.435Y1.364
X5.6937Y1.8005
X8.2727Y1.8112
X0.6201Y2.76
X2.0945Y2.76
X6.5394Y5.886
X8.2188Y1.2288
X11.815Y2.7715
X8.2463Y1.2289
X11.8169Y1.3642
X13.4075Y1.3642
X5.7192Y1.79
X8.1912Y1.2289
X11.7283Y1.2285
X13.4094Y1.2285
X2.0394Y2.76
X13.4075Y5.8858
X8.1636Y1.2289
X11.8701Y2.7717
X13.3524Y5.886
X13.3799Y1.364
X8.2218Y1.79
X5.7445Y1.7793
X2.0669Y2.7598
X13.437Y1.2283
X0.5374Y2.76
X11.8386Y1.2285
X2.122Y2.76
X8.2739Y1.2289
X7.3425Y5.7628
X11.8976Y2.7715
X11.872Y1.364
X8.1964Y1.7793
X13.3524Y2.7695
X5.6683Y1.8112
X11.811Y1.2285
X0.5315Y5.8839
X13.4921Y1.2285
X11.7835Y1.2283
X6.5669Y5.886
X11.7559Y1.2285
X0.4764Y5.884
X7.315Y5.763
X13.4626Y5.886
X11.8445Y1.364
X13.3799Y2.7695
X5.7188Y1.2288
X8.171Y1.7686
X5.7739Y1.2289
X0.5866Y5.884
X2.0118Y2.76
X7.3976Y5.763
X13.435Y2.7695
X6.5945Y5.8858
X13.4626Y1.364
X11.7618Y1.364
X5.6636Y1.2289
X13.4075Y2.7697
X5.6912Y1.2289
X13.3819Y1.2285
X0.5925Y2.76
X0.5098Y2.76
X0.5591Y5.884
X7.2874Y5.763
X13.3799Y5.886
X11.8425Y2.7715
X6.6496Y5.886
X11.7894Y1.364
X11.9252Y2.7715
T2
X5.1382Y4.8659
X8.3882Y4.8659
T3
X7.6216Y4.125
X7.8971Y4.125
X13.0938Y5.8268
X13.0938Y5.5512
X0.8438Y5.8268
X0.8438Y5.5512
X6.0369Y4.125
X6.3125Y4.125
X11.811Y2.596
X11.811Y2.3204
X2.1329Y2.6127
X2.1329Y2.3371
T4
X2.1437Y3.6562
X2.5437Y3.6562
X5.3438Y4.2938
X5.3438Y3.8937
X9.8937Y3.6562
X10.2937Y3.6562
X1.3938Y3.2812
X1.7937Y3.2812
X4.3937Y5.0312
X4.7938Y5.0312
X10.6437Y3.9062
X11.0437Y3.9062
X1.4016Y2.078
X1.8016Y2.078
X9.8967Y2.7469
X10.2908Y2.8156
X2.9016Y2.9387
X3.2962Y2.8726
X4.3937Y3.5312
X4.7938Y3.5312
X2.1437Y5.1562
X2.5437Y5.1562
X9.1437Y4.2812
X9.5437Y4.2812
X2.8937Y4.6562
X3.2937Y4.6562
X9.1437Y3.5312
X9.5437Y3.5312
X0.6437Y4.0312
X1.0437Y4.0312
X0.6437Y3.2812
X1.0437Y3.2812
X0.6437Y4.7812
X1.0437Y4.7812
X8.5938Y4.2938
X8.5938Y3.8937
X11.3937Y4.4062
X11.7937Y4.4062
X7.8437Y2.6415
X8.0437Y2.2951
X5.1272Y5.0312
X5.5603Y5.0312
X11.3937Y3.6562
X11.7937Y3.6562
X0.6516Y2.078
X1.0516Y2.078
X8.4938Y3.017
X8.6937Y2.6705
X2.8937Y3.9062
X3.2937Y3.9062
X1.3938Y4.0312
X1.7937Y4.0312
X12.1437Y4.7812
X12.5437Y4.7812
X11.3937Y5.1562
X11.7937Y5.1562
X5.8941Y2.2955
X6.0941Y2.642
X8.3772Y5.0312
X8.8103Y5.0312
X4.3937Y4.2812
X4.7938Y4.2812
X9.1437Y5.0312
X9.5437Y5.0312
X12.1437Y4.0312
X12.5437Y4.0312
X3.6437Y3.6562
X4.0438Y3.6562
X12.8923Y2.0613
X13.2923Y2.0613
X12.8937Y4.7812
X13.2937Y4.7812
X2.1437Y4.4062
X2.5437Y4.4062
X3.6437Y5.1562
X4.0438Y5.1562
X12.8937Y4.0312
X13.2937Y4.0312
X9.8937Y4.4062
X10.2937Y4.4062
X3.6437Y4.4062
X4.0438Y4.4062
X12.8937Y3.2812
X13.2937Y3.2812
X12.1423Y2.0613
X12.5423Y2.0613
X9.8937Y5.1562
X10.2937Y5.1562
X5.2437Y2.6705
X5.4437Y3.017
X3.6413Y2.8149
X4.0359Y2.7488
X2.8937Y5.4062
X3.2937Y5.4062
X10.6437Y4.6562
X11.0437Y4.6562
X12.1437Y3.2812
X12.5437Y3.2812
X1.3938Y4.7812
X1.7937Y4.7812
X10.6411Y2.8758
X11.0352Y2.9446
X10.6437Y5.4062
X11.0437Y5.4062
T5
X5.1437Y5.0312
X5.5438Y5.0312
X8.3937Y5.0312
X8.7937Y5.0312
T6
X9.1272Y4.2812
X9.5603Y4.2812
X2.8772Y4.6562
X3.3103Y4.6562
X9.1272Y3.5312
X9.5603Y3.5312
X0.6272Y4.0312
X1.0603Y4.0312
X0.6272Y3.2812
X1.0603Y3.2812
X0.6272Y4.7812
X1.0603Y4.7812
X8.5938Y4.3103
X8.5938Y3.8772
X11.3772Y4.4062
X11.8103Y4.4062
X7.8354Y2.6558
X8.0519Y2.2807
X11.3772Y3.6562
X11.8103Y3.6562
X0.6351Y2.078
X1.0682Y2.078
X8.4855Y3.0313
X8.702Y2.6562
X2.8772Y3.9062
X3.3103Y3.9062
X1.3772Y4.0312
X1.8103Y4.0312
X12.1272Y4.7812
X12.5603Y4.7812
X11.3772Y5.1562
X11.8103Y5.1562
X5.8858Y2.2812
X6.1024Y2.6563
X4.3772Y4.2812
X4.8103Y4.2812
X9.1272Y5.0312
X9.5603Y5.0312
X12.1272Y4.0312
X12.5603Y4.0312
X3.6272Y3.6562
X4.0603Y3.6562
X12.8757Y2.0613
X13.3088Y2.0613
X12.8772Y4.7812
X13.3103Y4.7812
X2.1272Y4.4062
X2.5603Y4.4062
X3.6272Y5.1562
X4.0603Y5.1562
X12.8772Y4.0312
X13.3103Y4.0312
X9.8772Y4.4062
X10.3103Y4.4062
X3.6272Y4.4062
X4.0603Y4.4062
X12.8772Y3.2812
X13.3103Y3.2812
X12.1257Y2.0613
X12.5588Y2.0613
X9.8772Y5.1562
X10.3103Y5.1562
X5.2355Y2.6562
X5.452Y3.0313
X3.625Y2.8176
X4.0522Y2.7461
X2.8772Y5.4062
X3.3103Y5.4062
X10.6272Y4.6562
X11.0603Y4.6562
X12.1272Y3.2812
X12.5603Y3.2812
X1.3772Y4.7812
X1.8103Y4.7812
X10.6249Y2.873
X11.0515Y2.9474
X10.6272Y5.4062
X11.0603Y5.4062
X2.1272Y3.6562
X2.5603Y3.6562
X5.3438Y4.3103
X5.3438Y3.8772
X9.8772Y3.6562
X10.3103Y3.6562
X1.3772Y3.2812
X1.8103Y3.2812
X4.3772Y5.0312
X4.8103Y5.0312
X10.6272Y3.9062
X11.0603Y3.9062
X1.3851Y2.078
X1.8182Y2.078
X9.8804Y2.744
X10.3071Y2.8185
X2.8853Y2.9414
X3.3125Y2.8699
X4.3772Y3.5312
X4.8103Y3.5312
X2.1272Y5.1562
X2.5603Y5.1562
T7
X5.3438Y5.0312
X8.5938Y5.0312
T8
X7.9437Y2.4683
X11.5938Y3.6562
X0.8516Y2.078
X8.5938Y2.8438
X3.0938Y3.9062
X1.5938Y4.0312
X12.3438Y4.7812
X11.5938Y5.1562
X5.9941Y2.4688
X4.5938Y4.2812
X9.3438Y5.0312
X12.3438Y4.0312
X3.8438Y3.6562
X13.0923Y2.0613
X13.0938Y4.7812
X2.3438Y4.4062
X3.8438Y5.1562
X13.0938Y4.0312
X10.0938Y4.4062
X3.8438Y4.4062
X13.0938Y3.2812
X12.3423Y2.0613
X10.0938Y5.1562
X5.3438Y2.8438
X3.8386Y2.7819
X3.0938Y5.4062
X10.8438Y4.6562
X12.3438Y3.2812
X1.5938Y4.7812
X10.8382Y2.9102
X10.8438Y5.4062
X2.3438Y3.6562
X5.3438Y4.0938
X10.0938Y3.6562
X1.5938Y3.2812
X4.5938Y5.0312
X10.8438Y3.9062
X1.6016Y2.078
X10.0938Y2.7812
X3.0989Y2.9056
X4.5938Y3.5312
X2.3438Y5.1562
X9.3438Y4.2812
X3.0938Y4.6562
X9.3438Y3.5312
X0.8438Y4.0312
X0.8438Y3.2812
X0.8438Y4.7812
X8.5938Y4.0938
X11.5938Y4.4062
T0
M30
