G04 #@! TF.GenerationSoftware,KiCad,Pcbnew,(5.1.5)-3*
G04 #@! TF.CreationDate,2021-02-15T02:55:08-08:00*
G04 #@! TF.ProjectId,split,73706c69-742e-46b6-9963-61645f706362,rev?*
G04 #@! TF.SameCoordinates,Original*
G04 #@! TF.FileFunction,Profile,NP*
%FSLAX46Y46*%
G04 Gerber Fmt 4.6, Leading zero omitted, Abs format (unit mm)*
G04 Created by KiCad (PCBNEW (5.1.5)-3) date 2021-02-15 02:55:08*
%MOMM*%
%LPD*%
G04 APERTURE LIST*
%ADD10C,0.050000*%
G04 APERTURE END LIST*
D10*
X184150000Y112712500D02*
G75*
G03X185737500Y111125000I1587500J0D01*
G01*
X169862500Y112712500D02*
G75*
G02X168275000Y111125000I-1587500J0D01*
G01*
X149225000Y146050000D02*
X142875000Y149225000D01*
X149225000Y146050000D02*
X165893750Y146050000D01*
X184150000Y146050000D02*
X184943750Y146050000D01*
X204787500Y146050000D02*
X188118750Y146050000D01*
X211137500Y149225000D02*
X204787500Y146050000D01*
X185737500Y111125000D02*
X188912500Y111125000D01*
X188912500Y111125000D02*
X192087500Y108743750D01*
X192087500Y101600000D02*
X205581250Y84931250D01*
X192087500Y108743750D02*
X192087500Y101600000D01*
X165100000Y111125000D02*
X161925000Y108743750D01*
X168275000Y111125000D02*
X165100000Y111125000D01*
X161925000Y108743750D02*
X161925000Y101600000D01*
X161925000Y101600000D02*
X148431250Y84931250D01*
X342900000Y149225000D02*
G75*
G02X345281250Y146843750I0J-2381250D01*
G01*
X345281250Y73818750D02*
G75*
G02X342106250Y70643750I-3175000J0D01*
G01*
X8731250Y146843750D02*
G75*
G02X11112500Y149225000I2381250J0D01*
G01*
X11906250Y70643750D02*
G75*
G02X8731250Y73818750I0J3175000D01*
G01*
X289718750Y65881250D02*
X296862500Y70643750D01*
X234156250Y56356250D02*
X289718750Y65881250D01*
X64293750Y65881250D02*
X57150000Y70643750D01*
X200025000Y42068750D02*
X207168750Y45050000D01*
X210343750Y30956250D02*
X210343750Y46400000D01*
X207168750Y30956250D02*
X207168750Y45050000D01*
X234156250Y56356250D02*
X210343750Y46400000D01*
X153987500Y42068750D02*
X146843750Y45050000D01*
X338931250Y151606250D02*
X338931250Y149225000D01*
X342106250Y149225000D02*
X342106250Y151606250D01*
X342900000Y149225000D02*
X342106250Y149225000D01*
X169068750Y151606250D02*
X184943750Y151606250D01*
X188118750Y146050000D02*
X188118750Y151606250D01*
X184943750Y146050000D02*
X184943750Y151606250D01*
X169068750Y146050000D02*
X169068750Y151606250D01*
X165893750Y146050000D02*
X165893750Y151606250D01*
X169862500Y146050000D02*
X169068750Y146050000D01*
X15081250Y151606250D02*
X15081250Y149225000D01*
X11906250Y149225000D02*
X11906250Y151606250D01*
X11112500Y149225000D02*
X11906250Y149225000D01*
X296862500Y70643750D02*
X300037500Y70643750D01*
X57150000Y70643750D02*
X53975000Y70643750D01*
X119856250Y56356250D02*
X64293750Y65881250D01*
X345281250Y73818750D02*
X345281250Y146843750D01*
X344450000Y65850000D02*
X344450000Y37275000D01*
X16000000Y68656250D02*
X51000000Y68656250D01*
X9725000Y37700000D02*
X9725000Y66275000D01*
X303000000Y70643750D02*
X339000000Y70643750D01*
X302000000Y34893750D02*
X339000000Y34893750D01*
X298412500Y34893750D02*
G75*
G02X296031250Y37275000I0J2381250D01*
G01*
X52000000Y35318750D02*
X16000000Y35320000D01*
X296031250Y67437500D02*
G75*
G02X296825000Y68231250I793750J0D01*
G01*
X51000000Y70643750D02*
X16000000Y70643750D01*
X58143750Y67862500D02*
X58143750Y37700000D01*
X296031250Y67437500D02*
X296031250Y37275000D01*
X339000000Y68231250D02*
X303000000Y68231250D01*
X15081250Y149225000D02*
X142875000Y149225000D01*
X184150000Y112712500D02*
X184150000Y146050000D01*
X8731250Y73818750D02*
X8731250Y146843750D01*
X169862500Y112712500D02*
X169862500Y146050000D01*
X338931250Y149225000D02*
X211137500Y149225000D01*
X6350000Y25400000D02*
X6350000Y30956250D01*
X350043750Y25400000D02*
X6350000Y25400000D01*
X12106250Y35318750D02*
X11906250Y30956250D01*
X188118750Y151606250D02*
X338931250Y151606250D01*
X350043750Y30956250D02*
X350043750Y25400000D01*
X165893750Y151606250D02*
X15081250Y151606250D01*
X339000000Y34893750D02*
X339725000Y30956250D01*
X302000000Y34893750D02*
X300831250Y30956250D01*
X297656250Y30956250D02*
X210343750Y30956250D01*
X339725000Y30956250D02*
X300831250Y30956250D01*
X339000000Y70643750D02*
X339000000Y68231250D01*
X342900000Y30956250D02*
X350043750Y30956250D01*
X342068750Y68231250D02*
X342106250Y70643750D01*
X148431250Y84931250D02*
X170656250Y72231250D01*
X11906250Y151606250D02*
X6350000Y151606250D01*
X300037500Y68230000D02*
X296825000Y68231250D01*
X344450000Y37275000D02*
G75*
G02X342068750Y34893750I-2381250J0D01*
G01*
X6350000Y151606250D02*
X6350000Y157162500D01*
X11906250Y70643750D02*
X12700000Y70643750D01*
X350043750Y157162500D02*
X350043750Y151606250D01*
X303000000Y70643750D02*
X303000000Y68231250D01*
X57350000Y68656250D02*
X53975000Y68650000D01*
X53975000Y70643750D02*
X53975000Y68650000D01*
X12106250Y68656250D02*
X12700000Y68660000D01*
X57350000Y68656250D02*
G75*
G02X58143750Y67862500I0J-793750D01*
G01*
X300037500Y70643750D02*
X300037500Y68230000D01*
X51000000Y70643750D02*
X51000000Y68656250D01*
X58143750Y37700000D02*
G75*
G02X55762500Y35318750I-2381250J0D01*
G01*
X16000000Y68656250D02*
X16000000Y70643750D01*
X12106250Y35318750D02*
G75*
G02X9725000Y37700000I0J2381250D01*
G01*
X6350000Y157162500D02*
X350043750Y157162500D01*
X342068750Y68231250D02*
G75*
G02X344450000Y65850000I0J-2381250D01*
G01*
X12700000Y70643750D02*
X12700000Y68660000D01*
X9725000Y66275000D02*
G75*
G02X12106250Y68656250I2381250J0D01*
G01*
X350043750Y151606250D02*
X342106250Y151606250D01*
X146843750Y30956250D02*
X146843750Y45050000D01*
X205581250Y84931250D02*
X183356250Y72231250D01*
X153987500Y42068750D02*
X170656250Y72231250D01*
X200025000Y42068750D02*
X183356250Y72231250D01*
X119856250Y56356250D02*
X143668750Y46400000D01*
X143668750Y30956250D02*
X143668750Y46400000D01*
X298412500Y34893750D02*
X297656250Y30956250D01*
X52387500Y30956250D02*
X52000000Y35318750D01*
X55762500Y35318750D02*
X56356250Y30956250D01*
X16793750Y30956250D02*
X16000000Y35320000D01*
X11906250Y30956250D02*
X6350000Y30956250D01*
X342068750Y34893750D02*
X342900000Y30956250D01*
X146843750Y30956250D02*
X207168750Y30956250D01*
X143668750Y30956250D02*
X56356250Y30956250D01*
X52387500Y30956250D02*
X16793750Y30956250D01*
M02*
