G04 #@! TF.GenerationSoftware,KiCad,Pcbnew,(5.1.5)-3*
G04 #@! TF.CreationDate,2021-02-15T02:55:08-08:00*
G04 #@! TF.ProjectId,split,73706c69-742e-46b6-9963-61645f706362,rev?*
G04 #@! TF.SameCoordinates,Original*
G04 #@! TF.FileFunction,Legend,Top*
G04 #@! TF.FilePolarity,Positive*
%FSLAX46Y46*%
G04 Gerber Fmt 4.6, Leading zero omitted, Abs format (unit mm)*
G04 Created by KiCad (PCBNEW (5.1.5)-3) date 2021-02-15 02:55:08*
%MOMM*%
%LPD*%
G04 APERTURE LIST*
%ADD10C,0.120000*%
%ADD11C,0.150000*%
%ADD12C,0.125000*%
G04 APERTURE END LIST*
D10*
X107156250Y80168750D02*
X108743750Y78581250D01*
D11*
X204956250Y111456250D02*
X203946250Y111456250D01*
X187156250Y111456250D02*
X188156250Y111456250D01*
X204956250Y112456250D02*
X204956250Y111456250D01*
X187156250Y112506250D02*
X187156250Y111456250D01*
X204956250Y144506250D02*
X204006250Y144506250D01*
X187156250Y144506250D02*
X188156250Y144506250D01*
X204956250Y144506250D02*
X204956250Y143506250D01*
X187156250Y144506250D02*
X187156250Y143506250D01*
X192306250Y147406250D02*
X192306250Y146106250D01*
X192306250Y146106250D02*
X199806250Y146106250D01*
X199806250Y146106250D02*
X199806250Y147406250D01*
X199806250Y147406250D02*
X192306250Y147406250D01*
X195556250Y147056250D02*
X196556250Y147056250D01*
X196556250Y147056250D02*
X196056250Y146406250D01*
X196056250Y146406250D02*
X195556250Y147056250D01*
X195706250Y146906250D02*
X196406250Y146906250D01*
X195806250Y146756250D02*
X196306250Y146756250D01*
X195906250Y146606250D02*
X196206250Y146606250D01*
D10*
X218281250Y127293750D02*
X218281250Y128293750D01*
X217781250Y127793750D02*
X218781250Y127793750D01*
X221781250Y133893750D02*
X224181250Y133893750D01*
X216981250Y133893750D02*
X219581250Y133893750D01*
X212381250Y133893750D02*
X214781250Y133893750D01*
X214181250Y120593750D02*
X214481250Y120293750D01*
X214181250Y119993750D02*
X214181250Y120593750D01*
X214481250Y120293750D02*
X214181250Y119993750D01*
X212381250Y121693750D02*
X224181250Y121693750D01*
X212381250Y125793750D02*
X212381250Y121693750D01*
X224181250Y125793750D02*
X224181250Y121693750D01*
X224181250Y133893750D02*
X224181250Y129793750D01*
X212381250Y129793750D02*
X212381250Y133893750D01*
X221281250Y127793750D02*
G75*
G03X221281250Y127793750I-3000000J0D01*
G01*
X204580725Y79718257D02*
X203660725Y81311743D01*
X203660725Y81311743D02*
X200820162Y79671743D01*
X200820162Y79671743D02*
X201740162Y78078257D01*
X201740162Y78078257D02*
X204580725Y79718257D01*
X205142635Y81105000D02*
X204120725Y80515000D01*
X200258252Y78285000D02*
X201280162Y78875000D01*
X204081894Y79430257D02*
X203161894Y81023743D01*
X203977971Y79370257D02*
X203057971Y80963743D01*
X204185817Y79490257D02*
X203265817Y81083743D01*
X217385817Y87090257D02*
X216465817Y88683743D01*
X217177971Y86970257D02*
X216257971Y88563743D01*
X217281894Y87030257D02*
X216361894Y88623743D01*
X213458252Y85885000D02*
X214480162Y86475000D01*
X218342635Y88705000D02*
X217320725Y88115000D01*
X214940162Y85678257D02*
X217780725Y87318257D01*
X214020162Y87271743D02*
X214940162Y85678257D01*
X216860725Y88911743D02*
X214020162Y87271743D01*
X217780725Y87318257D02*
X216860725Y88911743D01*
X265824871Y77873053D02*
X264002334Y77620155D01*
X265857858Y77635331D02*
X264035320Y77382433D01*
X265841364Y77754192D02*
X264018827Y77501294D01*
X265463930Y73780604D02*
X265301746Y74949405D01*
X264688743Y79367078D02*
X264850928Y78198276D01*
X266213014Y75075854D02*
X265762196Y78324725D01*
X264390477Y74822956D02*
X266213014Y75075854D01*
X263939659Y78071827D02*
X264390477Y74822956D01*
X265762196Y78324725D02*
X263939659Y78071827D01*
X284224871Y81073053D02*
X282402334Y80820155D01*
X284257858Y80835331D02*
X282435320Y80582433D01*
X284241364Y80954192D02*
X282418827Y80701294D01*
X283863930Y76980604D02*
X283701746Y78149405D01*
X283088743Y82567078D02*
X283250928Y81398276D01*
X284613014Y78275854D02*
X284162196Y81524725D01*
X282790477Y78022956D02*
X284613014Y78275854D01*
X282339659Y81271827D02*
X282790477Y78022956D01*
X284162196Y81524725D02*
X282339659Y81271827D01*
X245936250Y85969750D02*
X247776250Y85969750D01*
X245936250Y86209750D02*
X247776250Y86209750D01*
X245936250Y86089750D02*
X247776250Y86089750D01*
X246856250Y89973750D02*
X246856250Y88793750D01*
X246856250Y84333750D02*
X246856250Y85513750D01*
X245936250Y88793750D02*
X245936250Y85513750D01*
X247776250Y88793750D02*
X245936250Y88793750D01*
X247776250Y85513750D02*
X247776250Y88793750D01*
X245936250Y85513750D02*
X247776250Y85513750D01*
X264986250Y85969750D02*
X266826250Y85969750D01*
X264986250Y86209750D02*
X266826250Y86209750D01*
X264986250Y86089750D02*
X266826250Y86089750D01*
X265906250Y89973750D02*
X265906250Y88793750D01*
X265906250Y84333750D02*
X265906250Y85513750D01*
X264986250Y88793750D02*
X264986250Y85513750D01*
X266826250Y88793750D02*
X264986250Y88793750D01*
X266826250Y85513750D02*
X266826250Y88793750D01*
X264986250Y85513750D02*
X266826250Y85513750D01*
X284036250Y92319750D02*
X285876250Y92319750D01*
X284036250Y92559750D02*
X285876250Y92559750D01*
X284036250Y92439750D02*
X285876250Y92439750D01*
X284956250Y96323750D02*
X284956250Y95143750D01*
X284956250Y90683750D02*
X284956250Y91863750D01*
X284036250Y95143750D02*
X284036250Y91863750D01*
X285876250Y95143750D02*
X284036250Y95143750D01*
X285876250Y91863750D02*
X285876250Y95143750D01*
X284036250Y91863750D02*
X285876250Y91863750D01*
X303086250Y85969750D02*
X304926250Y85969750D01*
X303086250Y86209750D02*
X304926250Y86209750D01*
X303086250Y86089750D02*
X304926250Y86089750D01*
X304006250Y89973750D02*
X304006250Y88793750D01*
X304006250Y84333750D02*
X304006250Y85513750D01*
X303086250Y88793750D02*
X303086250Y85513750D01*
X304926250Y88793750D02*
X303086250Y88793750D01*
X304926250Y85513750D02*
X304926250Y88793750D01*
X303086250Y85513750D02*
X304926250Y85513750D01*
X322136250Y76444750D02*
X323976250Y76444750D01*
X322136250Y76684750D02*
X323976250Y76684750D01*
X322136250Y76564750D02*
X323976250Y76564750D01*
X323056250Y80448750D02*
X323056250Y79268750D01*
X323056250Y74808750D02*
X323056250Y75988750D01*
X322136250Y79268750D02*
X322136250Y75988750D01*
X323976250Y79268750D02*
X322136250Y79268750D01*
X323976250Y75988750D02*
X323976250Y79268750D01*
X322136250Y75988750D02*
X323976250Y75988750D01*
X341186250Y76444750D02*
X343026250Y76444750D01*
X341186250Y76684750D02*
X343026250Y76684750D01*
X341186250Y76564750D02*
X343026250Y76564750D01*
X342106250Y80448750D02*
X342106250Y79268750D01*
X342106250Y74808750D02*
X342106250Y75988750D01*
X341186250Y79268750D02*
X341186250Y75988750D01*
X343026250Y79268750D02*
X341186250Y79268750D01*
X343026250Y75988750D02*
X343026250Y79268750D01*
X341186250Y75988750D02*
X343026250Y75988750D01*
X226886250Y92319750D02*
X228726250Y92319750D01*
X226886250Y92559750D02*
X228726250Y92559750D01*
X226886250Y92439750D02*
X228726250Y92439750D01*
X227806250Y96323750D02*
X227806250Y95143750D01*
X227806250Y90683750D02*
X227806250Y91863750D01*
X226886250Y95143750D02*
X226886250Y91863750D01*
X228726250Y95143750D02*
X226886250Y95143750D01*
X228726250Y91863750D02*
X228726250Y95143750D01*
X226886250Y91863750D02*
X228726250Y91863750D01*
X245936250Y101844750D02*
X247776250Y101844750D01*
X245936250Y102084750D02*
X247776250Y102084750D01*
X245936250Y101964750D02*
X247776250Y101964750D01*
X246856250Y105848750D02*
X246856250Y104668750D01*
X246856250Y100208750D02*
X246856250Y101388750D01*
X245936250Y104668750D02*
X245936250Y101388750D01*
X247776250Y104668750D02*
X245936250Y104668750D01*
X247776250Y101388750D02*
X247776250Y104668750D01*
X245936250Y101388750D02*
X247776250Y101388750D01*
X264986250Y105019750D02*
X266826250Y105019750D01*
X264986250Y105259750D02*
X266826250Y105259750D01*
X264986250Y105139750D02*
X266826250Y105139750D01*
X265906250Y109023750D02*
X265906250Y107843750D01*
X265906250Y103383750D02*
X265906250Y104563750D01*
X264986250Y107843750D02*
X264986250Y104563750D01*
X266826250Y107843750D02*
X264986250Y107843750D01*
X266826250Y104563750D02*
X266826250Y107843750D01*
X264986250Y104563750D02*
X266826250Y104563750D01*
X284036250Y111369750D02*
X285876250Y111369750D01*
X284036250Y111609750D02*
X285876250Y111609750D01*
X284036250Y111489750D02*
X285876250Y111489750D01*
X284956250Y115373750D02*
X284956250Y114193750D01*
X284956250Y109733750D02*
X284956250Y110913750D01*
X284036250Y114193750D02*
X284036250Y110913750D01*
X285876250Y114193750D02*
X284036250Y114193750D01*
X285876250Y110913750D02*
X285876250Y114193750D01*
X284036250Y110913750D02*
X285876250Y110913750D01*
X303086250Y105019750D02*
X304926250Y105019750D01*
X303086250Y105259750D02*
X304926250Y105259750D01*
X303086250Y105139750D02*
X304926250Y105139750D01*
X304006250Y109023750D02*
X304006250Y107843750D01*
X304006250Y103383750D02*
X304006250Y104563750D01*
X303086250Y107843750D02*
X303086250Y104563750D01*
X304926250Y107843750D02*
X303086250Y107843750D01*
X304926250Y104563750D02*
X304926250Y107843750D01*
X303086250Y104563750D02*
X304926250Y104563750D01*
X322136250Y95494750D02*
X323976250Y95494750D01*
X322136250Y95734750D02*
X323976250Y95734750D01*
X322136250Y95614750D02*
X323976250Y95614750D01*
X323056250Y99498750D02*
X323056250Y98318750D01*
X323056250Y93858750D02*
X323056250Y95038750D01*
X322136250Y98318750D02*
X322136250Y95038750D01*
X323976250Y98318750D02*
X322136250Y98318750D01*
X323976250Y95038750D02*
X323976250Y98318750D01*
X322136250Y95038750D02*
X323976250Y95038750D01*
X341186250Y95494750D02*
X343026250Y95494750D01*
X341186250Y95734750D02*
X343026250Y95734750D01*
X341186250Y95614750D02*
X343026250Y95614750D01*
X342106250Y99498750D02*
X342106250Y98318750D01*
X342106250Y93858750D02*
X342106250Y95038750D01*
X341186250Y98318750D02*
X341186250Y95038750D01*
X343026250Y98318750D02*
X341186250Y98318750D01*
X343026250Y95038750D02*
X343026250Y98318750D01*
X341186250Y95038750D02*
X343026250Y95038750D01*
X226886250Y120894750D02*
X228726250Y120894750D01*
X226886250Y121134750D02*
X228726250Y121134750D01*
X226886250Y121014750D02*
X228726250Y121014750D01*
X227806250Y124898750D02*
X227806250Y123718750D01*
X227806250Y119258750D02*
X227806250Y120438750D01*
X226886250Y123718750D02*
X226886250Y120438750D01*
X228726250Y123718750D02*
X226886250Y123718750D01*
X228726250Y120438750D02*
X228726250Y123718750D01*
X226886250Y120438750D02*
X228726250Y120438750D01*
X245936250Y120894750D02*
X247776250Y120894750D01*
X245936250Y121134750D02*
X247776250Y121134750D01*
X245936250Y121014750D02*
X247776250Y121014750D01*
X246856250Y124898750D02*
X246856250Y123718750D01*
X246856250Y119258750D02*
X246856250Y120438750D01*
X245936250Y123718750D02*
X245936250Y120438750D01*
X247776250Y123718750D02*
X245936250Y123718750D01*
X247776250Y120438750D02*
X247776250Y123718750D01*
X245936250Y120438750D02*
X247776250Y120438750D01*
X264986250Y124069750D02*
X266826250Y124069750D01*
X264986250Y124309750D02*
X266826250Y124309750D01*
X264986250Y124189750D02*
X266826250Y124189750D01*
X265906250Y128073750D02*
X265906250Y126893750D01*
X265906250Y122433750D02*
X265906250Y123613750D01*
X264986250Y126893750D02*
X264986250Y123613750D01*
X266826250Y126893750D02*
X264986250Y126893750D01*
X266826250Y123613750D02*
X266826250Y126893750D01*
X264986250Y123613750D02*
X266826250Y123613750D01*
X284036250Y130419750D02*
X285876250Y130419750D01*
X284036250Y130659750D02*
X285876250Y130659750D01*
X284036250Y130539750D02*
X285876250Y130539750D01*
X284956250Y134423750D02*
X284956250Y133243750D01*
X284956250Y128783750D02*
X284956250Y129963750D01*
X284036250Y133243750D02*
X284036250Y129963750D01*
X285876250Y133243750D02*
X284036250Y133243750D01*
X285876250Y129963750D02*
X285876250Y133243750D01*
X284036250Y129963750D02*
X285876250Y129963750D01*
X303086250Y124069750D02*
X304926250Y124069750D01*
X303086250Y124309750D02*
X304926250Y124309750D01*
X303086250Y124189750D02*
X304926250Y124189750D01*
X304006250Y128073750D02*
X304006250Y126893750D01*
X304006250Y122433750D02*
X304006250Y123613750D01*
X303086250Y126893750D02*
X303086250Y123613750D01*
X304926250Y126893750D02*
X303086250Y126893750D01*
X304926250Y123613750D02*
X304926250Y126893750D01*
X303086250Y123613750D02*
X304926250Y123613750D01*
X322136250Y114544750D02*
X323976250Y114544750D01*
X322136250Y114784750D02*
X323976250Y114784750D01*
X322136250Y114664750D02*
X323976250Y114664750D01*
X323056250Y118548750D02*
X323056250Y117368750D01*
X323056250Y112908750D02*
X323056250Y114088750D01*
X322136250Y117368750D02*
X322136250Y114088750D01*
X323976250Y117368750D02*
X322136250Y117368750D01*
X323976250Y114088750D02*
X323976250Y117368750D01*
X322136250Y114088750D02*
X323976250Y114088750D01*
X341186250Y114544750D02*
X343026250Y114544750D01*
X341186250Y114784750D02*
X343026250Y114784750D01*
X341186250Y114664750D02*
X343026250Y114664750D01*
X342106250Y118548750D02*
X342106250Y117368750D01*
X342106250Y112908750D02*
X342106250Y114088750D01*
X341186250Y117368750D02*
X341186250Y114088750D01*
X343026250Y117368750D02*
X341186250Y117368750D01*
X343026250Y114088750D02*
X343026250Y117368750D01*
X341186250Y114088750D02*
X343026250Y114088750D01*
X135731250Y127293750D02*
X135731250Y128293750D01*
X135231250Y127793750D02*
X136231250Y127793750D01*
X139231250Y133893750D02*
X141631250Y133893750D01*
X134431250Y133893750D02*
X137031250Y133893750D01*
X129831250Y133893750D02*
X132231250Y133893750D01*
X131631250Y120593750D02*
X131931250Y120293750D01*
X131631250Y119993750D02*
X131631250Y120593750D01*
X131931250Y120293750D02*
X131631250Y119993750D01*
X129831250Y121693750D02*
X141631250Y121693750D01*
X129831250Y125793750D02*
X129831250Y121693750D01*
X141631250Y125793750D02*
X141631250Y121693750D01*
X141631250Y133893750D02*
X141631250Y129793750D01*
X129831250Y129793750D02*
X129831250Y133893750D01*
X138731250Y127793750D02*
G75*
G03X138731250Y127793750I-3000000J0D01*
G01*
X149577933Y48696243D02*
X148657933Y47102757D01*
X149785779Y48576243D02*
X148865779Y46982757D01*
X149681856Y48636243D02*
X148761856Y47042757D01*
X152585498Y45897500D02*
X151563588Y46487500D01*
X147701115Y48717500D02*
X148723025Y48127500D01*
X152023588Y47284243D02*
X149183025Y48924243D01*
X151103588Y45690757D02*
X152023588Y47284243D01*
X148263025Y47330757D02*
X151103588Y45690757D01*
X149183025Y48924243D02*
X148263025Y47330757D01*
X105018411Y63052527D02*
X106840948Y62799629D01*
X105051397Y63290249D02*
X106873935Y63037351D01*
X105034904Y63171388D02*
X106857441Y62918490D01*
X106480007Y66892078D02*
X106317823Y65723277D01*
X105704820Y61305604D02*
X105867005Y62474406D01*
X105406554Y65849726D02*
X104955736Y62600855D01*
X107229091Y65596828D02*
X105406554Y65849726D01*
X106778273Y62347957D02*
X107229091Y65596828D01*
X104955736Y62600855D02*
X106778273Y62347957D01*
X85968411Y66227527D02*
X87790948Y65974629D01*
X86001397Y66465249D02*
X87823935Y66212351D01*
X85984904Y66346388D02*
X87807441Y66093490D01*
X87430007Y70067078D02*
X87267823Y68898277D01*
X86654820Y64480604D02*
X86817005Y65649406D01*
X86356554Y69024726D02*
X85905736Y65775855D01*
X88179091Y68771828D02*
X86356554Y69024726D01*
X87728273Y65522957D02*
X88179091Y68771828D01*
X85905736Y65775855D02*
X87728273Y65522957D01*
X317720000Y37532500D02*
X317720000Y38862500D01*
X319050000Y37532500D02*
X317720000Y37532500D01*
X320320000Y37532500D02*
X320320000Y40192500D01*
X320320000Y40192500D02*
X328000000Y40192500D01*
X320320000Y37532500D02*
X328000000Y37532500D01*
X328000000Y37532500D02*
X328000000Y40192500D01*
X34156250Y52781250D02*
G75*
G03X34156250Y52781250I-3000000J0D01*
G01*
X37056250Y50781250D02*
X37056250Y46681250D01*
X25256250Y46681250D02*
X25256250Y50781250D01*
X25256250Y54781250D02*
X25256250Y58881250D01*
X37056250Y54781250D02*
X37056250Y58881250D01*
X37056250Y58881250D02*
X25256250Y58881250D01*
X34956250Y60281250D02*
X35256250Y60581250D01*
X35256250Y60581250D02*
X35256250Y59981250D01*
X35256250Y59981250D02*
X34956250Y60281250D01*
X37056250Y46681250D02*
X34656250Y46681250D01*
X32456250Y46681250D02*
X29856250Y46681250D01*
X27656250Y46681250D02*
X25256250Y46681250D01*
X31656250Y52781250D02*
X30656250Y52781250D01*
X31156250Y53281250D02*
X31156250Y52281250D01*
X326018750Y52356250D02*
G75*
G03X326018750Y52356250I-3000000J0D01*
G01*
X328918750Y50356250D02*
X328918750Y46256250D01*
X317118750Y46256250D02*
X317118750Y50356250D01*
X317118750Y54356250D02*
X317118750Y58456250D01*
X328918750Y54356250D02*
X328918750Y58456250D01*
X328918750Y58456250D02*
X317118750Y58456250D01*
X326818750Y59856250D02*
X327118750Y60156250D01*
X327118750Y60156250D02*
X327118750Y59556250D01*
X327118750Y59556250D02*
X326818750Y59856250D01*
X328918750Y46256250D02*
X326518750Y46256250D01*
X324318750Y46256250D02*
X321718750Y46256250D01*
X319518750Y46256250D02*
X317118750Y46256250D01*
X323518750Y52356250D02*
X322518750Y52356250D01*
X323018750Y52856250D02*
X323018750Y51856250D01*
X30036250Y114544750D02*
X31876250Y114544750D01*
X30036250Y114784750D02*
X31876250Y114784750D01*
X30036250Y114664750D02*
X31876250Y114664750D01*
X30956250Y118548750D02*
X30956250Y117368750D01*
X30956250Y112908750D02*
X30956250Y114088750D01*
X30036250Y117368750D02*
X30036250Y114088750D01*
X31876250Y117368750D02*
X30036250Y117368750D01*
X31876250Y114088750D02*
X31876250Y117368750D01*
X30036250Y114088750D02*
X31876250Y114088750D01*
D11*
X51275000Y67712500D02*
X57075000Y67712500D01*
X57075000Y67712500D02*
X57075000Y55962500D01*
X57075000Y55962500D02*
X51275000Y55962500D01*
X51275000Y55962500D02*
X51275000Y67712500D01*
D10*
X26073400Y37944800D02*
X26073400Y39274800D01*
X27403400Y37944800D02*
X26073400Y37944800D01*
X28673400Y37944800D02*
X28673400Y40604800D01*
X28673400Y40604800D02*
X36353400Y40604800D01*
X28673400Y37944800D02*
X36353400Y37944800D01*
X36353400Y37944800D02*
X36353400Y40604800D01*
D11*
X297100000Y67287500D02*
X302900000Y67287500D01*
X302900000Y67287500D02*
X302900000Y55537500D01*
X302900000Y55537500D02*
X297100000Y55537500D01*
X297100000Y55537500D02*
X297100000Y67287500D01*
D10*
X125286250Y82794750D02*
X127126250Y82794750D01*
X125286250Y83034750D02*
X127126250Y83034750D01*
X125286250Y82914750D02*
X127126250Y82914750D01*
X126206250Y86798750D02*
X126206250Y85618750D01*
X126206250Y81158750D02*
X126206250Y82338750D01*
X125286250Y85618750D02*
X125286250Y82338750D01*
X127126250Y85618750D02*
X125286250Y85618750D01*
X127126250Y82338750D02*
X127126250Y85618750D01*
X125286250Y82338750D02*
X127126250Y82338750D01*
D11*
X192237500Y101875000D02*
X192237500Y107675000D01*
X192237500Y107675000D02*
X203987500Y107675000D01*
X203987500Y107675000D02*
X203987500Y101875000D01*
X203987500Y101875000D02*
X192237500Y101875000D01*
D10*
X125286250Y101844750D02*
X127126250Y101844750D01*
X125286250Y102084750D02*
X127126250Y102084750D01*
X125286250Y101964750D02*
X127126250Y101964750D01*
X126206250Y105848750D02*
X126206250Y104668750D01*
X126206250Y100208750D02*
X126206250Y101388750D01*
X125286250Y104668750D02*
X125286250Y101388750D01*
X127126250Y104668750D02*
X125286250Y104668750D01*
X127126250Y101388750D02*
X127126250Y104668750D01*
X125286250Y101388750D02*
X127126250Y101388750D01*
X87186250Y92319750D02*
X89026250Y92319750D01*
X87186250Y92559750D02*
X89026250Y92559750D01*
X87186250Y92439750D02*
X89026250Y92439750D01*
X88106250Y96323750D02*
X88106250Y95143750D01*
X88106250Y90683750D02*
X88106250Y91863750D01*
X87186250Y95143750D02*
X87186250Y91863750D01*
X89026250Y95143750D02*
X87186250Y95143750D01*
X89026250Y91863750D02*
X89026250Y95143750D01*
X87186250Y91863750D02*
X89026250Y91863750D01*
X68136250Y85969750D02*
X69976250Y85969750D01*
X68136250Y86209750D02*
X69976250Y86209750D01*
X68136250Y86089750D02*
X69976250Y86089750D01*
X69056250Y89973750D02*
X69056250Y88793750D01*
X69056250Y84333750D02*
X69056250Y85513750D01*
X68136250Y88793750D02*
X68136250Y85513750D01*
X69976250Y88793750D02*
X68136250Y88793750D01*
X69976250Y85513750D02*
X69976250Y88793750D01*
X68136250Y85513750D02*
X69976250Y85513750D01*
X68136250Y105019750D02*
X69976250Y105019750D01*
X68136250Y105259750D02*
X69976250Y105259750D01*
X68136250Y105139750D02*
X69976250Y105139750D01*
X69056250Y109023750D02*
X69056250Y107843750D01*
X69056250Y103383750D02*
X69056250Y104563750D01*
X68136250Y107843750D02*
X68136250Y104563750D01*
X69976250Y107843750D02*
X68136250Y107843750D01*
X69976250Y104563750D02*
X69976250Y107843750D01*
X68136250Y104563750D02*
X69976250Y104563750D01*
D11*
X161687500Y107675000D02*
X161687500Y101875000D01*
X161687500Y101875000D02*
X149937500Y101875000D01*
X149937500Y101875000D02*
X149937500Y107675000D01*
X149937500Y107675000D02*
X161687500Y107675000D01*
D10*
X49086250Y76444750D02*
X50926250Y76444750D01*
X49086250Y76684750D02*
X50926250Y76684750D01*
X49086250Y76564750D02*
X50926250Y76564750D01*
X50006250Y80448750D02*
X50006250Y79268750D01*
X50006250Y74808750D02*
X50006250Y75988750D01*
X49086250Y79268750D02*
X49086250Y75988750D01*
X50926250Y79268750D02*
X49086250Y79268750D01*
X50926250Y75988750D02*
X50926250Y79268750D01*
X49086250Y75988750D02*
X50926250Y75988750D01*
X87186250Y111369750D02*
X89026250Y111369750D01*
X87186250Y111609750D02*
X89026250Y111609750D01*
X87186250Y111489750D02*
X89026250Y111489750D01*
X88106250Y115373750D02*
X88106250Y114193750D01*
X88106250Y109733750D02*
X88106250Y110913750D01*
X87186250Y114193750D02*
X87186250Y110913750D01*
X89026250Y114193750D02*
X87186250Y114193750D01*
X89026250Y110913750D02*
X89026250Y114193750D01*
X87186250Y110913750D02*
X89026250Y110913750D01*
X49086250Y95494750D02*
X50926250Y95494750D01*
X49086250Y95734750D02*
X50926250Y95734750D01*
X49086250Y95614750D02*
X50926250Y95614750D01*
X50006250Y99498750D02*
X50006250Y98318750D01*
X50006250Y93858750D02*
X50006250Y95038750D01*
X49086250Y98318750D02*
X49086250Y95038750D01*
X50926250Y98318750D02*
X49086250Y98318750D01*
X50926250Y95038750D02*
X50926250Y98318750D01*
X49086250Y95038750D02*
X50926250Y95038750D01*
X30036250Y76444750D02*
X31876250Y76444750D01*
X30036250Y76684750D02*
X31876250Y76684750D01*
X30036250Y76564750D02*
X31876250Y76564750D01*
X30956250Y80448750D02*
X30956250Y79268750D01*
X30956250Y74808750D02*
X30956250Y75988750D01*
X30036250Y79268750D02*
X30036250Y75988750D01*
X31876250Y79268750D02*
X30036250Y79268750D01*
X31876250Y75988750D02*
X31876250Y79268750D01*
X30036250Y75988750D02*
X31876250Y75988750D01*
D11*
X18531250Y137600000D02*
X18531250Y149350000D01*
X24331250Y137600000D02*
X18531250Y137600000D01*
X24331250Y149350000D02*
X24331250Y137600000D01*
X18531250Y149350000D02*
X24331250Y149350000D01*
D10*
X125454475Y60613257D02*
X126374475Y62206743D01*
X126374475Y62206743D02*
X123533912Y63846743D01*
X123533912Y63846743D02*
X122613912Y62253257D01*
X122613912Y62253257D02*
X125454475Y60613257D01*
X126936385Y60820000D02*
X125914475Y61410000D01*
X122052002Y63640000D02*
X123073912Y63050000D01*
X124955644Y60901257D02*
X125875644Y62494743D01*
X124851721Y60961257D02*
X125771721Y62554743D01*
X125059567Y60841257D02*
X125979567Y62434743D01*
D11*
X157806250Y146606250D02*
X158106250Y146606250D01*
X157706250Y146756250D02*
X158206250Y146756250D01*
X157606250Y146906250D02*
X158306250Y146906250D01*
X157956250Y146406250D02*
X157456250Y147056250D01*
X158456250Y147056250D02*
X157956250Y146406250D01*
X157456250Y147056250D02*
X158456250Y147056250D01*
X161706250Y147406250D02*
X154206250Y147406250D01*
X161706250Y146106250D02*
X161706250Y147406250D01*
X154206250Y146106250D02*
X161706250Y146106250D01*
X154206250Y147406250D02*
X154206250Y146106250D01*
X149056250Y144506250D02*
X149056250Y143506250D01*
X166856250Y144506250D02*
X166856250Y143506250D01*
X149056250Y144506250D02*
X150056250Y144506250D01*
X166856250Y144506250D02*
X165906250Y144506250D01*
X149056250Y112506250D02*
X149056250Y111456250D01*
X166856250Y112456250D02*
X166856250Y111456250D01*
X149056250Y111456250D02*
X150056250Y111456250D01*
X166856250Y111456250D02*
X165846250Y111456250D01*
X329681250Y137600000D02*
X329681250Y149350000D01*
X335481250Y137600000D02*
X329681250Y137600000D01*
X335481250Y149350000D02*
X335481250Y137600000D01*
X329681250Y149350000D02*
X335481250Y149350000D01*
D10*
X144336250Y92637250D02*
X146176250Y92637250D01*
X144336250Y92877250D02*
X146176250Y92877250D01*
X144336250Y92757250D02*
X146176250Y92757250D01*
X145256250Y96641250D02*
X145256250Y95461250D01*
X145256250Y91001250D02*
X145256250Y92181250D01*
X144336250Y95461250D02*
X144336250Y92181250D01*
X146176250Y95461250D02*
X144336250Y95461250D01*
X146176250Y92181250D02*
X146176250Y95461250D01*
X144336250Y92181250D02*
X146176250Y92181250D01*
X106236250Y85969750D02*
X108076250Y85969750D01*
X106236250Y86209750D02*
X108076250Y86209750D01*
X106236250Y86089750D02*
X108076250Y86089750D01*
X107156250Y89973750D02*
X107156250Y88793750D01*
X107156250Y84333750D02*
X107156250Y85513750D01*
X106236250Y88793750D02*
X106236250Y85513750D01*
X108076250Y88793750D02*
X106236250Y88793750D01*
X108076250Y85513750D02*
X108076250Y88793750D01*
X106236250Y85513750D02*
X108076250Y85513750D01*
X106236250Y105019750D02*
X108076250Y105019750D01*
X106236250Y105259750D02*
X108076250Y105259750D01*
X106236250Y105139750D02*
X108076250Y105139750D01*
X107156250Y109023750D02*
X107156250Y107843750D01*
X107156250Y103383750D02*
X107156250Y104563750D01*
X106236250Y107843750D02*
X106236250Y104563750D01*
X108076250Y107843750D02*
X106236250Y107843750D01*
X108076250Y104563750D02*
X108076250Y107843750D01*
X106236250Y104563750D02*
X108076250Y104563750D01*
X30036250Y95494750D02*
X31876250Y95494750D01*
X30036250Y95734750D02*
X31876250Y95734750D01*
X30036250Y95614750D02*
X31876250Y95614750D01*
X30956250Y99498750D02*
X30956250Y98318750D01*
X30956250Y93858750D02*
X30956250Y95038750D01*
X30036250Y98318750D02*
X30036250Y95038750D01*
X31876250Y98318750D02*
X30036250Y98318750D01*
X31876250Y95038750D02*
X31876250Y98318750D01*
X30036250Y95038750D02*
X31876250Y95038750D01*
X49086250Y115338500D02*
X50926250Y115338500D01*
X49086250Y115578500D02*
X50926250Y115578500D01*
X49086250Y115458500D02*
X50926250Y115458500D01*
X50006250Y119342500D02*
X50006250Y118162500D01*
X50006250Y113702500D02*
X50006250Y114882500D01*
X49086250Y118162500D02*
X49086250Y114882500D01*
X50926250Y118162500D02*
X49086250Y118162500D01*
X50926250Y114882500D02*
X50926250Y118162500D01*
X49086250Y114882500D02*
X50926250Y114882500D01*
X68136250Y124387250D02*
X69976250Y124387250D01*
X68136250Y124627250D02*
X69976250Y124627250D01*
X68136250Y124507250D02*
X69976250Y124507250D01*
X69056250Y128391250D02*
X69056250Y127211250D01*
X69056250Y122751250D02*
X69056250Y123931250D01*
X68136250Y127211250D02*
X68136250Y123931250D01*
X69976250Y127211250D02*
X68136250Y127211250D01*
X69976250Y123931250D02*
X69976250Y127211250D01*
X68136250Y123931250D02*
X69976250Y123931250D01*
X87186250Y130419750D02*
X89026250Y130419750D01*
X87186250Y130659750D02*
X89026250Y130659750D01*
X87186250Y130539750D02*
X89026250Y130539750D01*
X88106250Y134423750D02*
X88106250Y133243750D01*
X88106250Y128783750D02*
X88106250Y129963750D01*
X87186250Y133243750D02*
X87186250Y129963750D01*
X89026250Y133243750D02*
X87186250Y133243750D01*
X89026250Y129963750D02*
X89026250Y133243750D01*
X87186250Y129963750D02*
X89026250Y129963750D01*
X142748750Y121212250D02*
X144588750Y121212250D01*
X142748750Y121452250D02*
X144588750Y121452250D01*
X142748750Y121332250D02*
X144588750Y121332250D01*
X143668750Y125216250D02*
X143668750Y124036250D01*
X143668750Y119576250D02*
X143668750Y120756250D01*
X142748750Y124036250D02*
X142748750Y120756250D01*
X144588750Y124036250D02*
X142748750Y124036250D01*
X144588750Y120756250D02*
X144588750Y124036250D01*
X142748750Y120756250D02*
X144588750Y120756250D01*
X106236250Y124069750D02*
X108076250Y124069750D01*
X106236250Y124309750D02*
X108076250Y124309750D01*
X106236250Y124189750D02*
X108076250Y124189750D01*
X107156250Y128073750D02*
X107156250Y126893750D01*
X107156250Y122433750D02*
X107156250Y123613750D01*
X106236250Y126893750D02*
X106236250Y123613750D01*
X108076250Y126893750D02*
X106236250Y126893750D01*
X108076250Y123613750D02*
X108076250Y126893750D01*
X106236250Y123613750D02*
X108076250Y123613750D01*
X125286250Y120894750D02*
X127126250Y120894750D01*
X125286250Y121134750D02*
X127126250Y121134750D01*
X125286250Y121014750D02*
X127126250Y121014750D01*
X126206250Y124898750D02*
X126206250Y123718750D01*
X126206250Y119258750D02*
X126206250Y120438750D01*
X125286250Y123718750D02*
X125286250Y120438750D01*
X127126250Y123718750D02*
X125286250Y123718750D01*
X127126250Y120438750D02*
X127126250Y123718750D01*
X125286250Y120438750D02*
X127126250Y120438750D01*
D11*
D12*
X185398630Y140366964D02*
X185175297Y140724107D01*
X185015773Y140366964D02*
X185015773Y141116964D01*
X185271011Y141116964D01*
X185334821Y141081250D01*
X185366726Y141045535D01*
X185398630Y140974107D01*
X185398630Y140866964D01*
X185366726Y140795535D01*
X185334821Y140759821D01*
X185271011Y140724107D01*
X185015773Y140724107D01*
X185653869Y140581250D02*
X185972916Y140581250D01*
X185590059Y140366964D02*
X185813392Y141116964D01*
X186036726Y140366964D01*
X186196250Y141116964D02*
X186355773Y140366964D01*
X186483392Y140902678D01*
X186611011Y140366964D01*
X186770535Y141116964D01*
X185350773Y138531250D02*
X185286964Y138566964D01*
X185191250Y138566964D01*
X185095535Y138531250D01*
X185031726Y138459821D01*
X184999821Y138388392D01*
X184967916Y138245535D01*
X184967916Y138138392D01*
X184999821Y137995535D01*
X185031726Y137924107D01*
X185095535Y137852678D01*
X185191250Y137816964D01*
X185255059Y137816964D01*
X185350773Y137852678D01*
X185382678Y137888392D01*
X185382678Y138138392D01*
X185255059Y138138392D01*
X185669821Y137816964D02*
X185669821Y138566964D01*
X186052678Y137816964D01*
X186052678Y138566964D01*
X186371726Y137816964D02*
X186371726Y138566964D01*
X186531250Y138566964D01*
X186626964Y138531250D01*
X186690773Y138459821D01*
X186722678Y138388392D01*
X186754583Y138245535D01*
X186754583Y138138392D01*
X186722678Y137995535D01*
X186690773Y137924107D01*
X186626964Y137852678D01*
X186531250Y137816964D01*
X186371726Y137816964D01*
X185494345Y135266964D02*
X185271011Y135624107D01*
X185111488Y135266964D02*
X185111488Y136016964D01*
X185366726Y136016964D01*
X185430535Y135981250D01*
X185462440Y135945535D01*
X185494345Y135874107D01*
X185494345Y135766964D01*
X185462440Y135695535D01*
X185430535Y135659821D01*
X185366726Y135624107D01*
X185111488Y135624107D01*
X185749583Y135302678D02*
X185845297Y135266964D01*
X186004821Y135266964D01*
X186068630Y135302678D01*
X186100535Y135338392D01*
X186132440Y135409821D01*
X186132440Y135481250D01*
X186100535Y135552678D01*
X186068630Y135588392D01*
X186004821Y135624107D01*
X185877202Y135659821D01*
X185813392Y135695535D01*
X185781488Y135731250D01*
X185749583Y135802678D01*
X185749583Y135874107D01*
X185781488Y135945535D01*
X185813392Y135981250D01*
X185877202Y136016964D01*
X186036726Y136016964D01*
X186132440Y135981250D01*
X186323869Y136016964D02*
X186706726Y136016964D01*
X186515297Y135266964D02*
X186515297Y136016964D01*
X184967916Y133566964D02*
X185191250Y132816964D01*
X185414583Y133566964D01*
X186020773Y132888392D02*
X185988869Y132852678D01*
X185893154Y132816964D01*
X185829345Y132816964D01*
X185733630Y132852678D01*
X185669821Y132924107D01*
X185637916Y132995535D01*
X185606011Y133138392D01*
X185606011Y133245535D01*
X185637916Y133388392D01*
X185669821Y133459821D01*
X185733630Y133531250D01*
X185829345Y133566964D01*
X185893154Y133566964D01*
X185988869Y133531250D01*
X186020773Y133495535D01*
X186690773Y132888392D02*
X186658869Y132852678D01*
X186563154Y132816964D01*
X186499345Y132816964D01*
X186403630Y132852678D01*
X186339821Y132924107D01*
X186307916Y132995535D01*
X186276011Y133138392D01*
X186276011Y133245535D01*
X186307916Y133388392D01*
X186339821Y133459821D01*
X186403630Y133531250D01*
X186499345Y133566964D01*
X186563154Y133566964D01*
X186658869Y133531250D01*
X186690773Y133495535D01*
X183775535Y130331250D02*
X184094583Y130331250D01*
X183711726Y130116964D02*
X183935059Y130866964D01*
X184158392Y130116964D01*
X184317916Y130866964D02*
X184732678Y130866964D01*
X184509345Y130581250D01*
X184605059Y130581250D01*
X184668869Y130545535D01*
X184700773Y130509821D01*
X184732678Y130438392D01*
X184732678Y130259821D01*
X184700773Y130188392D01*
X184668869Y130152678D01*
X184605059Y130116964D01*
X184413630Y130116964D01*
X184349821Y130152678D01*
X184317916Y130188392D01*
X185498392Y130902678D02*
X184924107Y129938392D01*
X185945059Y130509821D02*
X185721726Y130509821D01*
X185721726Y130116964D02*
X185721726Y130866964D01*
X186040773Y130866964D01*
X186583154Y130616964D02*
X186583154Y130116964D01*
X186423630Y130902678D02*
X186264107Y130366964D01*
X186678869Y130366964D01*
X183775535Y127831250D02*
X184094583Y127831250D01*
X183711726Y127616964D02*
X183935059Y128366964D01*
X184158392Y127616964D01*
X184349821Y128295535D02*
X184381726Y128331250D01*
X184445535Y128366964D01*
X184605059Y128366964D01*
X184668869Y128331250D01*
X184700773Y128295535D01*
X184732678Y128224107D01*
X184732678Y128152678D01*
X184700773Y128045535D01*
X184317916Y127616964D01*
X184732678Y127616964D01*
X185498392Y128402678D02*
X184924107Y127438392D01*
X185945059Y128009821D02*
X185721726Y128009821D01*
X185721726Y127616964D02*
X185721726Y128366964D01*
X186040773Y128366964D01*
X186615059Y128366964D02*
X186296011Y128366964D01*
X186264107Y128009821D01*
X186296011Y128045535D01*
X186359821Y128081250D01*
X186519345Y128081250D01*
X186583154Y128045535D01*
X186615059Y128009821D01*
X186646964Y127938392D01*
X186646964Y127759821D01*
X186615059Y127688392D01*
X186583154Y127652678D01*
X186519345Y127616964D01*
X186359821Y127616964D01*
X186296011Y127652678D01*
X186264107Y127688392D01*
X183775535Y125331250D02*
X184094583Y125331250D01*
X183711726Y125116964D02*
X183935059Y125866964D01*
X184158392Y125116964D01*
X184732678Y125116964D02*
X184349821Y125116964D01*
X184541250Y125116964D02*
X184541250Y125866964D01*
X184477440Y125759821D01*
X184413630Y125688392D01*
X184349821Y125652678D01*
X185498392Y125902678D02*
X184924107Y124938392D01*
X185945059Y125509821D02*
X185721726Y125509821D01*
X185721726Y125116964D02*
X185721726Y125866964D01*
X186040773Y125866964D01*
X186583154Y125866964D02*
X186455535Y125866964D01*
X186391726Y125831250D01*
X186359821Y125795535D01*
X186296011Y125688392D01*
X186264107Y125545535D01*
X186264107Y125259821D01*
X186296011Y125188392D01*
X186327916Y125152678D01*
X186391726Y125116964D01*
X186519345Y125116964D01*
X186583154Y125152678D01*
X186615059Y125188392D01*
X186646964Y125259821D01*
X186646964Y125438392D01*
X186615059Y125509821D01*
X186583154Y125545535D01*
X186519345Y125581250D01*
X186391726Y125581250D01*
X186327916Y125545535D01*
X186296011Y125509821D01*
X186264107Y125438392D01*
X183775535Y122781250D02*
X184094583Y122781250D01*
X183711726Y122566964D02*
X183935059Y123316964D01*
X184158392Y122566964D01*
X184509345Y123316964D02*
X184573154Y123316964D01*
X184636964Y123281250D01*
X184668869Y123245535D01*
X184700773Y123174107D01*
X184732678Y123031250D01*
X184732678Y122852678D01*
X184700773Y122709821D01*
X184668869Y122638392D01*
X184636964Y122602678D01*
X184573154Y122566964D01*
X184509345Y122566964D01*
X184445535Y122602678D01*
X184413630Y122638392D01*
X184381726Y122709821D01*
X184349821Y122852678D01*
X184349821Y123031250D01*
X184381726Y123174107D01*
X184413630Y123245535D01*
X184445535Y123281250D01*
X184509345Y123316964D01*
X185498392Y123352678D02*
X184924107Y122388392D01*
X185945059Y122959821D02*
X185721726Y122959821D01*
X185721726Y122566964D02*
X185721726Y123316964D01*
X186040773Y123316964D01*
X186232202Y123316964D02*
X186678869Y123316964D01*
X186391726Y122566964D01*
X184078630Y120016964D02*
X183695773Y120016964D01*
X183887202Y120016964D02*
X183887202Y120766964D01*
X183823392Y120659821D01*
X183759583Y120588392D01*
X183695773Y120552678D01*
X184684821Y120766964D02*
X184365773Y120766964D01*
X184333869Y120409821D01*
X184365773Y120445535D01*
X184429583Y120481250D01*
X184589107Y120481250D01*
X184652916Y120445535D01*
X184684821Y120409821D01*
X184716726Y120338392D01*
X184716726Y120159821D01*
X184684821Y120088392D01*
X184652916Y120052678D01*
X184589107Y120016964D01*
X184429583Y120016964D01*
X184365773Y120052678D01*
X184333869Y120088392D01*
X185482440Y120802678D02*
X184908154Y119838392D01*
X185929107Y120409821D02*
X186024821Y120374107D01*
X186056726Y120338392D01*
X186088630Y120266964D01*
X186088630Y120159821D01*
X186056726Y120088392D01*
X186024821Y120052678D01*
X185961011Y120016964D01*
X185705773Y120016964D01*
X185705773Y120766964D01*
X185929107Y120766964D01*
X185992916Y120731250D01*
X186024821Y120695535D01*
X186056726Y120624107D01*
X186056726Y120552678D01*
X186024821Y120481250D01*
X185992916Y120445535D01*
X185929107Y120409821D01*
X185705773Y120409821D01*
X186726726Y120016964D02*
X186343869Y120016964D01*
X186535297Y120016964D02*
X186535297Y120766964D01*
X186471488Y120659821D01*
X186407678Y120588392D01*
X186343869Y120552678D01*
X184078630Y117466964D02*
X183695773Y117466964D01*
X183887202Y117466964D02*
X183887202Y118216964D01*
X183823392Y118109821D01*
X183759583Y118038392D01*
X183695773Y118002678D01*
X184652916Y117966964D02*
X184652916Y117466964D01*
X184493392Y118252678D02*
X184333869Y117716964D01*
X184748630Y117716964D01*
X185482440Y118252678D02*
X184908154Y117288392D01*
X185929107Y117859821D02*
X186024821Y117824107D01*
X186056726Y117788392D01*
X186088630Y117716964D01*
X186088630Y117609821D01*
X186056726Y117538392D01*
X186024821Y117502678D01*
X185961011Y117466964D01*
X185705773Y117466964D01*
X185705773Y118216964D01*
X185929107Y118216964D01*
X185992916Y118181250D01*
X186024821Y118145535D01*
X186056726Y118074107D01*
X186056726Y118002678D01*
X186024821Y117931250D01*
X185992916Y117895535D01*
X185929107Y117859821D01*
X185705773Y117859821D01*
X186311964Y118216964D02*
X186726726Y118216964D01*
X186503392Y117931250D01*
X186599107Y117931250D01*
X186662916Y117895535D01*
X186694821Y117859821D01*
X186726726Y117788392D01*
X186726726Y117609821D01*
X186694821Y117538392D01*
X186662916Y117502678D01*
X186599107Y117466964D01*
X186407678Y117466964D01*
X186343869Y117502678D01*
X186311964Y117538392D01*
X184078630Y112416964D02*
X183695773Y112416964D01*
X183887202Y112416964D02*
X183887202Y113166964D01*
X183823392Y113059821D01*
X183759583Y112988392D01*
X183695773Y112952678D01*
X184493392Y113166964D02*
X184557202Y113166964D01*
X184621011Y113131250D01*
X184652916Y113095535D01*
X184684821Y113024107D01*
X184716726Y112881250D01*
X184716726Y112702678D01*
X184684821Y112559821D01*
X184652916Y112488392D01*
X184621011Y112452678D01*
X184557202Y112416964D01*
X184493392Y112416964D01*
X184429583Y112452678D01*
X184397678Y112488392D01*
X184365773Y112559821D01*
X184333869Y112702678D01*
X184333869Y112881250D01*
X184365773Y113024107D01*
X184397678Y113095535D01*
X184429583Y113131250D01*
X184493392Y113166964D01*
X185482440Y113202678D02*
X184908154Y112238392D01*
X185929107Y112809821D02*
X186024821Y112774107D01*
X186056726Y112738392D01*
X186088630Y112666964D01*
X186088630Y112559821D01*
X186056726Y112488392D01*
X186024821Y112452678D01*
X185961011Y112416964D01*
X185705773Y112416964D01*
X185705773Y113166964D01*
X185929107Y113166964D01*
X185992916Y113131250D01*
X186024821Y113095535D01*
X186056726Y113024107D01*
X186056726Y112952678D01*
X186024821Y112881250D01*
X185992916Y112845535D01*
X185929107Y112809821D01*
X185705773Y112809821D01*
X186662916Y113166964D02*
X186535297Y113166964D01*
X186471488Y113131250D01*
X186439583Y113095535D01*
X186375773Y112988392D01*
X186343869Y112845535D01*
X186343869Y112559821D01*
X186375773Y112488392D01*
X186407678Y112452678D01*
X186471488Y112416964D01*
X186599107Y112416964D01*
X186662916Y112452678D01*
X186694821Y112488392D01*
X186726726Y112559821D01*
X186726726Y112738392D01*
X186694821Y112809821D01*
X186662916Y112845535D01*
X186599107Y112881250D01*
X186471488Y112881250D01*
X186407678Y112845535D01*
X186375773Y112809821D01*
X186343869Y112738392D01*
X184078630Y114916964D02*
X183695773Y114916964D01*
X183887202Y114916964D02*
X183887202Y115666964D01*
X183823392Y115559821D01*
X183759583Y115488392D01*
X183695773Y115452678D01*
X184652916Y115666964D02*
X184525297Y115666964D01*
X184461488Y115631250D01*
X184429583Y115595535D01*
X184365773Y115488392D01*
X184333869Y115345535D01*
X184333869Y115059821D01*
X184365773Y114988392D01*
X184397678Y114952678D01*
X184461488Y114916964D01*
X184589107Y114916964D01*
X184652916Y114952678D01*
X184684821Y114988392D01*
X184716726Y115059821D01*
X184716726Y115238392D01*
X184684821Y115309821D01*
X184652916Y115345535D01*
X184589107Y115381250D01*
X184461488Y115381250D01*
X184397678Y115345535D01*
X184365773Y115309821D01*
X184333869Y115238392D01*
X185482440Y115702678D02*
X184908154Y114738392D01*
X185929107Y115309821D02*
X186024821Y115274107D01*
X186056726Y115238392D01*
X186088630Y115166964D01*
X186088630Y115059821D01*
X186056726Y114988392D01*
X186024821Y114952678D01*
X185961011Y114916964D01*
X185705773Y114916964D01*
X185705773Y115666964D01*
X185929107Y115666964D01*
X185992916Y115631250D01*
X186024821Y115595535D01*
X186056726Y115524107D01*
X186056726Y115452678D01*
X186024821Y115381250D01*
X185992916Y115345535D01*
X185929107Y115309821D01*
X185705773Y115309821D01*
X186343869Y115595535D02*
X186375773Y115631250D01*
X186439583Y115666964D01*
X186599107Y115666964D01*
X186662916Y115631250D01*
X186694821Y115595535D01*
X186726726Y115524107D01*
X186726726Y115452678D01*
X186694821Y115345535D01*
X186311964Y114916964D01*
X186726726Y114916964D01*
X205528630Y117909821D02*
X205751964Y117909821D01*
X205847678Y117516964D02*
X205528630Y117516964D01*
X205528630Y118266964D01*
X205847678Y118266964D01*
X206421964Y118266964D02*
X206294345Y118266964D01*
X206230535Y118231250D01*
X206198630Y118195535D01*
X206134821Y118088392D01*
X206102916Y117945535D01*
X206102916Y117659821D01*
X206134821Y117588392D01*
X206166726Y117552678D01*
X206230535Y117516964D01*
X206358154Y117516964D01*
X206421964Y117552678D01*
X206453869Y117588392D01*
X206485773Y117659821D01*
X206485773Y117838392D01*
X206453869Y117909821D01*
X206421964Y117945535D01*
X206358154Y117981250D01*
X206230535Y117981250D01*
X206166726Y117945535D01*
X206134821Y117909821D01*
X206102916Y117838392D01*
X207251488Y118302678D02*
X206677202Y117338392D01*
X207411011Y118266964D02*
X207857678Y118266964D01*
X207570535Y117516964D01*
X205496726Y120066964D02*
X205496726Y120816964D01*
X205656250Y120816964D01*
X205751964Y120781250D01*
X205815773Y120709821D01*
X205847678Y120638392D01*
X205879583Y120495535D01*
X205879583Y120388392D01*
X205847678Y120245535D01*
X205815773Y120174107D01*
X205751964Y120102678D01*
X205656250Y120066964D01*
X205496726Y120066964D01*
X206102916Y120816964D02*
X206549583Y120816964D01*
X206262440Y120066964D01*
X207283392Y120852678D02*
X206709107Y119888392D01*
X207793869Y120816964D02*
X207666250Y120816964D01*
X207602440Y120781250D01*
X207570535Y120745535D01*
X207506726Y120638392D01*
X207474821Y120495535D01*
X207474821Y120209821D01*
X207506726Y120138392D01*
X207538630Y120102678D01*
X207602440Y120066964D01*
X207730059Y120066964D01*
X207793869Y120102678D01*
X207825773Y120138392D01*
X207857678Y120209821D01*
X207857678Y120388392D01*
X207825773Y120459821D01*
X207793869Y120495535D01*
X207730059Y120531250D01*
X207602440Y120531250D01*
X207538630Y120495535D01*
X207506726Y120459821D01*
X207474821Y120388392D01*
X205650773Y135881250D02*
X205586964Y135916964D01*
X205491250Y135916964D01*
X205395535Y135881250D01*
X205331726Y135809821D01*
X205299821Y135738392D01*
X205267916Y135595535D01*
X205267916Y135488392D01*
X205299821Y135345535D01*
X205331726Y135274107D01*
X205395535Y135202678D01*
X205491250Y135166964D01*
X205555059Y135166964D01*
X205650773Y135202678D01*
X205682678Y135238392D01*
X205682678Y135488392D01*
X205555059Y135488392D01*
X205969821Y135166964D02*
X205969821Y135916964D01*
X206352678Y135166964D01*
X206352678Y135916964D01*
X206671726Y135166964D02*
X206671726Y135916964D01*
X206831250Y135916964D01*
X206926964Y135881250D01*
X206990773Y135809821D01*
X207022678Y135738392D01*
X207054583Y135595535D01*
X207054583Y135488392D01*
X207022678Y135345535D01*
X206990773Y135274107D01*
X206926964Y135202678D01*
X206831250Y135166964D01*
X206671726Y135166964D01*
X205650773Y133431250D02*
X205586964Y133466964D01*
X205491250Y133466964D01*
X205395535Y133431250D01*
X205331726Y133359821D01*
X205299821Y133288392D01*
X205267916Y133145535D01*
X205267916Y133038392D01*
X205299821Y132895535D01*
X205331726Y132824107D01*
X205395535Y132752678D01*
X205491250Y132716964D01*
X205555059Y132716964D01*
X205650773Y132752678D01*
X205682678Y132788392D01*
X205682678Y133038392D01*
X205555059Y133038392D01*
X205969821Y132716964D02*
X205969821Y133466964D01*
X206352678Y132716964D01*
X206352678Y133466964D01*
X206671726Y132716964D02*
X206671726Y133466964D01*
X206831250Y133466964D01*
X206926964Y133431250D01*
X206990773Y133359821D01*
X207022678Y133288392D01*
X207054583Y133145535D01*
X207054583Y133038392D01*
X207022678Y132895535D01*
X206990773Y132824107D01*
X206926964Y132752678D01*
X206831250Y132716964D01*
X206671726Y132716964D01*
X205372440Y140316964D02*
X205372440Y141066964D01*
X205531964Y141066964D01*
X205627678Y141031250D01*
X205691488Y140959821D01*
X205723392Y140888392D01*
X205755297Y140745535D01*
X205755297Y140638392D01*
X205723392Y140495535D01*
X205691488Y140424107D01*
X205627678Y140352678D01*
X205531964Y140316964D01*
X205372440Y140316964D01*
X205978630Y141066964D02*
X206393392Y141066964D01*
X206170059Y140781250D01*
X206265773Y140781250D01*
X206329583Y140745535D01*
X206361488Y140709821D01*
X206393392Y140638392D01*
X206393392Y140459821D01*
X206361488Y140388392D01*
X206329583Y140352678D01*
X206265773Y140316964D01*
X206074345Y140316964D01*
X206010535Y140352678D01*
X205978630Y140388392D01*
X207159107Y141102678D02*
X206584821Y140138392D01*
X207286726Y141066964D02*
X207669583Y141066964D01*
X207478154Y140316964D02*
X207478154Y141066964D01*
X207829107Y141066964D02*
X208275773Y140316964D01*
X208275773Y141066964D02*
X207829107Y140316964D01*
X208658630Y141066964D02*
X208722440Y141066964D01*
X208786250Y141031250D01*
X208818154Y140995535D01*
X208850059Y140924107D01*
X208881964Y140781250D01*
X208881964Y140602678D01*
X208850059Y140459821D01*
X208818154Y140388392D01*
X208786250Y140352678D01*
X208722440Y140316964D01*
X208658630Y140316964D01*
X208594821Y140352678D01*
X208562916Y140388392D01*
X208531011Y140459821D01*
X208499107Y140602678D01*
X208499107Y140781250D01*
X208531011Y140924107D01*
X208562916Y140995535D01*
X208594821Y141031250D01*
X208658630Y141066964D01*
X205496726Y125166964D02*
X205496726Y125916964D01*
X205656250Y125916964D01*
X205751964Y125881250D01*
X205815773Y125809821D01*
X205847678Y125738392D01*
X205879583Y125595535D01*
X205879583Y125488392D01*
X205847678Y125345535D01*
X205815773Y125274107D01*
X205751964Y125202678D01*
X205656250Y125166964D01*
X205496726Y125166964D01*
X206453869Y125666964D02*
X206453869Y125166964D01*
X206294345Y125952678D02*
X206134821Y125416964D01*
X206549583Y125416964D01*
X207283392Y125952678D02*
X206709107Y124988392D01*
X207793869Y125666964D02*
X207793869Y125166964D01*
X207634345Y125952678D02*
X207474821Y125416964D01*
X207889583Y125416964D01*
X205322678Y130102678D02*
X205418392Y130066964D01*
X205577916Y130066964D01*
X205641726Y130102678D01*
X205673630Y130138392D01*
X205705535Y130209821D01*
X205705535Y130281250D01*
X205673630Y130352678D01*
X205641726Y130388392D01*
X205577916Y130424107D01*
X205450297Y130459821D01*
X205386488Y130495535D01*
X205354583Y130531250D01*
X205322678Y130602678D01*
X205322678Y130674107D01*
X205354583Y130745535D01*
X205386488Y130781250D01*
X205450297Y130816964D01*
X205609821Y130816964D01*
X205705535Y130781250D01*
X205992678Y130066964D02*
X205992678Y130816964D01*
X206152202Y130816964D01*
X206247916Y130781250D01*
X206311726Y130709821D01*
X206343630Y130638392D01*
X206375535Y130495535D01*
X206375535Y130388392D01*
X206343630Y130245535D01*
X206311726Y130174107D01*
X206247916Y130102678D01*
X206152202Y130066964D01*
X205992678Y130066964D01*
X206630773Y130281250D02*
X206949821Y130281250D01*
X206566964Y130066964D02*
X206790297Y130816964D01*
X207013630Y130066964D01*
X207715535Y130852678D02*
X207141250Y129888392D01*
X207938869Y130066964D02*
X207938869Y130816964D01*
X208098392Y130816964D01*
X208194107Y130781250D01*
X208257916Y130709821D01*
X208289821Y130638392D01*
X208321726Y130495535D01*
X208321726Y130388392D01*
X208289821Y130245535D01*
X208257916Y130174107D01*
X208194107Y130102678D01*
X208098392Y130066964D01*
X207938869Y130066964D01*
X208959821Y130066964D02*
X208576964Y130066964D01*
X208768392Y130066964D02*
X208768392Y130816964D01*
X208704583Y130709821D01*
X208640773Y130638392D01*
X208576964Y130602678D01*
X209725535Y130852678D02*
X209151250Y129888392D01*
X209916964Y130745535D02*
X209948869Y130781250D01*
X210012678Y130816964D01*
X210172202Y130816964D01*
X210236011Y130781250D01*
X210267916Y130745535D01*
X210299821Y130674107D01*
X210299821Y130602678D01*
X210267916Y130495535D01*
X209885059Y130066964D01*
X210299821Y130066964D01*
X205338630Y127602678D02*
X205434345Y127566964D01*
X205593869Y127566964D01*
X205657678Y127602678D01*
X205689583Y127638392D01*
X205721488Y127709821D01*
X205721488Y127781250D01*
X205689583Y127852678D01*
X205657678Y127888392D01*
X205593869Y127924107D01*
X205466250Y127959821D01*
X205402440Y127995535D01*
X205370535Y128031250D01*
X205338630Y128102678D01*
X205338630Y128174107D01*
X205370535Y128245535D01*
X205402440Y128281250D01*
X205466250Y128316964D01*
X205625773Y128316964D01*
X205721488Y128281250D01*
X206391488Y127638392D02*
X206359583Y127602678D01*
X206263869Y127566964D01*
X206200059Y127566964D01*
X206104345Y127602678D01*
X206040535Y127674107D01*
X206008630Y127745535D01*
X205976726Y127888392D01*
X205976726Y127995535D01*
X206008630Y128138392D01*
X206040535Y128209821D01*
X206104345Y128281250D01*
X206200059Y128316964D01*
X206263869Y128316964D01*
X206359583Y128281250D01*
X206391488Y128245535D01*
X206997678Y127566964D02*
X206678630Y127566964D01*
X206678630Y128316964D01*
X207699583Y128352678D02*
X207125297Y127388392D01*
X207922916Y127566964D02*
X207922916Y128316964D01*
X208082440Y128316964D01*
X208178154Y128281250D01*
X208241964Y128209821D01*
X208273869Y128138392D01*
X208305773Y127995535D01*
X208305773Y127888392D01*
X208273869Y127745535D01*
X208241964Y127674107D01*
X208178154Y127602678D01*
X208082440Y127566964D01*
X207922916Y127566964D01*
X208720535Y128316964D02*
X208784345Y128316964D01*
X208848154Y128281250D01*
X208880059Y128245535D01*
X208911964Y128174107D01*
X208943869Y128031250D01*
X208943869Y127852678D01*
X208911964Y127709821D01*
X208880059Y127638392D01*
X208848154Y127602678D01*
X208784345Y127566964D01*
X208720535Y127566964D01*
X208656726Y127602678D01*
X208624821Y127638392D01*
X208592916Y127709821D01*
X208561011Y127852678D01*
X208561011Y128031250D01*
X208592916Y128174107D01*
X208624821Y128245535D01*
X208656726Y128281250D01*
X208720535Y128316964D01*
X209709583Y128352678D02*
X209135297Y127388392D01*
X209869107Y128316964D02*
X210283869Y128316964D01*
X210060535Y128031250D01*
X210156250Y128031250D01*
X210220059Y127995535D01*
X210251964Y127959821D01*
X210283869Y127888392D01*
X210283869Y127709821D01*
X210251964Y127638392D01*
X210220059Y127602678D01*
X210156250Y127566964D01*
X209964821Y127566964D01*
X209901011Y127602678D01*
X209869107Y127638392D01*
X205879583Y122688392D02*
X205847678Y122652678D01*
X205751964Y122616964D01*
X205688154Y122616964D01*
X205592440Y122652678D01*
X205528630Y122724107D01*
X205496726Y122795535D01*
X205464821Y122938392D01*
X205464821Y123045535D01*
X205496726Y123188392D01*
X205528630Y123259821D01*
X205592440Y123331250D01*
X205688154Y123366964D01*
X205751964Y123366964D01*
X205847678Y123331250D01*
X205879583Y123295535D01*
X206453869Y123366964D02*
X206326250Y123366964D01*
X206262440Y123331250D01*
X206230535Y123295535D01*
X206166726Y123188392D01*
X206134821Y123045535D01*
X206134821Y122759821D01*
X206166726Y122688392D01*
X206198630Y122652678D01*
X206262440Y122616964D01*
X206390059Y122616964D01*
X206453869Y122652678D01*
X206485773Y122688392D01*
X206517678Y122759821D01*
X206517678Y122938392D01*
X206485773Y123009821D01*
X206453869Y123045535D01*
X206390059Y123081250D01*
X206262440Y123081250D01*
X206198630Y123045535D01*
X206166726Y123009821D01*
X206134821Y122938392D01*
X207283392Y123402678D02*
X206709107Y122438392D01*
X207825773Y123366964D02*
X207506726Y123366964D01*
X207474821Y123009821D01*
X207506726Y123045535D01*
X207570535Y123081250D01*
X207730059Y123081250D01*
X207793869Y123045535D01*
X207825773Y123009821D01*
X207857678Y122938392D01*
X207857678Y122759821D01*
X207825773Y122688392D01*
X207793869Y122652678D01*
X207730059Y122616964D01*
X207570535Y122616964D01*
X207506726Y122652678D01*
X207474821Y122688392D01*
X205720059Y112859821D02*
X205815773Y112824107D01*
X205847678Y112788392D01*
X205879583Y112716964D01*
X205879583Y112609821D01*
X205847678Y112538392D01*
X205815773Y112502678D01*
X205751964Y112466964D01*
X205496726Y112466964D01*
X205496726Y113216964D01*
X205720059Y113216964D01*
X205783869Y113181250D01*
X205815773Y113145535D01*
X205847678Y113074107D01*
X205847678Y113002678D01*
X205815773Y112931250D01*
X205783869Y112895535D01*
X205720059Y112859821D01*
X205496726Y112859821D01*
X206485773Y113216964D02*
X206166726Y113216964D01*
X206134821Y112859821D01*
X206166726Y112895535D01*
X206230535Y112931250D01*
X206390059Y112931250D01*
X206453869Y112895535D01*
X206485773Y112859821D01*
X206517678Y112788392D01*
X206517678Y112609821D01*
X206485773Y112538392D01*
X206453869Y112502678D01*
X206390059Y112466964D01*
X206230535Y112466964D01*
X206166726Y112502678D01*
X206134821Y112538392D01*
X207283392Y113252678D02*
X206709107Y112288392D01*
X207538630Y112466964D02*
X207666250Y112466964D01*
X207730059Y112502678D01*
X207761964Y112538392D01*
X207825773Y112645535D01*
X207857678Y112788392D01*
X207857678Y113074107D01*
X207825773Y113145535D01*
X207793869Y113181250D01*
X207730059Y113216964D01*
X207602440Y113216964D01*
X207538630Y113181250D01*
X207506726Y113145535D01*
X207474821Y113074107D01*
X207474821Y112895535D01*
X207506726Y112824107D01*
X207538630Y112788392D01*
X207602440Y112752678D01*
X207730059Y112752678D01*
X207793869Y112788392D01*
X207825773Y112824107D01*
X207857678Y112895535D01*
X205292678Y137766964D02*
X205292678Y138516964D01*
X205452202Y138516964D01*
X205547916Y138481250D01*
X205611726Y138409821D01*
X205643630Y138338392D01*
X205675535Y138195535D01*
X205675535Y138088392D01*
X205643630Y137945535D01*
X205611726Y137874107D01*
X205547916Y137802678D01*
X205452202Y137766964D01*
X205292678Y137766964D01*
X205930773Y138445535D02*
X205962678Y138481250D01*
X206026488Y138516964D01*
X206186011Y138516964D01*
X206249821Y138481250D01*
X206281726Y138445535D01*
X206313630Y138374107D01*
X206313630Y138302678D01*
X206281726Y138195535D01*
X205898869Y137766964D01*
X206313630Y137766964D01*
X207079345Y138552678D02*
X206505059Y137588392D01*
X207685535Y137766964D02*
X207462202Y138124107D01*
X207302678Y137766964D02*
X207302678Y138516964D01*
X207557916Y138516964D01*
X207621726Y138481250D01*
X207653630Y138445535D01*
X207685535Y138374107D01*
X207685535Y138266964D01*
X207653630Y138195535D01*
X207621726Y138159821D01*
X207557916Y138124107D01*
X207302678Y138124107D01*
X207908869Y138516964D02*
X208355535Y137766964D01*
X208355535Y138516964D02*
X207908869Y137766964D01*
X208961726Y137766964D02*
X208578869Y137766964D01*
X208770297Y137766964D02*
X208770297Y138516964D01*
X208706488Y138409821D01*
X208642678Y138338392D01*
X208578869Y138302678D01*
X205720059Y115359821D02*
X205815773Y115324107D01*
X205847678Y115288392D01*
X205879583Y115216964D01*
X205879583Y115109821D01*
X205847678Y115038392D01*
X205815773Y115002678D01*
X205751964Y114966964D01*
X205496726Y114966964D01*
X205496726Y115716964D01*
X205720059Y115716964D01*
X205783869Y115681250D01*
X205815773Y115645535D01*
X205847678Y115574107D01*
X205847678Y115502678D01*
X205815773Y115431250D01*
X205783869Y115395535D01*
X205720059Y115359821D01*
X205496726Y115359821D01*
X206453869Y115466964D02*
X206453869Y114966964D01*
X206294345Y115752678D02*
X206134821Y115216964D01*
X206549583Y115216964D01*
X207283392Y115752678D02*
X206709107Y114788392D01*
X207602440Y115395535D02*
X207538630Y115431250D01*
X207506726Y115466964D01*
X207474821Y115538392D01*
X207474821Y115574107D01*
X207506726Y115645535D01*
X207538630Y115681250D01*
X207602440Y115716964D01*
X207730059Y115716964D01*
X207793869Y115681250D01*
X207825773Y115645535D01*
X207857678Y115574107D01*
X207857678Y115538392D01*
X207825773Y115466964D01*
X207793869Y115431250D01*
X207730059Y115395535D01*
X207602440Y115395535D01*
X207538630Y115359821D01*
X207506726Y115324107D01*
X207474821Y115252678D01*
X207474821Y115109821D01*
X207506726Y115038392D01*
X207538630Y115002678D01*
X207602440Y114966964D01*
X207730059Y114966964D01*
X207793869Y115002678D01*
X207825773Y115038392D01*
X207857678Y115109821D01*
X207857678Y115252678D01*
X207825773Y115324107D01*
X207793869Y115359821D01*
X207730059Y115395535D01*
D10*
X193559821Y144816964D02*
X193559821Y145566964D01*
X193809821Y145031250D01*
X194059821Y145566964D01*
X194059821Y144816964D01*
X194416964Y144816964D02*
X194416964Y145316964D01*
X194416964Y145566964D02*
X194381250Y145531250D01*
X194416964Y145495535D01*
X194452678Y145531250D01*
X194416964Y145566964D01*
X194416964Y145495535D01*
X195095535Y144852678D02*
X195024107Y144816964D01*
X194881250Y144816964D01*
X194809821Y144852678D01*
X194774107Y144888392D01*
X194738392Y144959821D01*
X194738392Y145174107D01*
X194774107Y145245535D01*
X194809821Y145281250D01*
X194881250Y145316964D01*
X195024107Y145316964D01*
X195095535Y145281250D01*
X195416964Y144816964D02*
X195416964Y145316964D01*
X195416964Y145174107D02*
X195452678Y145245535D01*
X195488392Y145281250D01*
X195559821Y145316964D01*
X195631250Y145316964D01*
X195988392Y144816964D02*
X195916964Y144852678D01*
X195881250Y144888392D01*
X195845535Y144959821D01*
X195845535Y145174107D01*
X195881250Y145245535D01*
X195916964Y145281250D01*
X195988392Y145316964D01*
X196095535Y145316964D01*
X196166964Y145281250D01*
X196202678Y145245535D01*
X196238392Y145174107D01*
X196238392Y144959821D01*
X196202678Y144888392D01*
X196166964Y144852678D01*
X196095535Y144816964D01*
X195988392Y144816964D01*
X196559821Y145566964D02*
X196559821Y144959821D01*
X196595535Y144888392D01*
X196631250Y144852678D01*
X196702678Y144816964D01*
X196845535Y144816964D01*
X196916964Y144852678D01*
X196952678Y144888392D01*
X196988392Y144959821D01*
X196988392Y145566964D01*
X197309821Y144852678D02*
X197416964Y144816964D01*
X197595535Y144816964D01*
X197666964Y144852678D01*
X197702678Y144888392D01*
X197738392Y144959821D01*
X197738392Y145031250D01*
X197702678Y145102678D01*
X197666964Y145138392D01*
X197595535Y145174107D01*
X197452678Y145209821D01*
X197381250Y145245535D01*
X197345535Y145281250D01*
X197309821Y145352678D01*
X197309821Y145424107D01*
X197345535Y145495535D01*
X197381250Y145531250D01*
X197452678Y145566964D01*
X197631250Y145566964D01*
X197738392Y145531250D01*
X198309821Y145209821D02*
X198416964Y145174107D01*
X198452678Y145138392D01*
X198488392Y145066964D01*
X198488392Y144959821D01*
X198452678Y144888392D01*
X198416964Y144852678D01*
X198345535Y144816964D01*
X198059821Y144816964D01*
X198059821Y145566964D01*
X198309821Y145566964D01*
X198381250Y145531250D01*
X198416964Y145495535D01*
X198452678Y145424107D01*
X198452678Y145352678D01*
X198416964Y145281250D01*
X198381250Y145245535D01*
X198309821Y145209821D01*
X198059821Y145209821D01*
D11*
X211486011Y121760416D02*
X211533630Y121903273D01*
X211533630Y122141369D01*
X211486011Y122236607D01*
X211438392Y122284226D01*
X211343154Y122331845D01*
X211247916Y122331845D01*
X211152678Y122284226D01*
X211105059Y122236607D01*
X211057440Y122141369D01*
X211009821Y121950892D01*
X210962202Y121855654D01*
X210914583Y121808035D01*
X210819345Y121760416D01*
X210724107Y121760416D01*
X210628869Y121808035D01*
X210581250Y121855654D01*
X210533630Y121950892D01*
X210533630Y122188988D01*
X210581250Y122331845D01*
X210533630Y122665178D02*
X211533630Y122903273D01*
X210819345Y123093750D01*
X211533630Y123284226D01*
X210533630Y123522321D01*
X210628869Y123855654D02*
X210581250Y123903273D01*
X210533630Y123998511D01*
X210533630Y124236607D01*
X210581250Y124331845D01*
X210628869Y124379464D01*
X210724107Y124427083D01*
X210819345Y124427083D01*
X210962202Y124379464D01*
X211533630Y123808035D01*
X211533630Y124427083D01*
X216630297Y124222321D02*
X217392202Y124222321D01*
X217011250Y123841369D02*
X217011250Y124603273D01*
X219170297Y124222321D02*
X219932202Y124222321D01*
X202835031Y77033314D02*
X202335031Y77899340D01*
X202541227Y78018387D01*
X202688755Y78048577D01*
X202818852Y78013717D01*
X202907711Y77955048D01*
X203044188Y77813900D01*
X203115617Y77690182D01*
X203169615Y77501416D01*
X203175995Y77395127D01*
X203141136Y77265030D01*
X203041227Y77152362D01*
X202835031Y77033314D01*
X203738877Y78324950D02*
X204072210Y77747600D01*
X203342204Y78535817D02*
X203493150Y77798180D01*
X204029261Y78107704D01*
X204363846Y78575805D02*
X204257558Y78569425D01*
X204192509Y78586855D01*
X204103651Y78645524D01*
X204079841Y78686763D01*
X204073461Y78793052D01*
X204090891Y78858100D01*
X204149560Y78946959D01*
X204314517Y79042197D01*
X204420805Y79048577D01*
X204485854Y79031147D01*
X204574713Y78972478D01*
X204598522Y78931238D01*
X204604902Y78824950D01*
X204587472Y78759901D01*
X204528803Y78671043D01*
X204363846Y78575805D01*
X204305177Y78486947D01*
X204287747Y78421898D01*
X204294127Y78315610D01*
X204389365Y78150652D01*
X204478223Y78091983D01*
X204543272Y78074554D01*
X204649560Y78080933D01*
X204814517Y78176171D01*
X204873186Y78265030D01*
X204890616Y78330079D01*
X204884236Y78436367D01*
X204788998Y78601324D01*
X204700140Y78659993D01*
X204635091Y78677423D01*
X204528803Y78671043D01*
X206874374Y79561730D02*
X206374374Y80427755D01*
X207369245Y79847444D02*
X206712377Y80128030D01*
X206869245Y80713469D02*
X206660088Y79932883D01*
X216035031Y84633314D02*
X215535031Y85499340D01*
X215741227Y85618387D01*
X215888755Y85648577D01*
X216018852Y85613717D01*
X216107711Y85555048D01*
X216244188Y85413900D01*
X216315617Y85290182D01*
X216369615Y85101416D01*
X216375995Y84995127D01*
X216341136Y84865030D01*
X216241227Y84752362D01*
X216035031Y84633314D01*
X216938877Y85924950D02*
X217272210Y85347600D01*
X216542204Y86135817D02*
X216693150Y85398180D01*
X217229261Y85707704D01*
X217143364Y86427911D02*
X217720714Y86761244D01*
X217849560Y85680933D01*
X220074374Y87161730D02*
X219574374Y88027755D01*
X220569245Y87447444D02*
X219912377Y87728030D01*
X220069245Y88313469D02*
X219860088Y87532883D01*
X266363130Y77978318D02*
X267353639Y78115762D01*
X267386364Y77879927D01*
X267358832Y77731880D01*
X267277588Y77624456D01*
X267189799Y77564199D01*
X267007675Y77490852D01*
X266866174Y77471217D01*
X266670960Y77492204D01*
X266570081Y77526281D01*
X266462657Y77607526D01*
X266395855Y77742482D01*
X266363130Y77978318D01*
X267219819Y76654934D02*
X266559479Y76563304D01*
X267564431Y76943129D02*
X266824199Y77080790D01*
X266909284Y76467618D01*
X267680888Y75757406D02*
X267654708Y75946075D01*
X267594451Y76033864D01*
X267540739Y76074486D01*
X267386148Y76149186D01*
X267190934Y76170173D01*
X266813598Y76117813D01*
X266725808Y76057556D01*
X266685186Y76003844D01*
X266651109Y75902965D01*
X266677289Y75714296D01*
X266737546Y75626507D01*
X266791258Y75585885D01*
X266892137Y75551808D01*
X267127973Y75584532D01*
X267215762Y75644789D01*
X267256384Y75698502D01*
X267290461Y75799381D01*
X267264282Y75988049D01*
X267204024Y76075839D01*
X267150312Y76116461D01*
X267049433Y76150538D01*
X265801980Y80785451D02*
X266792489Y80922896D01*
X265880519Y80219446D02*
X266387620Y80722490D01*
X266871029Y80356890D02*
X266226484Y80844356D01*
X284763130Y81178318D02*
X285753639Y81315762D01*
X285786364Y81079927D01*
X285758832Y80931880D01*
X285677588Y80824456D01*
X285589799Y80764199D01*
X285407675Y80690852D01*
X285266174Y80671217D01*
X285070960Y80692204D01*
X284970081Y80726281D01*
X284862657Y80807526D01*
X284795855Y80942482D01*
X284763130Y81178318D01*
X285619819Y79854934D02*
X284959479Y79763304D01*
X285964431Y80143129D02*
X285224199Y80280790D01*
X285309284Y79667618D01*
X286087433Y78910239D02*
X286021984Y79381910D01*
X285543767Y79363628D01*
X285597479Y79323006D01*
X285657737Y79235216D01*
X285690461Y78999381D01*
X285656384Y78898502D01*
X285615762Y78844789D01*
X285527973Y78784532D01*
X285292137Y78751808D01*
X285191258Y78785885D01*
X285137546Y78826507D01*
X285077289Y78914296D01*
X285044564Y79150132D01*
X285078641Y79251011D01*
X285119263Y79304723D01*
X284201980Y83985451D02*
X285192489Y84122896D01*
X284280519Y83419446D02*
X284787620Y83922490D01*
X285271029Y83556890D02*
X284626484Y84044356D01*
X245388630Y85939464D02*
X244388630Y85939464D01*
X244388630Y86177559D01*
X244436250Y86320416D01*
X244531488Y86415654D01*
X244626726Y86463273D01*
X244817202Y86510892D01*
X244960059Y86510892D01*
X245150535Y86463273D01*
X245245773Y86415654D01*
X245341011Y86320416D01*
X245388630Y86177559D01*
X245388630Y85939464D01*
X244721964Y87368035D02*
X245388630Y87368035D01*
X244341011Y87129940D02*
X245055297Y86891845D01*
X245055297Y87510892D01*
X244388630Y88082321D02*
X244388630Y88177559D01*
X244436250Y88272797D01*
X244483869Y88320416D01*
X244579107Y88368035D01*
X244769583Y88415654D01*
X245007678Y88415654D01*
X245198154Y88368035D01*
X245293392Y88320416D01*
X245341011Y88272797D01*
X245388630Y88177559D01*
X245388630Y88082321D01*
X245341011Y87987083D01*
X245293392Y87939464D01*
X245198154Y87891845D01*
X245007678Y87844226D01*
X244769583Y87844226D01*
X244579107Y87891845D01*
X244483869Y87939464D01*
X244436250Y87987083D01*
X244388630Y88082321D01*
X245558630Y83081845D02*
X244558630Y83081845D01*
X245558630Y83653273D02*
X244987202Y83224702D01*
X244558630Y83653273D02*
X245130059Y83081845D01*
X264438630Y85939464D02*
X263438630Y85939464D01*
X263438630Y86177559D01*
X263486250Y86320416D01*
X263581488Y86415654D01*
X263676726Y86463273D01*
X263867202Y86510892D01*
X264010059Y86510892D01*
X264200535Y86463273D01*
X264295773Y86415654D01*
X264391011Y86320416D01*
X264438630Y86177559D01*
X264438630Y85939464D01*
X263438630Y86844226D02*
X263438630Y87463273D01*
X263819583Y87129940D01*
X263819583Y87272797D01*
X263867202Y87368035D01*
X263914821Y87415654D01*
X264010059Y87463273D01*
X264248154Y87463273D01*
X264343392Y87415654D01*
X264391011Y87368035D01*
X264438630Y87272797D01*
X264438630Y86987083D01*
X264391011Y86891845D01*
X264343392Y86844226D01*
X264438630Y87939464D02*
X264438630Y88129940D01*
X264391011Y88225178D01*
X264343392Y88272797D01*
X264200535Y88368035D01*
X264010059Y88415654D01*
X263629107Y88415654D01*
X263533869Y88368035D01*
X263486250Y88320416D01*
X263438630Y88225178D01*
X263438630Y88034702D01*
X263486250Y87939464D01*
X263533869Y87891845D01*
X263629107Y87844226D01*
X263867202Y87844226D01*
X263962440Y87891845D01*
X264010059Y87939464D01*
X264057678Y88034702D01*
X264057678Y88225178D01*
X264010059Y88320416D01*
X263962440Y88368035D01*
X263867202Y88415654D01*
X264608630Y83081845D02*
X263608630Y83081845D01*
X264608630Y83653273D02*
X264037202Y83224702D01*
X263608630Y83653273D02*
X264180059Y83081845D01*
X283488630Y92289464D02*
X282488630Y92289464D01*
X282488630Y92527559D01*
X282536250Y92670416D01*
X282631488Y92765654D01*
X282726726Y92813273D01*
X282917202Y92860892D01*
X283060059Y92860892D01*
X283250535Y92813273D01*
X283345773Y92765654D01*
X283441011Y92670416D01*
X283488630Y92527559D01*
X283488630Y92289464D01*
X282488630Y93194226D02*
X282488630Y93813273D01*
X282869583Y93479940D01*
X282869583Y93622797D01*
X282917202Y93718035D01*
X282964821Y93765654D01*
X283060059Y93813273D01*
X283298154Y93813273D01*
X283393392Y93765654D01*
X283441011Y93718035D01*
X283488630Y93622797D01*
X283488630Y93337083D01*
X283441011Y93241845D01*
X283393392Y93194226D01*
X282917202Y94384702D02*
X282869583Y94289464D01*
X282821964Y94241845D01*
X282726726Y94194226D01*
X282679107Y94194226D01*
X282583869Y94241845D01*
X282536250Y94289464D01*
X282488630Y94384702D01*
X282488630Y94575178D01*
X282536250Y94670416D01*
X282583869Y94718035D01*
X282679107Y94765654D01*
X282726726Y94765654D01*
X282821964Y94718035D01*
X282869583Y94670416D01*
X282917202Y94575178D01*
X282917202Y94384702D01*
X282964821Y94289464D01*
X283012440Y94241845D01*
X283107678Y94194226D01*
X283298154Y94194226D01*
X283393392Y94241845D01*
X283441011Y94289464D01*
X283488630Y94384702D01*
X283488630Y94575178D01*
X283441011Y94670416D01*
X283393392Y94718035D01*
X283298154Y94765654D01*
X283107678Y94765654D01*
X283012440Y94718035D01*
X282964821Y94670416D01*
X282917202Y94575178D01*
X283658630Y89431845D02*
X282658630Y89431845D01*
X283658630Y90003273D02*
X283087202Y89574702D01*
X282658630Y90003273D02*
X283230059Y89431845D01*
X302538630Y85939464D02*
X301538630Y85939464D01*
X301538630Y86177559D01*
X301586250Y86320416D01*
X301681488Y86415654D01*
X301776726Y86463273D01*
X301967202Y86510892D01*
X302110059Y86510892D01*
X302300535Y86463273D01*
X302395773Y86415654D01*
X302491011Y86320416D01*
X302538630Y86177559D01*
X302538630Y85939464D01*
X301538630Y86844226D02*
X301538630Y87463273D01*
X301919583Y87129940D01*
X301919583Y87272797D01*
X301967202Y87368035D01*
X302014821Y87415654D01*
X302110059Y87463273D01*
X302348154Y87463273D01*
X302443392Y87415654D01*
X302491011Y87368035D01*
X302538630Y87272797D01*
X302538630Y86987083D01*
X302491011Y86891845D01*
X302443392Y86844226D01*
X301538630Y87796607D02*
X301538630Y88463273D01*
X302538630Y88034702D01*
X302708630Y83081845D02*
X301708630Y83081845D01*
X302708630Y83653273D02*
X302137202Y83224702D01*
X301708630Y83653273D02*
X302280059Y83081845D01*
X321588630Y76414464D02*
X320588630Y76414464D01*
X320588630Y76652559D01*
X320636250Y76795416D01*
X320731488Y76890654D01*
X320826726Y76938273D01*
X321017202Y76985892D01*
X321160059Y76985892D01*
X321350535Y76938273D01*
X321445773Y76890654D01*
X321541011Y76795416D01*
X321588630Y76652559D01*
X321588630Y76414464D01*
X320588630Y77319226D02*
X320588630Y77938273D01*
X320969583Y77604940D01*
X320969583Y77747797D01*
X321017202Y77843035D01*
X321064821Y77890654D01*
X321160059Y77938273D01*
X321398154Y77938273D01*
X321493392Y77890654D01*
X321541011Y77843035D01*
X321588630Y77747797D01*
X321588630Y77462083D01*
X321541011Y77366845D01*
X321493392Y77319226D01*
X320588630Y78795416D02*
X320588630Y78604940D01*
X320636250Y78509702D01*
X320683869Y78462083D01*
X320826726Y78366845D01*
X321017202Y78319226D01*
X321398154Y78319226D01*
X321493392Y78366845D01*
X321541011Y78414464D01*
X321588630Y78509702D01*
X321588630Y78700178D01*
X321541011Y78795416D01*
X321493392Y78843035D01*
X321398154Y78890654D01*
X321160059Y78890654D01*
X321064821Y78843035D01*
X321017202Y78795416D01*
X320969583Y78700178D01*
X320969583Y78509702D01*
X321017202Y78414464D01*
X321064821Y78366845D01*
X321160059Y78319226D01*
X321758630Y73556845D02*
X320758630Y73556845D01*
X321758630Y74128273D02*
X321187202Y73699702D01*
X320758630Y74128273D02*
X321330059Y73556845D01*
X340638630Y76414464D02*
X339638630Y76414464D01*
X339638630Y76652559D01*
X339686250Y76795416D01*
X339781488Y76890654D01*
X339876726Y76938273D01*
X340067202Y76985892D01*
X340210059Y76985892D01*
X340400535Y76938273D01*
X340495773Y76890654D01*
X340591011Y76795416D01*
X340638630Y76652559D01*
X340638630Y76414464D01*
X339638630Y77319226D02*
X339638630Y77938273D01*
X340019583Y77604940D01*
X340019583Y77747797D01*
X340067202Y77843035D01*
X340114821Y77890654D01*
X340210059Y77938273D01*
X340448154Y77938273D01*
X340543392Y77890654D01*
X340591011Y77843035D01*
X340638630Y77747797D01*
X340638630Y77462083D01*
X340591011Y77366845D01*
X340543392Y77319226D01*
X339638630Y78843035D02*
X339638630Y78366845D01*
X340114821Y78319226D01*
X340067202Y78366845D01*
X340019583Y78462083D01*
X340019583Y78700178D01*
X340067202Y78795416D01*
X340114821Y78843035D01*
X340210059Y78890654D01*
X340448154Y78890654D01*
X340543392Y78843035D01*
X340591011Y78795416D01*
X340638630Y78700178D01*
X340638630Y78462083D01*
X340591011Y78366845D01*
X340543392Y78319226D01*
X340808630Y73556845D02*
X339808630Y73556845D01*
X340808630Y74128273D02*
X340237202Y73699702D01*
X339808630Y74128273D02*
X340380059Y73556845D01*
X226338630Y92289464D02*
X225338630Y92289464D01*
X225338630Y92527559D01*
X225386250Y92670416D01*
X225481488Y92765654D01*
X225576726Y92813273D01*
X225767202Y92860892D01*
X225910059Y92860892D01*
X226100535Y92813273D01*
X226195773Y92765654D01*
X226291011Y92670416D01*
X226338630Y92527559D01*
X226338630Y92289464D01*
X225433869Y93241845D02*
X225386250Y93289464D01*
X225338630Y93384702D01*
X225338630Y93622797D01*
X225386250Y93718035D01*
X225433869Y93765654D01*
X225529107Y93813273D01*
X225624345Y93813273D01*
X225767202Y93765654D01*
X226338630Y93194226D01*
X226338630Y93813273D01*
X225767202Y94384702D02*
X225719583Y94289464D01*
X225671964Y94241845D01*
X225576726Y94194226D01*
X225529107Y94194226D01*
X225433869Y94241845D01*
X225386250Y94289464D01*
X225338630Y94384702D01*
X225338630Y94575178D01*
X225386250Y94670416D01*
X225433869Y94718035D01*
X225529107Y94765654D01*
X225576726Y94765654D01*
X225671964Y94718035D01*
X225719583Y94670416D01*
X225767202Y94575178D01*
X225767202Y94384702D01*
X225814821Y94289464D01*
X225862440Y94241845D01*
X225957678Y94194226D01*
X226148154Y94194226D01*
X226243392Y94241845D01*
X226291011Y94289464D01*
X226338630Y94384702D01*
X226338630Y94575178D01*
X226291011Y94670416D01*
X226243392Y94718035D01*
X226148154Y94765654D01*
X225957678Y94765654D01*
X225862440Y94718035D01*
X225814821Y94670416D01*
X225767202Y94575178D01*
X226508630Y89431845D02*
X225508630Y89431845D01*
X226508630Y90003273D02*
X225937202Y89574702D01*
X225508630Y90003273D02*
X226080059Y89431845D01*
X245388630Y101814464D02*
X244388630Y101814464D01*
X244388630Y102052559D01*
X244436250Y102195416D01*
X244531488Y102290654D01*
X244626726Y102338273D01*
X244817202Y102385892D01*
X244960059Y102385892D01*
X245150535Y102338273D01*
X245245773Y102290654D01*
X245341011Y102195416D01*
X245388630Y102052559D01*
X245388630Y101814464D01*
X244483869Y102766845D02*
X244436250Y102814464D01*
X244388630Y102909702D01*
X244388630Y103147797D01*
X244436250Y103243035D01*
X244483869Y103290654D01*
X244579107Y103338273D01*
X244674345Y103338273D01*
X244817202Y103290654D01*
X245388630Y102719226D01*
X245388630Y103338273D01*
X244388630Y103671607D02*
X244388630Y104338273D01*
X245388630Y103909702D01*
X245558630Y98956845D02*
X244558630Y98956845D01*
X245558630Y99528273D02*
X244987202Y99099702D01*
X244558630Y99528273D02*
X245130059Y98956845D01*
X264438630Y104989464D02*
X263438630Y104989464D01*
X263438630Y105227559D01*
X263486250Y105370416D01*
X263581488Y105465654D01*
X263676726Y105513273D01*
X263867202Y105560892D01*
X264010059Y105560892D01*
X264200535Y105513273D01*
X264295773Y105465654D01*
X264391011Y105370416D01*
X264438630Y105227559D01*
X264438630Y104989464D01*
X263533869Y105941845D02*
X263486250Y105989464D01*
X263438630Y106084702D01*
X263438630Y106322797D01*
X263486250Y106418035D01*
X263533869Y106465654D01*
X263629107Y106513273D01*
X263724345Y106513273D01*
X263867202Y106465654D01*
X264438630Y105894226D01*
X264438630Y106513273D01*
X263438630Y107370416D02*
X263438630Y107179940D01*
X263486250Y107084702D01*
X263533869Y107037083D01*
X263676726Y106941845D01*
X263867202Y106894226D01*
X264248154Y106894226D01*
X264343392Y106941845D01*
X264391011Y106989464D01*
X264438630Y107084702D01*
X264438630Y107275178D01*
X264391011Y107370416D01*
X264343392Y107418035D01*
X264248154Y107465654D01*
X264010059Y107465654D01*
X263914821Y107418035D01*
X263867202Y107370416D01*
X263819583Y107275178D01*
X263819583Y107084702D01*
X263867202Y106989464D01*
X263914821Y106941845D01*
X264010059Y106894226D01*
X264608630Y102131845D02*
X263608630Y102131845D01*
X264608630Y102703273D02*
X264037202Y102274702D01*
X263608630Y102703273D02*
X264180059Y102131845D01*
X283488630Y111339464D02*
X282488630Y111339464D01*
X282488630Y111577559D01*
X282536250Y111720416D01*
X282631488Y111815654D01*
X282726726Y111863273D01*
X282917202Y111910892D01*
X283060059Y111910892D01*
X283250535Y111863273D01*
X283345773Y111815654D01*
X283441011Y111720416D01*
X283488630Y111577559D01*
X283488630Y111339464D01*
X282583869Y112291845D02*
X282536250Y112339464D01*
X282488630Y112434702D01*
X282488630Y112672797D01*
X282536250Y112768035D01*
X282583869Y112815654D01*
X282679107Y112863273D01*
X282774345Y112863273D01*
X282917202Y112815654D01*
X283488630Y112244226D01*
X283488630Y112863273D01*
X282488630Y113768035D02*
X282488630Y113291845D01*
X282964821Y113244226D01*
X282917202Y113291845D01*
X282869583Y113387083D01*
X282869583Y113625178D01*
X282917202Y113720416D01*
X282964821Y113768035D01*
X283060059Y113815654D01*
X283298154Y113815654D01*
X283393392Y113768035D01*
X283441011Y113720416D01*
X283488630Y113625178D01*
X283488630Y113387083D01*
X283441011Y113291845D01*
X283393392Y113244226D01*
X283658630Y108481845D02*
X282658630Y108481845D01*
X283658630Y109053273D02*
X283087202Y108624702D01*
X282658630Y109053273D02*
X283230059Y108481845D01*
X302538630Y104989464D02*
X301538630Y104989464D01*
X301538630Y105227559D01*
X301586250Y105370416D01*
X301681488Y105465654D01*
X301776726Y105513273D01*
X301967202Y105560892D01*
X302110059Y105560892D01*
X302300535Y105513273D01*
X302395773Y105465654D01*
X302491011Y105370416D01*
X302538630Y105227559D01*
X302538630Y104989464D01*
X301633869Y105941845D02*
X301586250Y105989464D01*
X301538630Y106084702D01*
X301538630Y106322797D01*
X301586250Y106418035D01*
X301633869Y106465654D01*
X301729107Y106513273D01*
X301824345Y106513273D01*
X301967202Y106465654D01*
X302538630Y105894226D01*
X302538630Y106513273D01*
X301871964Y107370416D02*
X302538630Y107370416D01*
X301491011Y107132321D02*
X302205297Y106894226D01*
X302205297Y107513273D01*
X302708630Y102131845D02*
X301708630Y102131845D01*
X302708630Y102703273D02*
X302137202Y102274702D01*
X301708630Y102703273D02*
X302280059Y102131845D01*
X321588630Y95464464D02*
X320588630Y95464464D01*
X320588630Y95702559D01*
X320636250Y95845416D01*
X320731488Y95940654D01*
X320826726Y95988273D01*
X321017202Y96035892D01*
X321160059Y96035892D01*
X321350535Y95988273D01*
X321445773Y95940654D01*
X321541011Y95845416D01*
X321588630Y95702559D01*
X321588630Y95464464D01*
X320683869Y96416845D02*
X320636250Y96464464D01*
X320588630Y96559702D01*
X320588630Y96797797D01*
X320636250Y96893035D01*
X320683869Y96940654D01*
X320779107Y96988273D01*
X320874345Y96988273D01*
X321017202Y96940654D01*
X321588630Y96369226D01*
X321588630Y96988273D01*
X320588630Y97321607D02*
X320588630Y97940654D01*
X320969583Y97607321D01*
X320969583Y97750178D01*
X321017202Y97845416D01*
X321064821Y97893035D01*
X321160059Y97940654D01*
X321398154Y97940654D01*
X321493392Y97893035D01*
X321541011Y97845416D01*
X321588630Y97750178D01*
X321588630Y97464464D01*
X321541011Y97369226D01*
X321493392Y97321607D01*
X321758630Y92606845D02*
X320758630Y92606845D01*
X321758630Y93178273D02*
X321187202Y92749702D01*
X320758630Y93178273D02*
X321330059Y92606845D01*
X340638630Y95464464D02*
X339638630Y95464464D01*
X339638630Y95702559D01*
X339686250Y95845416D01*
X339781488Y95940654D01*
X339876726Y95988273D01*
X340067202Y96035892D01*
X340210059Y96035892D01*
X340400535Y95988273D01*
X340495773Y95940654D01*
X340591011Y95845416D01*
X340638630Y95702559D01*
X340638630Y95464464D01*
X339733869Y96416845D02*
X339686250Y96464464D01*
X339638630Y96559702D01*
X339638630Y96797797D01*
X339686250Y96893035D01*
X339733869Y96940654D01*
X339829107Y96988273D01*
X339924345Y96988273D01*
X340067202Y96940654D01*
X340638630Y96369226D01*
X340638630Y96988273D01*
X339733869Y97369226D02*
X339686250Y97416845D01*
X339638630Y97512083D01*
X339638630Y97750178D01*
X339686250Y97845416D01*
X339733869Y97893035D01*
X339829107Y97940654D01*
X339924345Y97940654D01*
X340067202Y97893035D01*
X340638630Y97321607D01*
X340638630Y97940654D01*
X340808630Y92606845D02*
X339808630Y92606845D01*
X340808630Y93178273D02*
X340237202Y92749702D01*
X339808630Y93178273D02*
X340380059Y92606845D01*
X226338630Y120864464D02*
X225338630Y120864464D01*
X225338630Y121102559D01*
X225386250Y121245416D01*
X225481488Y121340654D01*
X225576726Y121388273D01*
X225767202Y121435892D01*
X225910059Y121435892D01*
X226100535Y121388273D01*
X226195773Y121340654D01*
X226291011Y121245416D01*
X226338630Y121102559D01*
X226338630Y120864464D01*
X226338630Y122388273D02*
X226338630Y121816845D01*
X226338630Y122102559D02*
X225338630Y122102559D01*
X225481488Y122007321D01*
X225576726Y121912083D01*
X225624345Y121816845D01*
X225671964Y123245416D02*
X226338630Y123245416D01*
X225291011Y123007321D02*
X226005297Y122769226D01*
X226005297Y123388273D01*
X226508630Y118006845D02*
X225508630Y118006845D01*
X226508630Y118578273D02*
X225937202Y118149702D01*
X225508630Y118578273D02*
X226080059Y118006845D01*
X245388630Y120864464D02*
X244388630Y120864464D01*
X244388630Y121102559D01*
X244436250Y121245416D01*
X244531488Y121340654D01*
X244626726Y121388273D01*
X244817202Y121435892D01*
X244960059Y121435892D01*
X245150535Y121388273D01*
X245245773Y121340654D01*
X245341011Y121245416D01*
X245388630Y121102559D01*
X245388630Y120864464D01*
X245388630Y122388273D02*
X245388630Y121816845D01*
X245388630Y122102559D02*
X244388630Y122102559D01*
X244531488Y122007321D01*
X244626726Y121912083D01*
X244674345Y121816845D01*
X244388630Y122721607D02*
X244388630Y123340654D01*
X244769583Y123007321D01*
X244769583Y123150178D01*
X244817202Y123245416D01*
X244864821Y123293035D01*
X244960059Y123340654D01*
X245198154Y123340654D01*
X245293392Y123293035D01*
X245341011Y123245416D01*
X245388630Y123150178D01*
X245388630Y122864464D01*
X245341011Y122769226D01*
X245293392Y122721607D01*
X245558630Y118006845D02*
X244558630Y118006845D01*
X245558630Y118578273D02*
X244987202Y118149702D01*
X244558630Y118578273D02*
X245130059Y118006845D01*
X264438630Y124039464D02*
X263438630Y124039464D01*
X263438630Y124277559D01*
X263486250Y124420416D01*
X263581488Y124515654D01*
X263676726Y124563273D01*
X263867202Y124610892D01*
X264010059Y124610892D01*
X264200535Y124563273D01*
X264295773Y124515654D01*
X264391011Y124420416D01*
X264438630Y124277559D01*
X264438630Y124039464D01*
X264438630Y125563273D02*
X264438630Y124991845D01*
X264438630Y125277559D02*
X263438630Y125277559D01*
X263581488Y125182321D01*
X263676726Y125087083D01*
X263724345Y124991845D01*
X263533869Y125944226D02*
X263486250Y125991845D01*
X263438630Y126087083D01*
X263438630Y126325178D01*
X263486250Y126420416D01*
X263533869Y126468035D01*
X263629107Y126515654D01*
X263724345Y126515654D01*
X263867202Y126468035D01*
X264438630Y125896607D01*
X264438630Y126515654D01*
X264608630Y121181845D02*
X263608630Y121181845D01*
X264608630Y121753273D02*
X264037202Y121324702D01*
X263608630Y121753273D02*
X264180059Y121181845D01*
X283488630Y130389464D02*
X282488630Y130389464D01*
X282488630Y130627559D01*
X282536250Y130770416D01*
X282631488Y130865654D01*
X282726726Y130913273D01*
X282917202Y130960892D01*
X283060059Y130960892D01*
X283250535Y130913273D01*
X283345773Y130865654D01*
X283441011Y130770416D01*
X283488630Y130627559D01*
X283488630Y130389464D01*
X283488630Y131913273D02*
X283488630Y131341845D01*
X283488630Y131627559D02*
X282488630Y131627559D01*
X282631488Y131532321D01*
X282726726Y131437083D01*
X282774345Y131341845D01*
X283488630Y132865654D02*
X283488630Y132294226D01*
X283488630Y132579940D02*
X282488630Y132579940D01*
X282631488Y132484702D01*
X282726726Y132389464D01*
X282774345Y132294226D01*
X283658630Y127531845D02*
X282658630Y127531845D01*
X283658630Y128103273D02*
X283087202Y127674702D01*
X282658630Y128103273D02*
X283230059Y127531845D01*
X302538630Y124039464D02*
X301538630Y124039464D01*
X301538630Y124277559D01*
X301586250Y124420416D01*
X301681488Y124515654D01*
X301776726Y124563273D01*
X301967202Y124610892D01*
X302110059Y124610892D01*
X302300535Y124563273D01*
X302395773Y124515654D01*
X302491011Y124420416D01*
X302538630Y124277559D01*
X302538630Y124039464D01*
X302538630Y125563273D02*
X302538630Y124991845D01*
X302538630Y125277559D02*
X301538630Y125277559D01*
X301681488Y125182321D01*
X301776726Y125087083D01*
X301824345Y124991845D01*
X301538630Y126182321D02*
X301538630Y126277559D01*
X301586250Y126372797D01*
X301633869Y126420416D01*
X301729107Y126468035D01*
X301919583Y126515654D01*
X302157678Y126515654D01*
X302348154Y126468035D01*
X302443392Y126420416D01*
X302491011Y126372797D01*
X302538630Y126277559D01*
X302538630Y126182321D01*
X302491011Y126087083D01*
X302443392Y126039464D01*
X302348154Y125991845D01*
X302157678Y125944226D01*
X301919583Y125944226D01*
X301729107Y125991845D01*
X301633869Y126039464D01*
X301586250Y126087083D01*
X301538630Y126182321D01*
X302708630Y121181845D02*
X301708630Y121181845D01*
X302708630Y121753273D02*
X302137202Y121324702D01*
X301708630Y121753273D02*
X302280059Y121181845D01*
X321588630Y114990654D02*
X320588630Y114990654D01*
X320588630Y115228750D01*
X320636250Y115371607D01*
X320731488Y115466845D01*
X320826726Y115514464D01*
X321017202Y115562083D01*
X321160059Y115562083D01*
X321350535Y115514464D01*
X321445773Y115466845D01*
X321541011Y115371607D01*
X321588630Y115228750D01*
X321588630Y114990654D01*
X321588630Y116038273D02*
X321588630Y116228750D01*
X321541011Y116323988D01*
X321493392Y116371607D01*
X321350535Y116466845D01*
X321160059Y116514464D01*
X320779107Y116514464D01*
X320683869Y116466845D01*
X320636250Y116419226D01*
X320588630Y116323988D01*
X320588630Y116133511D01*
X320636250Y116038273D01*
X320683869Y115990654D01*
X320779107Y115943035D01*
X321017202Y115943035D01*
X321112440Y115990654D01*
X321160059Y116038273D01*
X321207678Y116133511D01*
X321207678Y116323988D01*
X321160059Y116419226D01*
X321112440Y116466845D01*
X321017202Y116514464D01*
X321758630Y111656845D02*
X320758630Y111656845D01*
X321758630Y112228273D02*
X321187202Y111799702D01*
X320758630Y112228273D02*
X321330059Y111656845D01*
X340638630Y114990654D02*
X339638630Y114990654D01*
X339638630Y115228750D01*
X339686250Y115371607D01*
X339781488Y115466845D01*
X339876726Y115514464D01*
X340067202Y115562083D01*
X340210059Y115562083D01*
X340400535Y115514464D01*
X340495773Y115466845D01*
X340591011Y115371607D01*
X340638630Y115228750D01*
X340638630Y114990654D01*
X340067202Y116133511D02*
X340019583Y116038273D01*
X339971964Y115990654D01*
X339876726Y115943035D01*
X339829107Y115943035D01*
X339733869Y115990654D01*
X339686250Y116038273D01*
X339638630Y116133511D01*
X339638630Y116323988D01*
X339686250Y116419226D01*
X339733869Y116466845D01*
X339829107Y116514464D01*
X339876726Y116514464D01*
X339971964Y116466845D01*
X340019583Y116419226D01*
X340067202Y116323988D01*
X340067202Y116133511D01*
X340114821Y116038273D01*
X340162440Y115990654D01*
X340257678Y115943035D01*
X340448154Y115943035D01*
X340543392Y115990654D01*
X340591011Y116038273D01*
X340638630Y116133511D01*
X340638630Y116323988D01*
X340591011Y116419226D01*
X340543392Y116466845D01*
X340448154Y116514464D01*
X340257678Y116514464D01*
X340162440Y116466845D01*
X340114821Y116419226D01*
X340067202Y116323988D01*
X340808630Y111656845D02*
X339808630Y111656845D01*
X340808630Y112228273D02*
X340237202Y111799702D01*
X339808630Y112228273D02*
X340380059Y111656845D01*
X128936011Y121760416D02*
X128983630Y121903273D01*
X128983630Y122141369D01*
X128936011Y122236607D01*
X128888392Y122284226D01*
X128793154Y122331845D01*
X128697916Y122331845D01*
X128602678Y122284226D01*
X128555059Y122236607D01*
X128507440Y122141369D01*
X128459821Y121950892D01*
X128412202Y121855654D01*
X128364583Y121808035D01*
X128269345Y121760416D01*
X128174107Y121760416D01*
X128078869Y121808035D01*
X128031250Y121855654D01*
X127983630Y121950892D01*
X127983630Y122188988D01*
X128031250Y122331845D01*
X127983630Y122665178D02*
X128983630Y122903273D01*
X128269345Y123093750D01*
X128983630Y123284226D01*
X127983630Y123522321D01*
X128983630Y124427083D02*
X128983630Y123855654D01*
X128983630Y124141369D02*
X127983630Y124141369D01*
X128126488Y124046130D01*
X128221726Y123950892D01*
X128269345Y123855654D01*
X149825514Y49185638D02*
X150325514Y50051663D01*
X150531710Y49932616D01*
X150631619Y49819948D01*
X150666478Y49689850D01*
X150660098Y49583562D01*
X150606100Y49394795D01*
X150534671Y49271077D01*
X150398194Y49129930D01*
X150309335Y49071261D01*
X150179238Y49036401D01*
X150031710Y49066590D01*
X149825514Y49185638D01*
X151396026Y49048703D02*
X151062693Y48471352D01*
X151380306Y49497665D02*
X150816967Y48998123D01*
X151353077Y48688599D01*
X151927467Y49016804D02*
X151992516Y49034234D01*
X152098804Y49027854D01*
X152305000Y48908806D01*
X152363669Y48819948D01*
X152381099Y48754899D01*
X152374720Y48648611D01*
X152327100Y48566132D01*
X152214433Y48466224D01*
X151433847Y48257067D01*
X151969958Y47947543D01*
X147265743Y50467222D02*
X147765743Y51333248D01*
X147760615Y50181508D02*
X147675175Y50890666D01*
X148260615Y51047534D02*
X147480029Y50838376D01*
X104471826Y63097796D02*
X103481317Y63235240D01*
X103514042Y63471076D01*
X103580844Y63606032D01*
X103688268Y63687276D01*
X103789147Y63721354D01*
X103984360Y63742341D01*
X104125862Y63722706D01*
X104307985Y63649359D01*
X104395775Y63589102D01*
X104477019Y63481678D01*
X104504551Y63333631D01*
X104471826Y63097796D01*
X104007836Y64604439D02*
X104668176Y64512809D01*
X103597774Y64420963D02*
X104272556Y64086953D01*
X104357641Y64700125D01*
X104138735Y65547781D02*
X104799075Y65456152D01*
X103728674Y65364306D02*
X104403455Y65030295D01*
X104488540Y65643468D01*
X104247448Y60243931D02*
X103256938Y60381376D01*
X104325987Y60809936D02*
X103701077Y60463972D01*
X103335478Y60947381D02*
X103822944Y60302836D01*
X134080297Y124222321D02*
X134842202Y124222321D01*
X134461250Y123841369D02*
X134461250Y124603273D01*
X136620297Y124222321D02*
X137382202Y124222321D01*
X85421826Y66272796D02*
X84431317Y66410240D01*
X84464042Y66646076D01*
X84530844Y66781032D01*
X84638268Y66862276D01*
X84739147Y66896354D01*
X84934360Y66917341D01*
X85075862Y66897706D01*
X85257985Y66824359D01*
X85345775Y66764102D01*
X85427019Y66656678D01*
X85454551Y66508631D01*
X85421826Y66272796D01*
X84957836Y67779439D02*
X85618176Y67687809D01*
X84547774Y67595963D02*
X85222556Y67261953D01*
X85307641Y67875125D01*
X84686571Y68249758D02*
X84771656Y68862930D01*
X85103178Y68480401D01*
X85122813Y68621902D01*
X85183070Y68709691D01*
X85236782Y68750313D01*
X85337661Y68784391D01*
X85573497Y68751666D01*
X85661286Y68691409D01*
X85701908Y68637697D01*
X85735985Y68536817D01*
X85696715Y68253815D01*
X85636458Y68166025D01*
X85582746Y68125403D01*
X85197448Y63418931D02*
X84206938Y63556376D01*
X85275987Y63984936D02*
X84651077Y63638972D01*
X84285478Y64122381D02*
X84772944Y63477836D01*
X316172380Y38529166D02*
X316886666Y38529166D01*
X317029523Y38481547D01*
X317124761Y38386309D01*
X317172380Y38243452D01*
X317172380Y38148214D01*
X316267619Y38957738D02*
X316220000Y39005357D01*
X316172380Y39100595D01*
X316172380Y39338690D01*
X316220000Y39433928D01*
X316267619Y39481547D01*
X316362857Y39529166D01*
X316458095Y39529166D01*
X316600952Y39481547D01*
X317172380Y38910119D01*
X317172380Y39529166D01*
X38761011Y56147916D02*
X38808630Y56290773D01*
X38808630Y56528869D01*
X38761011Y56624107D01*
X38713392Y56671726D01*
X38618154Y56719345D01*
X38522916Y56719345D01*
X38427678Y56671726D01*
X38380059Y56624107D01*
X38332440Y56528869D01*
X38284821Y56338392D01*
X38237202Y56243154D01*
X38189583Y56195535D01*
X38094345Y56147916D01*
X37999107Y56147916D01*
X37903869Y56195535D01*
X37856250Y56243154D01*
X37808630Y56338392D01*
X37808630Y56576488D01*
X37856250Y56719345D01*
X37808630Y57052678D02*
X38808630Y57290773D01*
X38094345Y57481250D01*
X38808630Y57671726D01*
X37808630Y57909821D01*
X37808630Y58195535D02*
X37808630Y58814583D01*
X38189583Y58481250D01*
X38189583Y58624107D01*
X38237202Y58719345D01*
X38284821Y58766964D01*
X38380059Y58814583D01*
X38618154Y58814583D01*
X38713392Y58766964D01*
X38761011Y58719345D01*
X38808630Y58624107D01*
X38808630Y58338392D01*
X38761011Y58243154D01*
X38713392Y58195535D01*
X330623511Y55722916D02*
X330671130Y55865773D01*
X330671130Y56103869D01*
X330623511Y56199107D01*
X330575892Y56246726D01*
X330480654Y56294345D01*
X330385416Y56294345D01*
X330290178Y56246726D01*
X330242559Y56199107D01*
X330194940Y56103869D01*
X330147321Y55913392D01*
X330099702Y55818154D01*
X330052083Y55770535D01*
X329956845Y55722916D01*
X329861607Y55722916D01*
X329766369Y55770535D01*
X329718750Y55818154D01*
X329671130Y55913392D01*
X329671130Y56151488D01*
X329718750Y56294345D01*
X329671130Y56627678D02*
X330671130Y56865773D01*
X329956845Y57056250D01*
X330671130Y57246726D01*
X329671130Y57484821D01*
X330004464Y58294345D02*
X330671130Y58294345D01*
X329623511Y58056250D02*
X330337797Y57818154D01*
X330337797Y58437202D01*
X29488630Y114990654D02*
X28488630Y114990654D01*
X28488630Y115228750D01*
X28536250Y115371607D01*
X28631488Y115466845D01*
X28726726Y115514464D01*
X28917202Y115562083D01*
X29060059Y115562083D01*
X29250535Y115514464D01*
X29345773Y115466845D01*
X29441011Y115371607D01*
X29488630Y115228750D01*
X29488630Y114990654D01*
X29488630Y116514464D02*
X29488630Y115943035D01*
X29488630Y116228750D02*
X28488630Y116228750D01*
X28631488Y116133511D01*
X28726726Y116038273D01*
X28774345Y115943035D01*
X29658630Y111656845D02*
X28658630Y111656845D01*
X29658630Y112228273D02*
X29087202Y111799702D01*
X28658630Y112228273D02*
X29230059Y111656845D01*
X51663095Y61960119D02*
X52234523Y61960119D01*
X51948809Y60960119D02*
X51948809Y61960119D01*
X53139285Y60960119D02*
X52805952Y61436309D01*
X52567857Y60960119D02*
X52567857Y61960119D01*
X52948809Y61960119D01*
X53044047Y61912500D01*
X53091666Y61864880D01*
X53139285Y61769642D01*
X53139285Y61626785D01*
X53091666Y61531547D01*
X53044047Y61483928D01*
X52948809Y61436309D01*
X52567857Y61436309D01*
X54139285Y60960119D02*
X53805952Y61436309D01*
X53567857Y60960119D02*
X53567857Y61960119D01*
X53948809Y61960119D01*
X54044047Y61912500D01*
X54091666Y61864880D01*
X54139285Y61769642D01*
X54139285Y61626785D01*
X54091666Y61531547D01*
X54044047Y61483928D01*
X53948809Y61436309D01*
X53567857Y61436309D01*
X54520238Y61007738D02*
X54663095Y60960119D01*
X54901190Y60960119D01*
X54996428Y61007738D01*
X55044047Y61055357D01*
X55091666Y61150595D01*
X55091666Y61245833D01*
X55044047Y61341071D01*
X54996428Y61388690D01*
X54901190Y61436309D01*
X54710714Y61483928D01*
X54615476Y61531547D01*
X54567857Y61579166D01*
X54520238Y61674404D01*
X54520238Y61769642D01*
X54567857Y61864880D01*
X54615476Y61912500D01*
X54710714Y61960119D01*
X54948809Y61960119D01*
X55091666Y61912500D01*
X24525780Y38941466D02*
X25240066Y38941466D01*
X25382923Y38893847D01*
X25478161Y38798609D01*
X25525780Y38655752D01*
X25525780Y38560514D01*
X25525780Y39941466D02*
X25525780Y39370038D01*
X25525780Y39655752D02*
X24525780Y39655752D01*
X24668638Y39560514D01*
X24763876Y39465276D01*
X24811495Y39370038D01*
X297488095Y61535119D02*
X298059523Y61535119D01*
X297773809Y60535119D02*
X297773809Y61535119D01*
X298964285Y60535119D02*
X298630952Y61011309D01*
X298392857Y60535119D02*
X298392857Y61535119D01*
X298773809Y61535119D01*
X298869047Y61487500D01*
X298916666Y61439880D01*
X298964285Y61344642D01*
X298964285Y61201785D01*
X298916666Y61106547D01*
X298869047Y61058928D01*
X298773809Y61011309D01*
X298392857Y61011309D01*
X299964285Y60535119D02*
X299630952Y61011309D01*
X299392857Y60535119D02*
X299392857Y61535119D01*
X299773809Y61535119D01*
X299869047Y61487500D01*
X299916666Y61439880D01*
X299964285Y61344642D01*
X299964285Y61201785D01*
X299916666Y61106547D01*
X299869047Y61058928D01*
X299773809Y61011309D01*
X299392857Y61011309D01*
X300345238Y60582738D02*
X300488095Y60535119D01*
X300726190Y60535119D01*
X300821428Y60582738D01*
X300869047Y60630357D01*
X300916666Y60725595D01*
X300916666Y60820833D01*
X300869047Y60916071D01*
X300821428Y60963690D01*
X300726190Y61011309D01*
X300535714Y61058928D01*
X300440476Y61106547D01*
X300392857Y61154166D01*
X300345238Y61249404D01*
X300345238Y61344642D01*
X300392857Y61439880D01*
X300440476Y61487500D01*
X300535714Y61535119D01*
X300773809Y61535119D01*
X300916666Y61487500D01*
X124738630Y82764464D02*
X123738630Y82764464D01*
X123738630Y83002559D01*
X123786250Y83145416D01*
X123881488Y83240654D01*
X123976726Y83288273D01*
X124167202Y83335892D01*
X124310059Y83335892D01*
X124500535Y83288273D01*
X124595773Y83240654D01*
X124691011Y83145416D01*
X124738630Y83002559D01*
X124738630Y82764464D01*
X123738630Y83669226D02*
X123738630Y84288273D01*
X124119583Y83954940D01*
X124119583Y84097797D01*
X124167202Y84193035D01*
X124214821Y84240654D01*
X124310059Y84288273D01*
X124548154Y84288273D01*
X124643392Y84240654D01*
X124691011Y84193035D01*
X124738630Y84097797D01*
X124738630Y83812083D01*
X124691011Y83716845D01*
X124643392Y83669226D01*
X124071964Y85145416D02*
X124738630Y85145416D01*
X123691011Y84907321D02*
X124405297Y84669226D01*
X124405297Y85288273D01*
X124908630Y79906845D02*
X123908630Y79906845D01*
X124908630Y80478273D02*
X124337202Y80049702D01*
X123908630Y80478273D02*
X124480059Y79906845D01*
X197989880Y102263095D02*
X197989880Y102834523D01*
X198989880Y102548809D02*
X197989880Y102548809D01*
X198989880Y103739285D02*
X198513690Y103405952D01*
X198989880Y103167857D02*
X197989880Y103167857D01*
X197989880Y103548809D01*
X198037500Y103644047D01*
X198085119Y103691666D01*
X198180357Y103739285D01*
X198323214Y103739285D01*
X198418452Y103691666D01*
X198466071Y103644047D01*
X198513690Y103548809D01*
X198513690Y103167857D01*
X198989880Y104739285D02*
X198513690Y104405952D01*
X198989880Y104167857D02*
X197989880Y104167857D01*
X197989880Y104548809D01*
X198037500Y104644047D01*
X198085119Y104691666D01*
X198180357Y104739285D01*
X198323214Y104739285D01*
X198418452Y104691666D01*
X198466071Y104644047D01*
X198513690Y104548809D01*
X198513690Y104167857D01*
X198942261Y105120238D02*
X198989880Y105263095D01*
X198989880Y105501190D01*
X198942261Y105596428D01*
X198894642Y105644047D01*
X198799404Y105691666D01*
X198704166Y105691666D01*
X198608928Y105644047D01*
X198561309Y105596428D01*
X198513690Y105501190D01*
X198466071Y105310714D01*
X198418452Y105215476D01*
X198370833Y105167857D01*
X198275595Y105120238D01*
X198180357Y105120238D01*
X198085119Y105167857D01*
X198037500Y105215476D01*
X197989880Y105310714D01*
X197989880Y105548809D01*
X198037500Y105691666D01*
X124738630Y101814464D02*
X123738630Y101814464D01*
X123738630Y102052559D01*
X123786250Y102195416D01*
X123881488Y102290654D01*
X123976726Y102338273D01*
X124167202Y102385892D01*
X124310059Y102385892D01*
X124500535Y102338273D01*
X124595773Y102290654D01*
X124691011Y102195416D01*
X124738630Y102052559D01*
X124738630Y101814464D01*
X123833869Y102766845D02*
X123786250Y102814464D01*
X123738630Y102909702D01*
X123738630Y103147797D01*
X123786250Y103243035D01*
X123833869Y103290654D01*
X123929107Y103338273D01*
X124024345Y103338273D01*
X124167202Y103290654D01*
X124738630Y102719226D01*
X124738630Y103338273D01*
X123738630Y103957321D02*
X123738630Y104052559D01*
X123786250Y104147797D01*
X123833869Y104195416D01*
X123929107Y104243035D01*
X124119583Y104290654D01*
X124357678Y104290654D01*
X124548154Y104243035D01*
X124643392Y104195416D01*
X124691011Y104147797D01*
X124738630Y104052559D01*
X124738630Y103957321D01*
X124691011Y103862083D01*
X124643392Y103814464D01*
X124548154Y103766845D01*
X124357678Y103719226D01*
X124119583Y103719226D01*
X123929107Y103766845D01*
X123833869Y103814464D01*
X123786250Y103862083D01*
X123738630Y103957321D01*
X124908630Y98956845D02*
X123908630Y98956845D01*
X124908630Y99528273D02*
X124337202Y99099702D01*
X123908630Y99528273D02*
X124480059Y98956845D01*
X86638630Y92289464D02*
X85638630Y92289464D01*
X85638630Y92527559D01*
X85686250Y92670416D01*
X85781488Y92765654D01*
X85876726Y92813273D01*
X86067202Y92860892D01*
X86210059Y92860892D01*
X86400535Y92813273D01*
X86495773Y92765654D01*
X86591011Y92670416D01*
X86638630Y92527559D01*
X86638630Y92289464D01*
X85638630Y93194226D02*
X85638630Y93813273D01*
X86019583Y93479940D01*
X86019583Y93622797D01*
X86067202Y93718035D01*
X86114821Y93765654D01*
X86210059Y93813273D01*
X86448154Y93813273D01*
X86543392Y93765654D01*
X86591011Y93718035D01*
X86638630Y93622797D01*
X86638630Y93337083D01*
X86591011Y93241845D01*
X86543392Y93194226D01*
X85733869Y94194226D02*
X85686250Y94241845D01*
X85638630Y94337083D01*
X85638630Y94575178D01*
X85686250Y94670416D01*
X85733869Y94718035D01*
X85829107Y94765654D01*
X85924345Y94765654D01*
X86067202Y94718035D01*
X86638630Y94146607D01*
X86638630Y94765654D01*
X86808630Y89431845D02*
X85808630Y89431845D01*
X86808630Y90003273D02*
X86237202Y89574702D01*
X85808630Y90003273D02*
X86380059Y89431845D01*
X67588630Y85939464D02*
X66588630Y85939464D01*
X66588630Y86177559D01*
X66636250Y86320416D01*
X66731488Y86415654D01*
X66826726Y86463273D01*
X67017202Y86510892D01*
X67160059Y86510892D01*
X67350535Y86463273D01*
X67445773Y86415654D01*
X67541011Y86320416D01*
X67588630Y86177559D01*
X67588630Y85939464D01*
X66588630Y86844226D02*
X66588630Y87463273D01*
X66969583Y87129940D01*
X66969583Y87272797D01*
X67017202Y87368035D01*
X67064821Y87415654D01*
X67160059Y87463273D01*
X67398154Y87463273D01*
X67493392Y87415654D01*
X67541011Y87368035D01*
X67588630Y87272797D01*
X67588630Y86987083D01*
X67541011Y86891845D01*
X67493392Y86844226D01*
X67588630Y88415654D02*
X67588630Y87844226D01*
X67588630Y88129940D02*
X66588630Y88129940D01*
X66731488Y88034702D01*
X66826726Y87939464D01*
X66874345Y87844226D01*
X67758630Y83081845D02*
X66758630Y83081845D01*
X67758630Y83653273D02*
X67187202Y83224702D01*
X66758630Y83653273D02*
X67330059Y83081845D01*
X67588630Y104989464D02*
X66588630Y104989464D01*
X66588630Y105227559D01*
X66636250Y105370416D01*
X66731488Y105465654D01*
X66826726Y105513273D01*
X67017202Y105560892D01*
X67160059Y105560892D01*
X67350535Y105513273D01*
X67445773Y105465654D01*
X67541011Y105370416D01*
X67588630Y105227559D01*
X67588630Y104989464D01*
X67588630Y106513273D02*
X67588630Y105941845D01*
X67588630Y106227559D02*
X66588630Y106227559D01*
X66731488Y106132321D01*
X66826726Y106037083D01*
X66874345Y105941845D01*
X66588630Y106846607D02*
X66588630Y107513273D01*
X67588630Y107084702D01*
X67758630Y102131845D02*
X66758630Y102131845D01*
X67758630Y102703273D02*
X67187202Y102274702D01*
X66758630Y102703273D02*
X67330059Y102131845D01*
X154839880Y103763095D02*
X154839880Y104334523D01*
X155839880Y104048809D02*
X154839880Y104048809D01*
X155839880Y105239285D02*
X155363690Y104905952D01*
X155839880Y104667857D02*
X154839880Y104667857D01*
X154839880Y105048809D01*
X154887500Y105144047D01*
X154935119Y105191666D01*
X155030357Y105239285D01*
X155173214Y105239285D01*
X155268452Y105191666D01*
X155316071Y105144047D01*
X155363690Y105048809D01*
X155363690Y104667857D01*
X155839880Y106239285D02*
X155363690Y105905952D01*
X155839880Y105667857D02*
X154839880Y105667857D01*
X154839880Y106048809D01*
X154887500Y106144047D01*
X154935119Y106191666D01*
X155030357Y106239285D01*
X155173214Y106239285D01*
X155268452Y106191666D01*
X155316071Y106144047D01*
X155363690Y106048809D01*
X155363690Y105667857D01*
X155792261Y106620238D02*
X155839880Y106763095D01*
X155839880Y107001190D01*
X155792261Y107096428D01*
X155744642Y107144047D01*
X155649404Y107191666D01*
X155554166Y107191666D01*
X155458928Y107144047D01*
X155411309Y107096428D01*
X155363690Y107001190D01*
X155316071Y106810714D01*
X155268452Y106715476D01*
X155220833Y106667857D01*
X155125595Y106620238D01*
X155030357Y106620238D01*
X154935119Y106667857D01*
X154887500Y106715476D01*
X154839880Y106810714D01*
X154839880Y107048809D01*
X154887500Y107191666D01*
X48538630Y76414464D02*
X47538630Y76414464D01*
X47538630Y76652559D01*
X47586250Y76795416D01*
X47681488Y76890654D01*
X47776726Y76938273D01*
X47967202Y76985892D01*
X48110059Y76985892D01*
X48300535Y76938273D01*
X48395773Y76890654D01*
X48491011Y76795416D01*
X48538630Y76652559D01*
X48538630Y76414464D01*
X47538630Y77319226D02*
X47538630Y77938273D01*
X47919583Y77604940D01*
X47919583Y77747797D01*
X47967202Y77843035D01*
X48014821Y77890654D01*
X48110059Y77938273D01*
X48348154Y77938273D01*
X48443392Y77890654D01*
X48491011Y77843035D01*
X48538630Y77747797D01*
X48538630Y77462083D01*
X48491011Y77366845D01*
X48443392Y77319226D01*
X47538630Y78557321D02*
X47538630Y78652559D01*
X47586250Y78747797D01*
X47633869Y78795416D01*
X47729107Y78843035D01*
X47919583Y78890654D01*
X48157678Y78890654D01*
X48348154Y78843035D01*
X48443392Y78795416D01*
X48491011Y78747797D01*
X48538630Y78652559D01*
X48538630Y78557321D01*
X48491011Y78462083D01*
X48443392Y78414464D01*
X48348154Y78366845D01*
X48157678Y78319226D01*
X47919583Y78319226D01*
X47729107Y78366845D01*
X47633869Y78414464D01*
X47586250Y78462083D01*
X47538630Y78557321D01*
X48708630Y73556845D02*
X47708630Y73556845D01*
X48708630Y74128273D02*
X48137202Y73699702D01*
X47708630Y74128273D02*
X48280059Y73556845D01*
X86638630Y111339464D02*
X85638630Y111339464D01*
X85638630Y111577559D01*
X85686250Y111720416D01*
X85781488Y111815654D01*
X85876726Y111863273D01*
X86067202Y111910892D01*
X86210059Y111910892D01*
X86400535Y111863273D01*
X86495773Y111815654D01*
X86591011Y111720416D01*
X86638630Y111577559D01*
X86638630Y111339464D01*
X86638630Y112863273D02*
X86638630Y112291845D01*
X86638630Y112577559D02*
X85638630Y112577559D01*
X85781488Y112482321D01*
X85876726Y112387083D01*
X85924345Y112291845D01*
X86067202Y113434702D02*
X86019583Y113339464D01*
X85971964Y113291845D01*
X85876726Y113244226D01*
X85829107Y113244226D01*
X85733869Y113291845D01*
X85686250Y113339464D01*
X85638630Y113434702D01*
X85638630Y113625178D01*
X85686250Y113720416D01*
X85733869Y113768035D01*
X85829107Y113815654D01*
X85876726Y113815654D01*
X85971964Y113768035D01*
X86019583Y113720416D01*
X86067202Y113625178D01*
X86067202Y113434702D01*
X86114821Y113339464D01*
X86162440Y113291845D01*
X86257678Y113244226D01*
X86448154Y113244226D01*
X86543392Y113291845D01*
X86591011Y113339464D01*
X86638630Y113434702D01*
X86638630Y113625178D01*
X86591011Y113720416D01*
X86543392Y113768035D01*
X86448154Y113815654D01*
X86257678Y113815654D01*
X86162440Y113768035D01*
X86114821Y113720416D01*
X86067202Y113625178D01*
X86808630Y108481845D02*
X85808630Y108481845D01*
X86808630Y109053273D02*
X86237202Y108624702D01*
X85808630Y109053273D02*
X86380059Y108481845D01*
X48538630Y95464464D02*
X47538630Y95464464D01*
X47538630Y95702559D01*
X47586250Y95845416D01*
X47681488Y95940654D01*
X47776726Y95988273D01*
X47967202Y96035892D01*
X48110059Y96035892D01*
X48300535Y95988273D01*
X48395773Y95940654D01*
X48491011Y95845416D01*
X48538630Y95702559D01*
X48538630Y95464464D01*
X48538630Y96988273D02*
X48538630Y96416845D01*
X48538630Y96702559D02*
X47538630Y96702559D01*
X47681488Y96607321D01*
X47776726Y96512083D01*
X47824345Y96416845D01*
X47538630Y97845416D02*
X47538630Y97654940D01*
X47586250Y97559702D01*
X47633869Y97512083D01*
X47776726Y97416845D01*
X47967202Y97369226D01*
X48348154Y97369226D01*
X48443392Y97416845D01*
X48491011Y97464464D01*
X48538630Y97559702D01*
X48538630Y97750178D01*
X48491011Y97845416D01*
X48443392Y97893035D01*
X48348154Y97940654D01*
X48110059Y97940654D01*
X48014821Y97893035D01*
X47967202Y97845416D01*
X47919583Y97750178D01*
X47919583Y97559702D01*
X47967202Y97464464D01*
X48014821Y97416845D01*
X48110059Y97369226D01*
X48708630Y92606845D02*
X47708630Y92606845D01*
X48708630Y93178273D02*
X48137202Y92749702D01*
X47708630Y93178273D02*
X48280059Y92606845D01*
X29488630Y76414464D02*
X28488630Y76414464D01*
X28488630Y76652559D01*
X28536250Y76795416D01*
X28631488Y76890654D01*
X28726726Y76938273D01*
X28917202Y76985892D01*
X29060059Y76985892D01*
X29250535Y76938273D01*
X29345773Y76890654D01*
X29441011Y76795416D01*
X29488630Y76652559D01*
X29488630Y76414464D01*
X28583869Y77366845D02*
X28536250Y77414464D01*
X28488630Y77509702D01*
X28488630Y77747797D01*
X28536250Y77843035D01*
X28583869Y77890654D01*
X28679107Y77938273D01*
X28774345Y77938273D01*
X28917202Y77890654D01*
X29488630Y77319226D01*
X29488630Y77938273D01*
X29488630Y78414464D02*
X29488630Y78604940D01*
X29441011Y78700178D01*
X29393392Y78747797D01*
X29250535Y78843035D01*
X29060059Y78890654D01*
X28679107Y78890654D01*
X28583869Y78843035D01*
X28536250Y78795416D01*
X28488630Y78700178D01*
X28488630Y78509702D01*
X28536250Y78414464D01*
X28583869Y78366845D01*
X28679107Y78319226D01*
X28917202Y78319226D01*
X29012440Y78366845D01*
X29060059Y78414464D01*
X29107678Y78509702D01*
X29107678Y78700178D01*
X29060059Y78795416D01*
X29012440Y78843035D01*
X28917202Y78890654D01*
X29658630Y73556845D02*
X28658630Y73556845D01*
X29658630Y74128273D02*
X29087202Y73699702D01*
X28658630Y74128273D02*
X29230059Y73556845D01*
X18919345Y143597619D02*
X19490773Y143597619D01*
X19205059Y142597619D02*
X19205059Y143597619D01*
X20395535Y142597619D02*
X20062202Y143073809D01*
X19824107Y142597619D02*
X19824107Y143597619D01*
X20205059Y143597619D01*
X20300297Y143550000D01*
X20347916Y143502380D01*
X20395535Y143407142D01*
X20395535Y143264285D01*
X20347916Y143169047D01*
X20300297Y143121428D01*
X20205059Y143073809D01*
X19824107Y143073809D01*
X21395535Y142597619D02*
X21062202Y143073809D01*
X20824107Y142597619D02*
X20824107Y143597619D01*
X21205059Y143597619D01*
X21300297Y143550000D01*
X21347916Y143502380D01*
X21395535Y143407142D01*
X21395535Y143264285D01*
X21347916Y143169047D01*
X21300297Y143121428D01*
X21205059Y143073809D01*
X20824107Y143073809D01*
X21776488Y142645238D02*
X21919345Y142597619D01*
X22157440Y142597619D01*
X22252678Y142645238D01*
X22300297Y142692857D01*
X22347916Y142788095D01*
X22347916Y142883333D01*
X22300297Y142978571D01*
X22252678Y143026190D01*
X22157440Y143073809D01*
X21966964Y143121428D01*
X21871726Y143169047D01*
X21824107Y143216666D01*
X21776488Y143311904D01*
X21776488Y143407142D01*
X21824107Y143502380D01*
X21871726Y143550000D01*
X21966964Y143597619D01*
X22205059Y143597619D01*
X22347916Y143550000D01*
X122256400Y60782600D02*
X122756400Y61648625D01*
X122962596Y61529578D01*
X123062505Y61416910D01*
X123097364Y61286812D01*
X123090984Y61180524D01*
X123036986Y60991757D01*
X122965557Y60868039D01*
X122829080Y60726892D01*
X122740221Y60668223D01*
X122610124Y60633363D01*
X122462596Y60663552D01*
X122256400Y60782600D01*
X123826912Y60645665D02*
X123493579Y60068314D01*
X123811192Y61094627D02*
X123247853Y60595085D01*
X123783963Y60285561D01*
X124400844Y59544505D02*
X123905972Y59830219D01*
X124153408Y59687362D02*
X124653408Y60553387D01*
X124499501Y60477288D01*
X124369403Y60442429D01*
X124263115Y60448809D01*
X126465743Y58548634D02*
X126965743Y59414660D01*
X126960615Y58262920D02*
X126875175Y58972078D01*
X127460615Y59128946D02*
X126680029Y58919788D01*
D10*
X155459821Y144816964D02*
X155459821Y145566964D01*
X155709821Y145031250D01*
X155959821Y145566964D01*
X155959821Y144816964D01*
X156316964Y144816964D02*
X156316964Y145316964D01*
X156316964Y145566964D02*
X156281250Y145531250D01*
X156316964Y145495535D01*
X156352678Y145531250D01*
X156316964Y145566964D01*
X156316964Y145495535D01*
X156995535Y144852678D02*
X156924107Y144816964D01*
X156781250Y144816964D01*
X156709821Y144852678D01*
X156674107Y144888392D01*
X156638392Y144959821D01*
X156638392Y145174107D01*
X156674107Y145245535D01*
X156709821Y145281250D01*
X156781250Y145316964D01*
X156924107Y145316964D01*
X156995535Y145281250D01*
X157316964Y144816964D02*
X157316964Y145316964D01*
X157316964Y145174107D02*
X157352678Y145245535D01*
X157388392Y145281250D01*
X157459821Y145316964D01*
X157531250Y145316964D01*
X157888392Y144816964D02*
X157816964Y144852678D01*
X157781250Y144888392D01*
X157745535Y144959821D01*
X157745535Y145174107D01*
X157781250Y145245535D01*
X157816964Y145281250D01*
X157888392Y145316964D01*
X157995535Y145316964D01*
X158066964Y145281250D01*
X158102678Y145245535D01*
X158138392Y145174107D01*
X158138392Y144959821D01*
X158102678Y144888392D01*
X158066964Y144852678D01*
X157995535Y144816964D01*
X157888392Y144816964D01*
X158459821Y145566964D02*
X158459821Y144959821D01*
X158495535Y144888392D01*
X158531250Y144852678D01*
X158602678Y144816964D01*
X158745535Y144816964D01*
X158816964Y144852678D01*
X158852678Y144888392D01*
X158888392Y144959821D01*
X158888392Y145566964D01*
X159209821Y144852678D02*
X159316964Y144816964D01*
X159495535Y144816964D01*
X159566964Y144852678D01*
X159602678Y144888392D01*
X159638392Y144959821D01*
X159638392Y145031250D01*
X159602678Y145102678D01*
X159566964Y145138392D01*
X159495535Y145174107D01*
X159352678Y145209821D01*
X159281250Y145245535D01*
X159245535Y145281250D01*
X159209821Y145352678D01*
X159209821Y145424107D01*
X159245535Y145495535D01*
X159281250Y145531250D01*
X159352678Y145566964D01*
X159531250Y145566964D01*
X159638392Y145531250D01*
X160209821Y145209821D02*
X160316964Y145174107D01*
X160352678Y145138392D01*
X160388392Y145066964D01*
X160388392Y144959821D01*
X160352678Y144888392D01*
X160316964Y144852678D01*
X160245535Y144816964D01*
X159959821Y144816964D01*
X159959821Y145566964D01*
X160209821Y145566964D01*
X160281250Y145531250D01*
X160316964Y145495535D01*
X160352678Y145424107D01*
X160352678Y145352678D01*
X160316964Y145281250D01*
X160281250Y145245535D01*
X160209821Y145209821D01*
X159959821Y145209821D01*
D12*
X167620059Y115359821D02*
X167715773Y115324107D01*
X167747678Y115288392D01*
X167779583Y115216964D01*
X167779583Y115109821D01*
X167747678Y115038392D01*
X167715773Y115002678D01*
X167651964Y114966964D01*
X167396726Y114966964D01*
X167396726Y115716964D01*
X167620059Y115716964D01*
X167683869Y115681250D01*
X167715773Y115645535D01*
X167747678Y115574107D01*
X167747678Y115502678D01*
X167715773Y115431250D01*
X167683869Y115395535D01*
X167620059Y115359821D01*
X167396726Y115359821D01*
X168353869Y115466964D02*
X168353869Y114966964D01*
X168194345Y115752678D02*
X168034821Y115216964D01*
X168449583Y115216964D01*
X169183392Y115752678D02*
X168609107Y114788392D01*
X169502440Y115395535D02*
X169438630Y115431250D01*
X169406726Y115466964D01*
X169374821Y115538392D01*
X169374821Y115574107D01*
X169406726Y115645535D01*
X169438630Y115681250D01*
X169502440Y115716964D01*
X169630059Y115716964D01*
X169693869Y115681250D01*
X169725773Y115645535D01*
X169757678Y115574107D01*
X169757678Y115538392D01*
X169725773Y115466964D01*
X169693869Y115431250D01*
X169630059Y115395535D01*
X169502440Y115395535D01*
X169438630Y115359821D01*
X169406726Y115324107D01*
X169374821Y115252678D01*
X169374821Y115109821D01*
X169406726Y115038392D01*
X169438630Y115002678D01*
X169502440Y114966964D01*
X169630059Y114966964D01*
X169693869Y115002678D01*
X169725773Y115038392D01*
X169757678Y115109821D01*
X169757678Y115252678D01*
X169725773Y115324107D01*
X169693869Y115359821D01*
X169630059Y115395535D01*
X167192678Y137766964D02*
X167192678Y138516964D01*
X167352202Y138516964D01*
X167447916Y138481250D01*
X167511726Y138409821D01*
X167543630Y138338392D01*
X167575535Y138195535D01*
X167575535Y138088392D01*
X167543630Y137945535D01*
X167511726Y137874107D01*
X167447916Y137802678D01*
X167352202Y137766964D01*
X167192678Y137766964D01*
X167830773Y138445535D02*
X167862678Y138481250D01*
X167926488Y138516964D01*
X168086011Y138516964D01*
X168149821Y138481250D01*
X168181726Y138445535D01*
X168213630Y138374107D01*
X168213630Y138302678D01*
X168181726Y138195535D01*
X167798869Y137766964D01*
X168213630Y137766964D01*
X168979345Y138552678D02*
X168405059Y137588392D01*
X169585535Y137766964D02*
X169362202Y138124107D01*
X169202678Y137766964D02*
X169202678Y138516964D01*
X169457916Y138516964D01*
X169521726Y138481250D01*
X169553630Y138445535D01*
X169585535Y138374107D01*
X169585535Y138266964D01*
X169553630Y138195535D01*
X169521726Y138159821D01*
X169457916Y138124107D01*
X169202678Y138124107D01*
X169808869Y138516964D02*
X170255535Y137766964D01*
X170255535Y138516964D02*
X169808869Y137766964D01*
X170861726Y137766964D02*
X170478869Y137766964D01*
X170670297Y137766964D02*
X170670297Y138516964D01*
X170606488Y138409821D01*
X170542678Y138338392D01*
X170478869Y138302678D01*
X167620059Y112859821D02*
X167715773Y112824107D01*
X167747678Y112788392D01*
X167779583Y112716964D01*
X167779583Y112609821D01*
X167747678Y112538392D01*
X167715773Y112502678D01*
X167651964Y112466964D01*
X167396726Y112466964D01*
X167396726Y113216964D01*
X167620059Y113216964D01*
X167683869Y113181250D01*
X167715773Y113145535D01*
X167747678Y113074107D01*
X167747678Y113002678D01*
X167715773Y112931250D01*
X167683869Y112895535D01*
X167620059Y112859821D01*
X167396726Y112859821D01*
X168385773Y113216964D02*
X168066726Y113216964D01*
X168034821Y112859821D01*
X168066726Y112895535D01*
X168130535Y112931250D01*
X168290059Y112931250D01*
X168353869Y112895535D01*
X168385773Y112859821D01*
X168417678Y112788392D01*
X168417678Y112609821D01*
X168385773Y112538392D01*
X168353869Y112502678D01*
X168290059Y112466964D01*
X168130535Y112466964D01*
X168066726Y112502678D01*
X168034821Y112538392D01*
X169183392Y113252678D02*
X168609107Y112288392D01*
X169438630Y112466964D02*
X169566250Y112466964D01*
X169630059Y112502678D01*
X169661964Y112538392D01*
X169725773Y112645535D01*
X169757678Y112788392D01*
X169757678Y113074107D01*
X169725773Y113145535D01*
X169693869Y113181250D01*
X169630059Y113216964D01*
X169502440Y113216964D01*
X169438630Y113181250D01*
X169406726Y113145535D01*
X169374821Y113074107D01*
X169374821Y112895535D01*
X169406726Y112824107D01*
X169438630Y112788392D01*
X169502440Y112752678D01*
X169630059Y112752678D01*
X169693869Y112788392D01*
X169725773Y112824107D01*
X169757678Y112895535D01*
X167779583Y122688392D02*
X167747678Y122652678D01*
X167651964Y122616964D01*
X167588154Y122616964D01*
X167492440Y122652678D01*
X167428630Y122724107D01*
X167396726Y122795535D01*
X167364821Y122938392D01*
X167364821Y123045535D01*
X167396726Y123188392D01*
X167428630Y123259821D01*
X167492440Y123331250D01*
X167588154Y123366964D01*
X167651964Y123366964D01*
X167747678Y123331250D01*
X167779583Y123295535D01*
X168353869Y123366964D02*
X168226250Y123366964D01*
X168162440Y123331250D01*
X168130535Y123295535D01*
X168066726Y123188392D01*
X168034821Y123045535D01*
X168034821Y122759821D01*
X168066726Y122688392D01*
X168098630Y122652678D01*
X168162440Y122616964D01*
X168290059Y122616964D01*
X168353869Y122652678D01*
X168385773Y122688392D01*
X168417678Y122759821D01*
X168417678Y122938392D01*
X168385773Y123009821D01*
X168353869Y123045535D01*
X168290059Y123081250D01*
X168162440Y123081250D01*
X168098630Y123045535D01*
X168066726Y123009821D01*
X168034821Y122938392D01*
X169183392Y123402678D02*
X168609107Y122438392D01*
X169725773Y123366964D02*
X169406726Y123366964D01*
X169374821Y123009821D01*
X169406726Y123045535D01*
X169470535Y123081250D01*
X169630059Y123081250D01*
X169693869Y123045535D01*
X169725773Y123009821D01*
X169757678Y122938392D01*
X169757678Y122759821D01*
X169725773Y122688392D01*
X169693869Y122652678D01*
X169630059Y122616964D01*
X169470535Y122616964D01*
X169406726Y122652678D01*
X169374821Y122688392D01*
X167238630Y127602678D02*
X167334345Y127566964D01*
X167493869Y127566964D01*
X167557678Y127602678D01*
X167589583Y127638392D01*
X167621488Y127709821D01*
X167621488Y127781250D01*
X167589583Y127852678D01*
X167557678Y127888392D01*
X167493869Y127924107D01*
X167366250Y127959821D01*
X167302440Y127995535D01*
X167270535Y128031250D01*
X167238630Y128102678D01*
X167238630Y128174107D01*
X167270535Y128245535D01*
X167302440Y128281250D01*
X167366250Y128316964D01*
X167525773Y128316964D01*
X167621488Y128281250D01*
X168291488Y127638392D02*
X168259583Y127602678D01*
X168163869Y127566964D01*
X168100059Y127566964D01*
X168004345Y127602678D01*
X167940535Y127674107D01*
X167908630Y127745535D01*
X167876726Y127888392D01*
X167876726Y127995535D01*
X167908630Y128138392D01*
X167940535Y128209821D01*
X168004345Y128281250D01*
X168100059Y128316964D01*
X168163869Y128316964D01*
X168259583Y128281250D01*
X168291488Y128245535D01*
X168897678Y127566964D02*
X168578630Y127566964D01*
X168578630Y128316964D01*
X169599583Y128352678D02*
X169025297Y127388392D01*
X169822916Y127566964D02*
X169822916Y128316964D01*
X169982440Y128316964D01*
X170078154Y128281250D01*
X170141964Y128209821D01*
X170173869Y128138392D01*
X170205773Y127995535D01*
X170205773Y127888392D01*
X170173869Y127745535D01*
X170141964Y127674107D01*
X170078154Y127602678D01*
X169982440Y127566964D01*
X169822916Y127566964D01*
X170620535Y128316964D02*
X170684345Y128316964D01*
X170748154Y128281250D01*
X170780059Y128245535D01*
X170811964Y128174107D01*
X170843869Y128031250D01*
X170843869Y127852678D01*
X170811964Y127709821D01*
X170780059Y127638392D01*
X170748154Y127602678D01*
X170684345Y127566964D01*
X170620535Y127566964D01*
X170556726Y127602678D01*
X170524821Y127638392D01*
X170492916Y127709821D01*
X170461011Y127852678D01*
X170461011Y128031250D01*
X170492916Y128174107D01*
X170524821Y128245535D01*
X170556726Y128281250D01*
X170620535Y128316964D01*
X171609583Y128352678D02*
X171035297Y127388392D01*
X171769107Y128316964D02*
X172183869Y128316964D01*
X171960535Y128031250D01*
X172056250Y128031250D01*
X172120059Y127995535D01*
X172151964Y127959821D01*
X172183869Y127888392D01*
X172183869Y127709821D01*
X172151964Y127638392D01*
X172120059Y127602678D01*
X172056250Y127566964D01*
X171864821Y127566964D01*
X171801011Y127602678D01*
X171769107Y127638392D01*
X167222678Y130102678D02*
X167318392Y130066964D01*
X167477916Y130066964D01*
X167541726Y130102678D01*
X167573630Y130138392D01*
X167605535Y130209821D01*
X167605535Y130281250D01*
X167573630Y130352678D01*
X167541726Y130388392D01*
X167477916Y130424107D01*
X167350297Y130459821D01*
X167286488Y130495535D01*
X167254583Y130531250D01*
X167222678Y130602678D01*
X167222678Y130674107D01*
X167254583Y130745535D01*
X167286488Y130781250D01*
X167350297Y130816964D01*
X167509821Y130816964D01*
X167605535Y130781250D01*
X167892678Y130066964D02*
X167892678Y130816964D01*
X168052202Y130816964D01*
X168147916Y130781250D01*
X168211726Y130709821D01*
X168243630Y130638392D01*
X168275535Y130495535D01*
X168275535Y130388392D01*
X168243630Y130245535D01*
X168211726Y130174107D01*
X168147916Y130102678D01*
X168052202Y130066964D01*
X167892678Y130066964D01*
X168530773Y130281250D02*
X168849821Y130281250D01*
X168466964Y130066964D02*
X168690297Y130816964D01*
X168913630Y130066964D01*
X169615535Y130852678D02*
X169041250Y129888392D01*
X169838869Y130066964D02*
X169838869Y130816964D01*
X169998392Y130816964D01*
X170094107Y130781250D01*
X170157916Y130709821D01*
X170189821Y130638392D01*
X170221726Y130495535D01*
X170221726Y130388392D01*
X170189821Y130245535D01*
X170157916Y130174107D01*
X170094107Y130102678D01*
X169998392Y130066964D01*
X169838869Y130066964D01*
X170859821Y130066964D02*
X170476964Y130066964D01*
X170668392Y130066964D02*
X170668392Y130816964D01*
X170604583Y130709821D01*
X170540773Y130638392D01*
X170476964Y130602678D01*
X171625535Y130852678D02*
X171051250Y129888392D01*
X171816964Y130745535D02*
X171848869Y130781250D01*
X171912678Y130816964D01*
X172072202Y130816964D01*
X172136011Y130781250D01*
X172167916Y130745535D01*
X172199821Y130674107D01*
X172199821Y130602678D01*
X172167916Y130495535D01*
X171785059Y130066964D01*
X172199821Y130066964D01*
X167396726Y125166964D02*
X167396726Y125916964D01*
X167556250Y125916964D01*
X167651964Y125881250D01*
X167715773Y125809821D01*
X167747678Y125738392D01*
X167779583Y125595535D01*
X167779583Y125488392D01*
X167747678Y125345535D01*
X167715773Y125274107D01*
X167651964Y125202678D01*
X167556250Y125166964D01*
X167396726Y125166964D01*
X168353869Y125666964D02*
X168353869Y125166964D01*
X168194345Y125952678D02*
X168034821Y125416964D01*
X168449583Y125416964D01*
X169183392Y125952678D02*
X168609107Y124988392D01*
X169693869Y125666964D02*
X169693869Y125166964D01*
X169534345Y125952678D02*
X169374821Y125416964D01*
X169789583Y125416964D01*
X167272440Y140316964D02*
X167272440Y141066964D01*
X167431964Y141066964D01*
X167527678Y141031250D01*
X167591488Y140959821D01*
X167623392Y140888392D01*
X167655297Y140745535D01*
X167655297Y140638392D01*
X167623392Y140495535D01*
X167591488Y140424107D01*
X167527678Y140352678D01*
X167431964Y140316964D01*
X167272440Y140316964D01*
X167878630Y141066964D02*
X168293392Y141066964D01*
X168070059Y140781250D01*
X168165773Y140781250D01*
X168229583Y140745535D01*
X168261488Y140709821D01*
X168293392Y140638392D01*
X168293392Y140459821D01*
X168261488Y140388392D01*
X168229583Y140352678D01*
X168165773Y140316964D01*
X167974345Y140316964D01*
X167910535Y140352678D01*
X167878630Y140388392D01*
X169059107Y141102678D02*
X168484821Y140138392D01*
X169186726Y141066964D02*
X169569583Y141066964D01*
X169378154Y140316964D02*
X169378154Y141066964D01*
X169729107Y141066964D02*
X170175773Y140316964D01*
X170175773Y141066964D02*
X169729107Y140316964D01*
X170558630Y141066964D02*
X170622440Y141066964D01*
X170686250Y141031250D01*
X170718154Y140995535D01*
X170750059Y140924107D01*
X170781964Y140781250D01*
X170781964Y140602678D01*
X170750059Y140459821D01*
X170718154Y140388392D01*
X170686250Y140352678D01*
X170622440Y140316964D01*
X170558630Y140316964D01*
X170494821Y140352678D01*
X170462916Y140388392D01*
X170431011Y140459821D01*
X170399107Y140602678D01*
X170399107Y140781250D01*
X170431011Y140924107D01*
X170462916Y140995535D01*
X170494821Y141031250D01*
X170558630Y141066964D01*
X167550773Y133431250D02*
X167486964Y133466964D01*
X167391250Y133466964D01*
X167295535Y133431250D01*
X167231726Y133359821D01*
X167199821Y133288392D01*
X167167916Y133145535D01*
X167167916Y133038392D01*
X167199821Y132895535D01*
X167231726Y132824107D01*
X167295535Y132752678D01*
X167391250Y132716964D01*
X167455059Y132716964D01*
X167550773Y132752678D01*
X167582678Y132788392D01*
X167582678Y133038392D01*
X167455059Y133038392D01*
X167869821Y132716964D02*
X167869821Y133466964D01*
X168252678Y132716964D01*
X168252678Y133466964D01*
X168571726Y132716964D02*
X168571726Y133466964D01*
X168731250Y133466964D01*
X168826964Y133431250D01*
X168890773Y133359821D01*
X168922678Y133288392D01*
X168954583Y133145535D01*
X168954583Y133038392D01*
X168922678Y132895535D01*
X168890773Y132824107D01*
X168826964Y132752678D01*
X168731250Y132716964D01*
X168571726Y132716964D01*
X167550773Y135881250D02*
X167486964Y135916964D01*
X167391250Y135916964D01*
X167295535Y135881250D01*
X167231726Y135809821D01*
X167199821Y135738392D01*
X167167916Y135595535D01*
X167167916Y135488392D01*
X167199821Y135345535D01*
X167231726Y135274107D01*
X167295535Y135202678D01*
X167391250Y135166964D01*
X167455059Y135166964D01*
X167550773Y135202678D01*
X167582678Y135238392D01*
X167582678Y135488392D01*
X167455059Y135488392D01*
X167869821Y135166964D02*
X167869821Y135916964D01*
X168252678Y135166964D01*
X168252678Y135916964D01*
X168571726Y135166964D02*
X168571726Y135916964D01*
X168731250Y135916964D01*
X168826964Y135881250D01*
X168890773Y135809821D01*
X168922678Y135738392D01*
X168954583Y135595535D01*
X168954583Y135488392D01*
X168922678Y135345535D01*
X168890773Y135274107D01*
X168826964Y135202678D01*
X168731250Y135166964D01*
X168571726Y135166964D01*
X167396726Y120066964D02*
X167396726Y120816964D01*
X167556250Y120816964D01*
X167651964Y120781250D01*
X167715773Y120709821D01*
X167747678Y120638392D01*
X167779583Y120495535D01*
X167779583Y120388392D01*
X167747678Y120245535D01*
X167715773Y120174107D01*
X167651964Y120102678D01*
X167556250Y120066964D01*
X167396726Y120066964D01*
X168002916Y120816964D02*
X168449583Y120816964D01*
X168162440Y120066964D01*
X169183392Y120852678D02*
X168609107Y119888392D01*
X169693869Y120816964D02*
X169566250Y120816964D01*
X169502440Y120781250D01*
X169470535Y120745535D01*
X169406726Y120638392D01*
X169374821Y120495535D01*
X169374821Y120209821D01*
X169406726Y120138392D01*
X169438630Y120102678D01*
X169502440Y120066964D01*
X169630059Y120066964D01*
X169693869Y120102678D01*
X169725773Y120138392D01*
X169757678Y120209821D01*
X169757678Y120388392D01*
X169725773Y120459821D01*
X169693869Y120495535D01*
X169630059Y120531250D01*
X169502440Y120531250D01*
X169438630Y120495535D01*
X169406726Y120459821D01*
X169374821Y120388392D01*
X167428630Y117909821D02*
X167651964Y117909821D01*
X167747678Y117516964D02*
X167428630Y117516964D01*
X167428630Y118266964D01*
X167747678Y118266964D01*
X168321964Y118266964D02*
X168194345Y118266964D01*
X168130535Y118231250D01*
X168098630Y118195535D01*
X168034821Y118088392D01*
X168002916Y117945535D01*
X168002916Y117659821D01*
X168034821Y117588392D01*
X168066726Y117552678D01*
X168130535Y117516964D01*
X168258154Y117516964D01*
X168321964Y117552678D01*
X168353869Y117588392D01*
X168385773Y117659821D01*
X168385773Y117838392D01*
X168353869Y117909821D01*
X168321964Y117945535D01*
X168258154Y117981250D01*
X168130535Y117981250D01*
X168066726Y117945535D01*
X168034821Y117909821D01*
X168002916Y117838392D01*
X169151488Y118302678D02*
X168577202Y117338392D01*
X169311011Y118266964D02*
X169757678Y118266964D01*
X169470535Y117516964D01*
X145978630Y114916964D02*
X145595773Y114916964D01*
X145787202Y114916964D02*
X145787202Y115666964D01*
X145723392Y115559821D01*
X145659583Y115488392D01*
X145595773Y115452678D01*
X146552916Y115666964D02*
X146425297Y115666964D01*
X146361488Y115631250D01*
X146329583Y115595535D01*
X146265773Y115488392D01*
X146233869Y115345535D01*
X146233869Y115059821D01*
X146265773Y114988392D01*
X146297678Y114952678D01*
X146361488Y114916964D01*
X146489107Y114916964D01*
X146552916Y114952678D01*
X146584821Y114988392D01*
X146616726Y115059821D01*
X146616726Y115238392D01*
X146584821Y115309821D01*
X146552916Y115345535D01*
X146489107Y115381250D01*
X146361488Y115381250D01*
X146297678Y115345535D01*
X146265773Y115309821D01*
X146233869Y115238392D01*
X147382440Y115702678D02*
X146808154Y114738392D01*
X147829107Y115309821D02*
X147924821Y115274107D01*
X147956726Y115238392D01*
X147988630Y115166964D01*
X147988630Y115059821D01*
X147956726Y114988392D01*
X147924821Y114952678D01*
X147861011Y114916964D01*
X147605773Y114916964D01*
X147605773Y115666964D01*
X147829107Y115666964D01*
X147892916Y115631250D01*
X147924821Y115595535D01*
X147956726Y115524107D01*
X147956726Y115452678D01*
X147924821Y115381250D01*
X147892916Y115345535D01*
X147829107Y115309821D01*
X147605773Y115309821D01*
X148243869Y115595535D02*
X148275773Y115631250D01*
X148339583Y115666964D01*
X148499107Y115666964D01*
X148562916Y115631250D01*
X148594821Y115595535D01*
X148626726Y115524107D01*
X148626726Y115452678D01*
X148594821Y115345535D01*
X148211964Y114916964D01*
X148626726Y114916964D01*
X145978630Y112416964D02*
X145595773Y112416964D01*
X145787202Y112416964D02*
X145787202Y113166964D01*
X145723392Y113059821D01*
X145659583Y112988392D01*
X145595773Y112952678D01*
X146393392Y113166964D02*
X146457202Y113166964D01*
X146521011Y113131250D01*
X146552916Y113095535D01*
X146584821Y113024107D01*
X146616726Y112881250D01*
X146616726Y112702678D01*
X146584821Y112559821D01*
X146552916Y112488392D01*
X146521011Y112452678D01*
X146457202Y112416964D01*
X146393392Y112416964D01*
X146329583Y112452678D01*
X146297678Y112488392D01*
X146265773Y112559821D01*
X146233869Y112702678D01*
X146233869Y112881250D01*
X146265773Y113024107D01*
X146297678Y113095535D01*
X146329583Y113131250D01*
X146393392Y113166964D01*
X147382440Y113202678D02*
X146808154Y112238392D01*
X147829107Y112809821D02*
X147924821Y112774107D01*
X147956726Y112738392D01*
X147988630Y112666964D01*
X147988630Y112559821D01*
X147956726Y112488392D01*
X147924821Y112452678D01*
X147861011Y112416964D01*
X147605773Y112416964D01*
X147605773Y113166964D01*
X147829107Y113166964D01*
X147892916Y113131250D01*
X147924821Y113095535D01*
X147956726Y113024107D01*
X147956726Y112952678D01*
X147924821Y112881250D01*
X147892916Y112845535D01*
X147829107Y112809821D01*
X147605773Y112809821D01*
X148562916Y113166964D02*
X148435297Y113166964D01*
X148371488Y113131250D01*
X148339583Y113095535D01*
X148275773Y112988392D01*
X148243869Y112845535D01*
X148243869Y112559821D01*
X148275773Y112488392D01*
X148307678Y112452678D01*
X148371488Y112416964D01*
X148499107Y112416964D01*
X148562916Y112452678D01*
X148594821Y112488392D01*
X148626726Y112559821D01*
X148626726Y112738392D01*
X148594821Y112809821D01*
X148562916Y112845535D01*
X148499107Y112881250D01*
X148371488Y112881250D01*
X148307678Y112845535D01*
X148275773Y112809821D01*
X148243869Y112738392D01*
X145978630Y117466964D02*
X145595773Y117466964D01*
X145787202Y117466964D02*
X145787202Y118216964D01*
X145723392Y118109821D01*
X145659583Y118038392D01*
X145595773Y118002678D01*
X146552916Y117966964D02*
X146552916Y117466964D01*
X146393392Y118252678D02*
X146233869Y117716964D01*
X146648630Y117716964D01*
X147382440Y118252678D02*
X146808154Y117288392D01*
X147829107Y117859821D02*
X147924821Y117824107D01*
X147956726Y117788392D01*
X147988630Y117716964D01*
X147988630Y117609821D01*
X147956726Y117538392D01*
X147924821Y117502678D01*
X147861011Y117466964D01*
X147605773Y117466964D01*
X147605773Y118216964D01*
X147829107Y118216964D01*
X147892916Y118181250D01*
X147924821Y118145535D01*
X147956726Y118074107D01*
X147956726Y118002678D01*
X147924821Y117931250D01*
X147892916Y117895535D01*
X147829107Y117859821D01*
X147605773Y117859821D01*
X148211964Y118216964D02*
X148626726Y118216964D01*
X148403392Y117931250D01*
X148499107Y117931250D01*
X148562916Y117895535D01*
X148594821Y117859821D01*
X148626726Y117788392D01*
X148626726Y117609821D01*
X148594821Y117538392D01*
X148562916Y117502678D01*
X148499107Y117466964D01*
X148307678Y117466964D01*
X148243869Y117502678D01*
X148211964Y117538392D01*
X145978630Y120016964D02*
X145595773Y120016964D01*
X145787202Y120016964D02*
X145787202Y120766964D01*
X145723392Y120659821D01*
X145659583Y120588392D01*
X145595773Y120552678D01*
X146584821Y120766964D02*
X146265773Y120766964D01*
X146233869Y120409821D01*
X146265773Y120445535D01*
X146329583Y120481250D01*
X146489107Y120481250D01*
X146552916Y120445535D01*
X146584821Y120409821D01*
X146616726Y120338392D01*
X146616726Y120159821D01*
X146584821Y120088392D01*
X146552916Y120052678D01*
X146489107Y120016964D01*
X146329583Y120016964D01*
X146265773Y120052678D01*
X146233869Y120088392D01*
X147382440Y120802678D02*
X146808154Y119838392D01*
X147829107Y120409821D02*
X147924821Y120374107D01*
X147956726Y120338392D01*
X147988630Y120266964D01*
X147988630Y120159821D01*
X147956726Y120088392D01*
X147924821Y120052678D01*
X147861011Y120016964D01*
X147605773Y120016964D01*
X147605773Y120766964D01*
X147829107Y120766964D01*
X147892916Y120731250D01*
X147924821Y120695535D01*
X147956726Y120624107D01*
X147956726Y120552678D01*
X147924821Y120481250D01*
X147892916Y120445535D01*
X147829107Y120409821D01*
X147605773Y120409821D01*
X148626726Y120016964D02*
X148243869Y120016964D01*
X148435297Y120016964D02*
X148435297Y120766964D01*
X148371488Y120659821D01*
X148307678Y120588392D01*
X148243869Y120552678D01*
X145675535Y122781250D02*
X145994583Y122781250D01*
X145611726Y122566964D02*
X145835059Y123316964D01*
X146058392Y122566964D01*
X146409345Y123316964D02*
X146473154Y123316964D01*
X146536964Y123281250D01*
X146568869Y123245535D01*
X146600773Y123174107D01*
X146632678Y123031250D01*
X146632678Y122852678D01*
X146600773Y122709821D01*
X146568869Y122638392D01*
X146536964Y122602678D01*
X146473154Y122566964D01*
X146409345Y122566964D01*
X146345535Y122602678D01*
X146313630Y122638392D01*
X146281726Y122709821D01*
X146249821Y122852678D01*
X146249821Y123031250D01*
X146281726Y123174107D01*
X146313630Y123245535D01*
X146345535Y123281250D01*
X146409345Y123316964D01*
X147398392Y123352678D02*
X146824107Y122388392D01*
X147845059Y122959821D02*
X147621726Y122959821D01*
X147621726Y122566964D02*
X147621726Y123316964D01*
X147940773Y123316964D01*
X148132202Y123316964D02*
X148578869Y123316964D01*
X148291726Y122566964D01*
X145675535Y125331250D02*
X145994583Y125331250D01*
X145611726Y125116964D02*
X145835059Y125866964D01*
X146058392Y125116964D01*
X146632678Y125116964D02*
X146249821Y125116964D01*
X146441250Y125116964D02*
X146441250Y125866964D01*
X146377440Y125759821D01*
X146313630Y125688392D01*
X146249821Y125652678D01*
X147398392Y125902678D02*
X146824107Y124938392D01*
X147845059Y125509821D02*
X147621726Y125509821D01*
X147621726Y125116964D02*
X147621726Y125866964D01*
X147940773Y125866964D01*
X148483154Y125866964D02*
X148355535Y125866964D01*
X148291726Y125831250D01*
X148259821Y125795535D01*
X148196011Y125688392D01*
X148164107Y125545535D01*
X148164107Y125259821D01*
X148196011Y125188392D01*
X148227916Y125152678D01*
X148291726Y125116964D01*
X148419345Y125116964D01*
X148483154Y125152678D01*
X148515059Y125188392D01*
X148546964Y125259821D01*
X148546964Y125438392D01*
X148515059Y125509821D01*
X148483154Y125545535D01*
X148419345Y125581250D01*
X148291726Y125581250D01*
X148227916Y125545535D01*
X148196011Y125509821D01*
X148164107Y125438392D01*
X145675535Y127831250D02*
X145994583Y127831250D01*
X145611726Y127616964D02*
X145835059Y128366964D01*
X146058392Y127616964D01*
X146249821Y128295535D02*
X146281726Y128331250D01*
X146345535Y128366964D01*
X146505059Y128366964D01*
X146568869Y128331250D01*
X146600773Y128295535D01*
X146632678Y128224107D01*
X146632678Y128152678D01*
X146600773Y128045535D01*
X146217916Y127616964D01*
X146632678Y127616964D01*
X147398392Y128402678D02*
X146824107Y127438392D01*
X147845059Y128009821D02*
X147621726Y128009821D01*
X147621726Y127616964D02*
X147621726Y128366964D01*
X147940773Y128366964D01*
X148515059Y128366964D02*
X148196011Y128366964D01*
X148164107Y128009821D01*
X148196011Y128045535D01*
X148259821Y128081250D01*
X148419345Y128081250D01*
X148483154Y128045535D01*
X148515059Y128009821D01*
X148546964Y127938392D01*
X148546964Y127759821D01*
X148515059Y127688392D01*
X148483154Y127652678D01*
X148419345Y127616964D01*
X148259821Y127616964D01*
X148196011Y127652678D01*
X148164107Y127688392D01*
X145675535Y130331250D02*
X145994583Y130331250D01*
X145611726Y130116964D02*
X145835059Y130866964D01*
X146058392Y130116964D01*
X146217916Y130866964D02*
X146632678Y130866964D01*
X146409345Y130581250D01*
X146505059Y130581250D01*
X146568869Y130545535D01*
X146600773Y130509821D01*
X146632678Y130438392D01*
X146632678Y130259821D01*
X146600773Y130188392D01*
X146568869Y130152678D01*
X146505059Y130116964D01*
X146313630Y130116964D01*
X146249821Y130152678D01*
X146217916Y130188392D01*
X147398392Y130902678D02*
X146824107Y129938392D01*
X147845059Y130509821D02*
X147621726Y130509821D01*
X147621726Y130116964D02*
X147621726Y130866964D01*
X147940773Y130866964D01*
X148483154Y130616964D02*
X148483154Y130116964D01*
X148323630Y130902678D02*
X148164107Y130366964D01*
X148578869Y130366964D01*
X146867916Y133566964D02*
X147091250Y132816964D01*
X147314583Y133566964D01*
X147920773Y132888392D02*
X147888869Y132852678D01*
X147793154Y132816964D01*
X147729345Y132816964D01*
X147633630Y132852678D01*
X147569821Y132924107D01*
X147537916Y132995535D01*
X147506011Y133138392D01*
X147506011Y133245535D01*
X147537916Y133388392D01*
X147569821Y133459821D01*
X147633630Y133531250D01*
X147729345Y133566964D01*
X147793154Y133566964D01*
X147888869Y133531250D01*
X147920773Y133495535D01*
X148590773Y132888392D02*
X148558869Y132852678D01*
X148463154Y132816964D01*
X148399345Y132816964D01*
X148303630Y132852678D01*
X148239821Y132924107D01*
X148207916Y132995535D01*
X148176011Y133138392D01*
X148176011Y133245535D01*
X148207916Y133388392D01*
X148239821Y133459821D01*
X148303630Y133531250D01*
X148399345Y133566964D01*
X148463154Y133566964D01*
X148558869Y133531250D01*
X148590773Y133495535D01*
X147394345Y135266964D02*
X147171011Y135624107D01*
X147011488Y135266964D02*
X147011488Y136016964D01*
X147266726Y136016964D01*
X147330535Y135981250D01*
X147362440Y135945535D01*
X147394345Y135874107D01*
X147394345Y135766964D01*
X147362440Y135695535D01*
X147330535Y135659821D01*
X147266726Y135624107D01*
X147011488Y135624107D01*
X147649583Y135302678D02*
X147745297Y135266964D01*
X147904821Y135266964D01*
X147968630Y135302678D01*
X148000535Y135338392D01*
X148032440Y135409821D01*
X148032440Y135481250D01*
X148000535Y135552678D01*
X147968630Y135588392D01*
X147904821Y135624107D01*
X147777202Y135659821D01*
X147713392Y135695535D01*
X147681488Y135731250D01*
X147649583Y135802678D01*
X147649583Y135874107D01*
X147681488Y135945535D01*
X147713392Y135981250D01*
X147777202Y136016964D01*
X147936726Y136016964D01*
X148032440Y135981250D01*
X148223869Y136016964D02*
X148606726Y136016964D01*
X148415297Y135266964D02*
X148415297Y136016964D01*
X147250773Y138531250D02*
X147186964Y138566964D01*
X147091250Y138566964D01*
X146995535Y138531250D01*
X146931726Y138459821D01*
X146899821Y138388392D01*
X146867916Y138245535D01*
X146867916Y138138392D01*
X146899821Y137995535D01*
X146931726Y137924107D01*
X146995535Y137852678D01*
X147091250Y137816964D01*
X147155059Y137816964D01*
X147250773Y137852678D01*
X147282678Y137888392D01*
X147282678Y138138392D01*
X147155059Y138138392D01*
X147569821Y137816964D02*
X147569821Y138566964D01*
X147952678Y137816964D01*
X147952678Y138566964D01*
X148271726Y137816964D02*
X148271726Y138566964D01*
X148431250Y138566964D01*
X148526964Y138531250D01*
X148590773Y138459821D01*
X148622678Y138388392D01*
X148654583Y138245535D01*
X148654583Y138138392D01*
X148622678Y137995535D01*
X148590773Y137924107D01*
X148526964Y137852678D01*
X148431250Y137816964D01*
X148271726Y137816964D01*
X147298630Y140366964D02*
X147075297Y140724107D01*
X146915773Y140366964D02*
X146915773Y141116964D01*
X147171011Y141116964D01*
X147234821Y141081250D01*
X147266726Y141045535D01*
X147298630Y140974107D01*
X147298630Y140866964D01*
X147266726Y140795535D01*
X147234821Y140759821D01*
X147171011Y140724107D01*
X146915773Y140724107D01*
X147553869Y140581250D02*
X147872916Y140581250D01*
X147490059Y140366964D02*
X147713392Y141116964D01*
X147936726Y140366964D01*
X148096250Y141116964D02*
X148255773Y140366964D01*
X148383392Y140902678D01*
X148511011Y140366964D01*
X148670535Y141116964D01*
D11*
X330069345Y143597619D02*
X330640773Y143597619D01*
X330355059Y142597619D02*
X330355059Y143597619D01*
X331545535Y142597619D02*
X331212202Y143073809D01*
X330974107Y142597619D02*
X330974107Y143597619D01*
X331355059Y143597619D01*
X331450297Y143550000D01*
X331497916Y143502380D01*
X331545535Y143407142D01*
X331545535Y143264285D01*
X331497916Y143169047D01*
X331450297Y143121428D01*
X331355059Y143073809D01*
X330974107Y143073809D01*
X332545535Y142597619D02*
X332212202Y143073809D01*
X331974107Y142597619D02*
X331974107Y143597619D01*
X332355059Y143597619D01*
X332450297Y143550000D01*
X332497916Y143502380D01*
X332545535Y143407142D01*
X332545535Y143264285D01*
X332497916Y143169047D01*
X332450297Y143121428D01*
X332355059Y143073809D01*
X331974107Y143073809D01*
X332926488Y142645238D02*
X333069345Y142597619D01*
X333307440Y142597619D01*
X333402678Y142645238D01*
X333450297Y142692857D01*
X333497916Y142788095D01*
X333497916Y142883333D01*
X333450297Y142978571D01*
X333402678Y143026190D01*
X333307440Y143073809D01*
X333116964Y143121428D01*
X333021726Y143169047D01*
X332974107Y143216666D01*
X332926488Y143311904D01*
X332926488Y143407142D01*
X332974107Y143502380D01*
X333021726Y143550000D01*
X333116964Y143597619D01*
X333355059Y143597619D01*
X333497916Y143550000D01*
X143788630Y92606964D02*
X142788630Y92606964D01*
X142788630Y92845059D01*
X142836250Y92987916D01*
X142931488Y93083154D01*
X143026726Y93130773D01*
X143217202Y93178392D01*
X143360059Y93178392D01*
X143550535Y93130773D01*
X143645773Y93083154D01*
X143741011Y92987916D01*
X143788630Y92845059D01*
X143788630Y92606964D01*
X142883869Y93559345D02*
X142836250Y93606964D01*
X142788630Y93702202D01*
X142788630Y93940297D01*
X142836250Y94035535D01*
X142883869Y94083154D01*
X142979107Y94130773D01*
X143074345Y94130773D01*
X143217202Y94083154D01*
X143788630Y93511726D01*
X143788630Y94130773D01*
X143788630Y95083154D02*
X143788630Y94511726D01*
X143788630Y94797440D02*
X142788630Y94797440D01*
X142931488Y94702202D01*
X143026726Y94606964D01*
X143074345Y94511726D01*
X143958630Y89749345D02*
X142958630Y89749345D01*
X143958630Y90320773D02*
X143387202Y89892202D01*
X142958630Y90320773D02*
X143530059Y89749345D01*
X105688630Y85939464D02*
X104688630Y85939464D01*
X104688630Y86177559D01*
X104736250Y86320416D01*
X104831488Y86415654D01*
X104926726Y86463273D01*
X105117202Y86510892D01*
X105260059Y86510892D01*
X105450535Y86463273D01*
X105545773Y86415654D01*
X105641011Y86320416D01*
X105688630Y86177559D01*
X105688630Y85939464D01*
X104688630Y86844226D02*
X104688630Y87463273D01*
X105069583Y87129940D01*
X105069583Y87272797D01*
X105117202Y87368035D01*
X105164821Y87415654D01*
X105260059Y87463273D01*
X105498154Y87463273D01*
X105593392Y87415654D01*
X105641011Y87368035D01*
X105688630Y87272797D01*
X105688630Y86987083D01*
X105641011Y86891845D01*
X105593392Y86844226D01*
X104688630Y87796607D02*
X104688630Y88415654D01*
X105069583Y88082321D01*
X105069583Y88225178D01*
X105117202Y88320416D01*
X105164821Y88368035D01*
X105260059Y88415654D01*
X105498154Y88415654D01*
X105593392Y88368035D01*
X105641011Y88320416D01*
X105688630Y88225178D01*
X105688630Y87939464D01*
X105641011Y87844226D01*
X105593392Y87796607D01*
X105858630Y83081845D02*
X104858630Y83081845D01*
X105858630Y83653273D02*
X105287202Y83224702D01*
X104858630Y83653273D02*
X105430059Y83081845D01*
X105688630Y104989464D02*
X104688630Y104989464D01*
X104688630Y105227559D01*
X104736250Y105370416D01*
X104831488Y105465654D01*
X104926726Y105513273D01*
X105117202Y105560892D01*
X105260059Y105560892D01*
X105450535Y105513273D01*
X105545773Y105465654D01*
X105641011Y105370416D01*
X105688630Y105227559D01*
X105688630Y104989464D01*
X105688630Y106513273D02*
X105688630Y105941845D01*
X105688630Y106227559D02*
X104688630Y106227559D01*
X104831488Y106132321D01*
X104926726Y106037083D01*
X104974345Y105941845D01*
X105688630Y106989464D02*
X105688630Y107179940D01*
X105641011Y107275178D01*
X105593392Y107322797D01*
X105450535Y107418035D01*
X105260059Y107465654D01*
X104879107Y107465654D01*
X104783869Y107418035D01*
X104736250Y107370416D01*
X104688630Y107275178D01*
X104688630Y107084702D01*
X104736250Y106989464D01*
X104783869Y106941845D01*
X104879107Y106894226D01*
X105117202Y106894226D01*
X105212440Y106941845D01*
X105260059Y106989464D01*
X105307678Y107084702D01*
X105307678Y107275178D01*
X105260059Y107370416D01*
X105212440Y107418035D01*
X105117202Y107465654D01*
X105858630Y102131845D02*
X104858630Y102131845D01*
X105858630Y102703273D02*
X105287202Y102274702D01*
X104858630Y102703273D02*
X105430059Y102131845D01*
X29488630Y95464464D02*
X28488630Y95464464D01*
X28488630Y95702559D01*
X28536250Y95845416D01*
X28631488Y95940654D01*
X28726726Y95988273D01*
X28917202Y96035892D01*
X29060059Y96035892D01*
X29250535Y95988273D01*
X29345773Y95940654D01*
X29441011Y95845416D01*
X29488630Y95702559D01*
X29488630Y95464464D01*
X29488630Y96988273D02*
X29488630Y96416845D01*
X29488630Y96702559D02*
X28488630Y96702559D01*
X28631488Y96607321D01*
X28726726Y96512083D01*
X28774345Y96416845D01*
X28488630Y97893035D02*
X28488630Y97416845D01*
X28964821Y97369226D01*
X28917202Y97416845D01*
X28869583Y97512083D01*
X28869583Y97750178D01*
X28917202Y97845416D01*
X28964821Y97893035D01*
X29060059Y97940654D01*
X29298154Y97940654D01*
X29393392Y97893035D01*
X29441011Y97845416D01*
X29488630Y97750178D01*
X29488630Y97512083D01*
X29441011Y97416845D01*
X29393392Y97369226D01*
X29658630Y92606845D02*
X28658630Y92606845D01*
X29658630Y93178273D02*
X29087202Y92749702D01*
X28658630Y93178273D02*
X29230059Y92606845D01*
X48538630Y115784404D02*
X47538630Y115784404D01*
X47538630Y116022500D01*
X47586250Y116165357D01*
X47681488Y116260595D01*
X47776726Y116308214D01*
X47967202Y116355833D01*
X48110059Y116355833D01*
X48300535Y116308214D01*
X48395773Y116260595D01*
X48491011Y116165357D01*
X48538630Y116022500D01*
X48538630Y115784404D01*
X47633869Y116736785D02*
X47586250Y116784404D01*
X47538630Y116879642D01*
X47538630Y117117738D01*
X47586250Y117212976D01*
X47633869Y117260595D01*
X47729107Y117308214D01*
X47824345Y117308214D01*
X47967202Y117260595D01*
X48538630Y116689166D01*
X48538630Y117308214D01*
X48708630Y112450595D02*
X47708630Y112450595D01*
X48708630Y113022023D02*
X48137202Y112593452D01*
X47708630Y113022023D02*
X48280059Y112450595D01*
X67588630Y124833154D02*
X66588630Y124833154D01*
X66588630Y125071250D01*
X66636250Y125214107D01*
X66731488Y125309345D01*
X66826726Y125356964D01*
X67017202Y125404583D01*
X67160059Y125404583D01*
X67350535Y125356964D01*
X67445773Y125309345D01*
X67541011Y125214107D01*
X67588630Y125071250D01*
X67588630Y124833154D01*
X66588630Y125737916D02*
X66588630Y126356964D01*
X66969583Y126023630D01*
X66969583Y126166488D01*
X67017202Y126261726D01*
X67064821Y126309345D01*
X67160059Y126356964D01*
X67398154Y126356964D01*
X67493392Y126309345D01*
X67541011Y126261726D01*
X67588630Y126166488D01*
X67588630Y125880773D01*
X67541011Y125785535D01*
X67493392Y125737916D01*
X67758630Y121499345D02*
X66758630Y121499345D01*
X67758630Y122070773D02*
X67187202Y121642202D01*
X66758630Y122070773D02*
X67330059Y121499345D01*
X86638630Y130865654D02*
X85638630Y130865654D01*
X85638630Y131103750D01*
X85686250Y131246607D01*
X85781488Y131341845D01*
X85876726Y131389464D01*
X86067202Y131437083D01*
X86210059Y131437083D01*
X86400535Y131389464D01*
X86495773Y131341845D01*
X86591011Y131246607D01*
X86638630Y131103750D01*
X86638630Y130865654D01*
X85971964Y132294226D02*
X86638630Y132294226D01*
X85591011Y132056130D02*
X86305297Y131818035D01*
X86305297Y132437083D01*
X86808630Y127531845D02*
X85808630Y127531845D01*
X86808630Y128103273D02*
X86237202Y127674702D01*
X85808630Y128103273D02*
X86380059Y127531845D01*
X142201130Y121658154D02*
X141201130Y121658154D01*
X141201130Y121896250D01*
X141248750Y122039107D01*
X141343988Y122134345D01*
X141439226Y122181964D01*
X141629702Y122229583D01*
X141772559Y122229583D01*
X141963035Y122181964D01*
X142058273Y122134345D01*
X142153511Y122039107D01*
X142201130Y121896250D01*
X142201130Y121658154D01*
X141201130Y122562916D02*
X141201130Y123229583D01*
X142201130Y122801011D01*
X142371130Y118324345D02*
X141371130Y118324345D01*
X142371130Y118895773D02*
X141799702Y118467202D01*
X141371130Y118895773D02*
X141942559Y118324345D01*
X105688630Y124515654D02*
X104688630Y124515654D01*
X104688630Y124753750D01*
X104736250Y124896607D01*
X104831488Y124991845D01*
X104926726Y125039464D01*
X105117202Y125087083D01*
X105260059Y125087083D01*
X105450535Y125039464D01*
X105545773Y124991845D01*
X105641011Y124896607D01*
X105688630Y124753750D01*
X105688630Y124515654D01*
X104688630Y125991845D02*
X104688630Y125515654D01*
X105164821Y125468035D01*
X105117202Y125515654D01*
X105069583Y125610892D01*
X105069583Y125848988D01*
X105117202Y125944226D01*
X105164821Y125991845D01*
X105260059Y126039464D01*
X105498154Y126039464D01*
X105593392Y125991845D01*
X105641011Y125944226D01*
X105688630Y125848988D01*
X105688630Y125610892D01*
X105641011Y125515654D01*
X105593392Y125468035D01*
X105858630Y121181845D02*
X104858630Y121181845D01*
X105858630Y121753273D02*
X105287202Y121324702D01*
X104858630Y121753273D02*
X105430059Y121181845D01*
X124738630Y121340654D02*
X123738630Y121340654D01*
X123738630Y121578750D01*
X123786250Y121721607D01*
X123881488Y121816845D01*
X123976726Y121864464D01*
X124167202Y121912083D01*
X124310059Y121912083D01*
X124500535Y121864464D01*
X124595773Y121816845D01*
X124691011Y121721607D01*
X124738630Y121578750D01*
X124738630Y121340654D01*
X123738630Y122769226D02*
X123738630Y122578750D01*
X123786250Y122483511D01*
X123833869Y122435892D01*
X123976726Y122340654D01*
X124167202Y122293035D01*
X124548154Y122293035D01*
X124643392Y122340654D01*
X124691011Y122388273D01*
X124738630Y122483511D01*
X124738630Y122673988D01*
X124691011Y122769226D01*
X124643392Y122816845D01*
X124548154Y122864464D01*
X124310059Y122864464D01*
X124214821Y122816845D01*
X124167202Y122769226D01*
X124119583Y122673988D01*
X124119583Y122483511D01*
X124167202Y122388273D01*
X124214821Y122340654D01*
X124310059Y122293035D01*
X124908630Y118006845D02*
X123908630Y118006845D01*
X124908630Y118578273D02*
X124337202Y118149702D01*
X123908630Y118578273D02*
X124480059Y118006845D01*
M02*
